<?xml version="1.0" encoding="utf-8"?>
<!-- Generator: Adobe Illustrator 16.0.0, SVG Export Plug-In . SVG Version: 6.00 Build 0)  -->
<!DOCTYPE svg PUBLIC "-//W3C//DTD SVG 1.1//EN" "http://www.w3.org/Graphics/SVG/1.1/DTD/svg11.dtd">
<svg version="1.1" id="Capa_1" xmlns="http://www.w3.org/2000/svg" xmlns:xlink="http://www.w3.org/1999/xlink" x="0px" y="0px"
	 width="189.235px" height="189.233px" viewBox="0 0 189.235 189.233" enable-background="new 0 0 189.235 189.233"
	 xml:space="preserve">
<circle fill="#EAEBEC" cx="94.938" cy="94.616" r="94.618"/>
<g>
	<g>
		<path fill="#EAEBEC" d="M69.285,116.758c0,0.357-0.272,0.664-0.647,0.664c-0.664,0-0.886-0.783-2.384-0.783
			c-1.107,0-1.925,0.698-1.925,1.72c0,2.674,5.756,1.396,5.756,5.483c0,2.01-1.464,3.832-4.104,3.832
			c-1.601,0-3.372-0.613-3.372-1.465c0-0.408,0.204-0.767,0.63-0.767c0.511,0,1.227,0.937,2.759,0.937
			c1.55,0,2.486-1.123,2.486-2.469c0-2.878-5.756-1.481-5.756-5.449c0-1.413,1.328-3.116,3.576-3.116
			C67.804,115.345,69.285,115.975,69.285,116.758z"/>
		<path fill="#EAEBEC" d="M73.252,126.175h3.61c0.426,0,0.731,0.222,0.731,0.698s-0.306,0.698-0.731,0.698h-4.309
			c-0.562,0-0.801-0.357-0.801-0.817v-10.49c0-0.459,0.239-0.816,0.801-0.816h4.309c0.426,0,0.731,0.221,0.731,0.697
			c0,0.478-0.306,0.698-0.731,0.698h-3.61v3.968h3.286c0.426,0,0.732,0.222,0.732,0.698c0,0.478-0.307,0.698-0.732,0.698h-3.286
			V126.175z"/>
		<path fill="#EAEBEC" d="M81.136,126.873c0,0.494-0.29,0.801-0.749,0.801c-0.46,0-0.75-0.307-0.75-0.801v-10.609
			c0-0.459,0.238-0.816,0.801-0.816h2.775c1.907,0,3.713,1.294,3.713,3.27c0,2.451-1.499,3.371-3.304,3.439l-0.647,0.017l3.865,4.24
			c0.205,0.222,0.29,0.409,0.29,0.682c0,0.323-0.307,0.579-0.682,0.579c-0.306,0-0.511-0.153-0.681-0.341l-4.632-5.075V126.873z
			 M81.136,121.049h2.043c1.567,0,2.248-0.664,2.248-2.23c0-1.124-0.886-2.077-2.282-2.077h-2.009V121.049z"/>
		<path fill="#EAEBEC" d="M95.627,116.315c0.188-0.528,0.323-0.971,0.919-0.971c0.409,0,0.665,0.307,0.665,0.613
			c0,0.204-0.034,0.374-0.103,0.579l-3.695,10.319c-0.17,0.493-0.357,0.817-0.868,0.817c-0.512,0-0.698-0.324-0.869-0.817
			l-3.695-10.319c-0.067-0.205-0.102-0.375-0.102-0.579c0-0.307,0.255-0.613,0.664-0.613c0.596,0,0.732,0.442,0.919,0.971
			l3.065,8.838h0.034L95.627,116.315z"/>
		<path fill="#EAEBEC" d="M100.089,126.873c0,0.494-0.29,0.801-0.749,0.801c-0.46,0-0.75-0.307-0.75-0.801v-10.729
			c0-0.493,0.29-0.8,0.75-0.8c0.459,0,0.749,0.307,0.749,0.8V126.873z"/>
		<path fill="#EAEBEC" d="M107.24,126.379c1.822,0,2.622-1.09,3.253-1.09c0.357,0,0.596,0.272,0.596,0.698
			c0,0.767-1.72,1.687-3.849,1.687c-3.508,0-5.312-3.015-5.312-6.165s1.805-6.164,5.397-6.164c2.146,0,3.508,1.158,3.508,1.771
			c0,0.392-0.238,0.716-0.612,0.716c-0.682,0-1.022-1.192-2.896-1.192c-2.69,0-3.797,2.555-3.797,4.87
			C103.528,123.825,104.669,126.379,107.24,126.379z"/>
		<path fill="#EAEBEC" d="M114.307,126.873c0,0.494-0.29,0.801-0.749,0.801c-0.46,0-0.75-0.307-0.75-0.801v-10.729
			c0-0.493,0.29-0.8,0.75-0.8c0.459,0,0.749,0.307,0.749,0.8V126.873z"/>
		<path fill="#EAEBEC" d="M121.459,115.345c3.457,0,5.313,3.014,5.313,6.164s-1.856,6.165-5.313,6.165s-5.312-3.015-5.312-6.165
			S118.002,115.345,121.459,115.345z M121.459,126.379c2.725,0,3.712-2.554,3.712-4.87c0-2.315-0.987-4.87-3.712-4.87
			s-3.712,2.555-3.712,4.87C117.747,123.825,118.734,126.379,121.459,126.379z"/>
		<path fill="#EAEBEC" d="M54.079,135.436h-2.265c-0.426,0-0.732-0.221-0.732-0.698c0-0.477,0.307-0.698,0.732-0.698h6.028
			c0.425,0,0.731,0.222,0.731,0.698c0,0.478-0.307,0.698-0.731,0.698h-2.266v10.03c0,0.494-0.289,0.801-0.749,0.801
			s-0.749-0.307-0.749-0.801V135.436z"/>
		<path fill="#EAEBEC" d="M61.418,144.768h3.61c0.426,0,0.731,0.222,0.731,0.698s-0.306,0.698-0.731,0.698H60.72
			c-0.562,0-0.801-0.357-0.801-0.817v-10.489c0-0.46,0.239-0.818,0.801-0.818h4.309c0.426,0,0.731,0.222,0.731,0.698
			c0,0.478-0.306,0.698-0.731,0.698h-3.61v3.968h3.286c0.426,0,0.732,0.222,0.732,0.698s-0.307,0.698-0.732,0.698h-3.286V144.768z"
			/>
		<path fill="#EAEBEC" d="M69.302,144.768h3.201c0.426,0,0.732,0.222,0.732,0.698s-0.307,0.698-0.732,0.698h-3.899
			c-0.562,0-0.801-0.357-0.801-0.817v-10.609c0-0.493,0.29-0.8,0.75-0.8c0.459,0,0.749,0.307,0.749,0.8V144.768z"/>
		<path fill="#EAEBEC" d="M76.249,144.768h3.61c0.426,0,0.731,0.222,0.731,0.698s-0.306,0.698-0.731,0.698h-4.309
			c-0.562,0-0.801-0.357-0.801-0.817v-10.489c0-0.46,0.238-0.818,0.801-0.818h4.309c0.426,0,0.731,0.222,0.731,0.698
			c0,0.478-0.306,0.698-0.731,0.698h-3.61v3.968h3.286c0.426,0,0.732,0.222,0.732,0.698s-0.307,0.698-0.732,0.698h-3.286V144.768z"
			/>
		<path fill="#EAEBEC" d="M84.133,145.466c0,0.494-0.29,0.801-0.749,0.801c-0.46,0-0.75-0.307-0.75-0.801v-10.608
			c0-0.46,0.239-0.818,0.801-0.818h4.257c0.426,0,0.732,0.222,0.732,0.698c0,0.478-0.307,0.698-0.732,0.698h-3.559v3.968h3.15
			c0.426,0,0.732,0.222,0.732,0.698s-0.307,0.698-0.732,0.698h-3.15V145.466z"/>
		<path fill="#EAEBEC" d="M94.741,133.938c3.457,0,5.313,3.014,5.313,6.164s-1.856,6.165-5.313,6.165s-5.312-3.015-5.312-6.165
			S91.284,133.938,94.741,133.938z M94.741,144.972c2.725,0,3.712-2.554,3.712-4.87c0-2.315-0.987-4.87-3.712-4.87
			s-3.712,2.555-3.712,4.87C91.029,142.418,92.017,144.972,94.741,144.972z M94.077,132.949c-0.289,0.12-0.426,0.153-0.579,0.153
			c-0.442,0-0.646-0.459-0.646-0.715c0-0.204,0.119-0.442,0.596-0.63l1.958-0.801c0.29-0.119,0.426-0.153,0.579-0.153
			c0.442,0,0.647,0.46,0.647,0.716c0,0.204-0.119,0.442-0.597,0.63L94.077,132.949z"/>
		<path fill="#EAEBEC" d="M103.392,145.466c0,0.494-0.29,0.801-0.749,0.801c-0.46,0-0.75-0.307-0.75-0.801v-10.643
			c0-0.597,0.205-0.886,0.682-0.886c0.442,0,0.646,0.188,1.056,0.783l6.13,8.804h0.034v-8.787c0-0.493,0.29-0.8,0.75-0.8
			c0.459,0,0.749,0.307,0.749,0.8v10.644c0,0.596-0.204,0.886-0.682,0.886c-0.442,0-0.646-0.188-1.056-0.784l-6.13-8.804h-0.034
			V145.466z"/>
		<path fill="#EAEBEC" d="M115.09,145.466c0,0.494-0.29,0.801-0.749,0.801c-0.46,0-0.75-0.307-0.75-0.801v-10.729
			c0-0.493,0.29-0.8,0.75-0.8c0.459,0,0.749,0.307,0.749,0.8V145.466z"/>
		<path fill="#EAEBEC" d="M122.242,144.972c1.822,0,2.622-1.09,3.253-1.09c0.357,0,0.596,0.272,0.596,0.698
			c0,0.767-1.72,1.687-3.849,1.687c-3.508,0-5.312-3.015-5.312-6.165s1.805-6.164,5.397-6.164c2.146,0,3.508,1.158,3.508,1.771
			c0,0.392-0.238,0.716-0.612,0.716c-0.682,0-1.022-1.192-2.896-1.192c-2.69,0-3.797,2.555-3.797,4.87
			C118.53,142.418,119.671,144.972,122.242,144.972z"/>
		<path fill="#EAEBEC" d="M132.663,133.938c3.457,0,5.313,3.014,5.313,6.164s-1.856,6.165-5.313,6.165s-5.312-3.015-5.312-6.165
			S129.206,133.938,132.663,133.938z M132.663,144.972c2.725,0,3.712-2.554,3.712-4.87c0-2.315-0.987-4.87-3.712-4.87
			s-3.712,2.555-3.712,4.87C128.951,142.418,129.938,144.972,132.663,144.972z"/>
	</g>
	<g>
		<path fill="#59595C" d="M69.285,116.758c0,0.357-0.272,0.664-0.647,0.664c-0.664,0-0.886-0.783-2.384-0.783
			c-1.107,0-1.925,0.698-1.925,1.72c0,2.674,5.756,1.396,5.756,5.483c0,2.01-1.464,3.832-4.104,3.832
			c-1.601,0-3.372-0.613-3.372-1.465c0-0.408,0.204-0.767,0.63-0.767c0.511,0,1.227,0.937,2.759,0.937
			c1.55,0,2.486-1.123,2.486-2.469c0-2.878-5.756-1.481-5.756-5.449c0-1.413,1.328-3.116,3.576-3.116
			C67.804,115.345,69.285,115.975,69.285,116.758z"/>
		<path fill="#59595C" d="M73.252,126.175h3.61c0.426,0,0.731,0.222,0.731,0.698s-0.306,0.698-0.731,0.698h-4.309
			c-0.562,0-0.801-0.357-0.801-0.817v-10.49c0-0.459,0.239-0.816,0.801-0.816h4.309c0.426,0,0.731,0.221,0.731,0.697
			c0,0.478-0.306,0.698-0.731,0.698h-3.61v3.968h3.286c0.426,0,0.732,0.222,0.732,0.698c0,0.478-0.307,0.698-0.732,0.698h-3.286
			V126.175z"/>
		<path fill="#59595C" d="M81.136,126.873c0,0.494-0.29,0.801-0.749,0.801c-0.46,0-0.75-0.307-0.75-0.801v-10.609
			c0-0.459,0.238-0.816,0.801-0.816h2.775c1.907,0,3.713,1.294,3.713,3.27c0,2.451-1.499,3.371-3.304,3.439l-0.647,0.017l3.865,4.24
			c0.205,0.222,0.29,0.409,0.29,0.682c0,0.323-0.307,0.579-0.682,0.579c-0.306,0-0.511-0.153-0.681-0.341l-4.632-5.075V126.873z
			 M81.136,121.049h2.043c1.567,0,2.248-0.664,2.248-2.23c0-1.124-0.886-2.077-2.282-2.077h-2.009V121.049z"/>
		<path fill="#59595C" d="M95.627,116.315c0.188-0.528,0.323-0.971,0.919-0.971c0.409,0,0.665,0.307,0.665,0.613
			c0,0.204-0.034,0.374-0.103,0.579l-3.695,10.319c-0.17,0.493-0.357,0.817-0.868,0.817c-0.512,0-0.698-0.324-0.869-0.817
			l-3.695-10.319c-0.067-0.205-0.102-0.375-0.102-0.579c0-0.307,0.255-0.613,0.664-0.613c0.596,0,0.732,0.442,0.919,0.971
			l3.065,8.838h0.034L95.627,116.315z"/>
		<path fill="#59595C" d="M100.089,126.873c0,0.494-0.29,0.801-0.749,0.801c-0.46,0-0.75-0.307-0.75-0.801v-10.729
			c0-0.493,0.29-0.8,0.75-0.8c0.459,0,0.749,0.307,0.749,0.8V126.873z"/>
		<path fill="#59595C" d="M107.24,126.379c1.822,0,2.622-1.09,3.253-1.09c0.357,0,0.596,0.272,0.596,0.698
			c0,0.767-1.72,1.687-3.849,1.687c-3.508,0-5.312-3.015-5.312-6.165s1.805-6.164,5.397-6.164c2.146,0,3.508,1.158,3.508,1.771
			c0,0.392-0.238,0.716-0.612,0.716c-0.682,0-1.022-1.192-2.896-1.192c-2.69,0-3.797,2.555-3.797,4.87
			C103.528,123.825,104.669,126.379,107.24,126.379z"/>
		<path fill="#59595C" d="M114.307,126.873c0,0.494-0.29,0.801-0.749,0.801c-0.46,0-0.75-0.307-0.75-0.801v-10.729
			c0-0.493,0.29-0.8,0.75-0.8c0.459,0,0.749,0.307,0.749,0.8V126.873z"/>
		<path fill="#59595C" d="M121.459,115.345c3.457,0,5.313,3.014,5.313,6.164s-1.856,6.165-5.313,6.165s-5.312-3.015-5.312-6.165
			S118.002,115.345,121.459,115.345z M121.459,126.379c2.725,0,3.712-2.554,3.712-4.87c0-2.315-0.987-4.87-3.712-4.87
			s-3.712,2.555-3.712,4.87C117.747,123.825,118.734,126.379,121.459,126.379z"/>
		<path fill="#59595C" d="M54.079,135.436h-2.265c-0.426,0-0.732-0.221-0.732-0.698c0-0.477,0.307-0.698,0.732-0.698h6.028
			c0.425,0,0.731,0.222,0.731,0.698c0,0.478-0.307,0.698-0.731,0.698h-2.266v10.03c0,0.494-0.289,0.801-0.749,0.801
			s-0.749-0.307-0.749-0.801V135.436z"/>
		<path fill="#59595C" d="M61.418,144.768h3.61c0.426,0,0.731,0.222,0.731,0.698s-0.306,0.698-0.731,0.698H60.72
			c-0.562,0-0.801-0.357-0.801-0.817v-10.489c0-0.46,0.239-0.818,0.801-0.818h4.309c0.426,0,0.731,0.222,0.731,0.698
			c0,0.478-0.306,0.698-0.731,0.698h-3.61v3.968h3.286c0.426,0,0.732,0.222,0.732,0.698s-0.307,0.698-0.732,0.698h-3.286V144.768z"
			/>
		<path fill="#59595C" d="M69.302,144.768h3.201c0.426,0,0.732,0.222,0.732,0.698s-0.307,0.698-0.732,0.698h-3.899
			c-0.562,0-0.801-0.357-0.801-0.817v-10.609c0-0.493,0.29-0.8,0.75-0.8c0.459,0,0.749,0.307,0.749,0.8V144.768z"/>
		<path fill="#59595C" d="M76.249,144.768h3.61c0.426,0,0.731,0.222,0.731,0.698s-0.306,0.698-0.731,0.698h-4.309
			c-0.562,0-0.801-0.357-0.801-0.817v-10.489c0-0.46,0.238-0.818,0.801-0.818h4.309c0.426,0,0.731,0.222,0.731,0.698
			c0,0.478-0.306,0.698-0.731,0.698h-3.61v3.968h3.286c0.426,0,0.732,0.222,0.732,0.698s-0.307,0.698-0.732,0.698h-3.286V144.768z"
			/>
		<path fill="#59595C" d="M84.133,145.466c0,0.494-0.29,0.801-0.749,0.801c-0.46,0-0.75-0.307-0.75-0.801v-10.608
			c0-0.46,0.239-0.818,0.801-0.818h4.257c0.426,0,0.732,0.222,0.732,0.698c0,0.478-0.307,0.698-0.732,0.698h-3.559v3.968h3.15
			c0.426,0,0.732,0.222,0.732,0.698s-0.307,0.698-0.732,0.698h-3.15V145.466z"/>
		<path fill="#59595C" d="M94.741,133.938c3.457,0,5.313,3.014,5.313,6.164s-1.856,6.165-5.313,6.165s-5.312-3.015-5.312-6.165
			S91.284,133.938,94.741,133.938z M94.741,144.972c2.725,0,3.712-2.554,3.712-4.87c0-2.315-0.987-4.87-3.712-4.87
			s-3.712,2.555-3.712,4.87C91.029,142.418,92.017,144.972,94.741,144.972z M94.077,132.949c-0.289,0.12-0.426,0.153-0.579,0.153
			c-0.442,0-0.646-0.459-0.646-0.715c0-0.204,0.119-0.442,0.596-0.63l1.958-0.801c0.29-0.119,0.426-0.153,0.579-0.153
			c0.442,0,0.647,0.46,0.647,0.716c0,0.204-0.119,0.442-0.597,0.63L94.077,132.949z"/>
		<path fill="#59595C" d="M103.392,145.466c0,0.494-0.29,0.801-0.749,0.801c-0.46,0-0.75-0.307-0.75-0.801v-10.643
			c0-0.597,0.205-0.886,0.682-0.886c0.442,0,0.646,0.188,1.056,0.783l6.13,8.804h0.034v-8.787c0-0.493,0.29-0.8,0.75-0.8
			c0.459,0,0.749,0.307,0.749,0.8v10.644c0,0.596-0.204,0.886-0.682,0.886c-0.442,0-0.646-0.188-1.056-0.784l-6.13-8.804h-0.034
			V145.466z"/>
		<path fill="#59595C" d="M115.09,145.466c0,0.494-0.29,0.801-0.749,0.801c-0.46,0-0.75-0.307-0.75-0.801v-10.729
			c0-0.493,0.29-0.8,0.75-0.8c0.459,0,0.749,0.307,0.749,0.8V145.466z"/>
		<path fill="#59595C" d="M122.242,144.972c1.822,0,2.622-1.09,3.253-1.09c0.357,0,0.596,0.272,0.596,0.698
			c0,0.767-1.72,1.687-3.849,1.687c-3.508,0-5.312-3.015-5.312-6.165s1.805-6.164,5.397-6.164c2.146,0,3.508,1.158,3.508,1.771
			c0,0.392-0.238,0.716-0.612,0.716c-0.682,0-1.022-1.192-2.896-1.192c-2.69,0-3.797,2.555-3.797,4.87
			C118.53,142.418,119.671,144.972,122.242,144.972z"/>
		<path fill="#59595C" d="M132.663,133.938c3.457,0,5.313,3.014,5.313,6.164s-1.856,6.165-5.313,6.165s-5.312-3.015-5.312-6.165
			S129.206,133.938,132.663,133.938z M132.663,144.972c2.725,0,3.712-2.554,3.712-4.87c0-2.315-0.987-4.87-3.712-4.87
			s-3.712,2.555-3.712,4.87C128.951,142.418,129.938,144.972,132.663,144.972z"/>
	</g>
</g>
<g>
	<g>
		<g>
			<g>
				<g>
					<path fill="#AE1F24" d="M95.36,56.456c-9.474,0-17.182-7.707-17.182-17.18s7.708-17.176,17.182-17.176
						c9.469,0,17.172,7.703,17.172,17.176S104.829,56.456,95.36,56.456z M95.36,27.054c-6.741,0-12.227,5.482-12.227,12.223
						c0,6.743,5.485,12.225,12.227,12.225c6.738,0,12.219-5.481,12.219-12.225C107.579,32.536,102.099,27.054,95.36,27.054z"/>
				</g>
				<g>
					<path fill="#AE1F24" d="M100.421,94.243c-10.667,0-23.37-0.027-24.355-0.029c-0.065,0.004-0.159,0.007-0.281,0.007
						c-4.64,0-9.32-2.953-9.32-9.553V74.279c-0.016-0.256-0.305-8.749,4.862-14.136c2.716-2.829,6.349-4.263,10.805-4.263
						l1.659,0.026l11.157,17.432l11.428-17.488l1.128-0.166c0,0,0.464-0.069,1.243-0.069c13.804,0,14.594,15.899,14.616,19.09
						c0.035,6.138,0.019,8.544,0.004,9.174c0.109,0.988,0.273,4.456-2.075,7.198c-1.758,2.053-4.381,3.108-7.796,3.137
						C110.985,94.236,105.979,94.243,100.421,94.243z M75.866,89.261h0.147c0,0,29.928,0.065,37.438,0
						c1.906-0.016,3.271-0.48,4.061-1.383c1.187-1.367,0.928-3.506,0.926-3.527l-0.024-0.181v-0.208
						c0-0.021,0.036-2.118-0.006-9.227c-0.069-12.151-6.13-14-9.206-14.155L94.907,82.457L81.088,60.871
						c-2.587,0.182-4.611,1.066-6.172,2.684c-3.706,3.848-3.507,10.562-3.503,10.629l0.003,10.484c0,3.802,2.377,4.597,4.368,4.597
						L75.866,89.261z"/>
				</g>
			</g>
		</g>
	</g>
	<g>
		<path fill="#AE1F24" d="M81.985,42.046c2.512,3.11,6.655,5.242,11.42,5.513c0.252,0.035,0.51,0.055,0.781,0.055
			c0.087,0,0.163-0.009,0.238-0.009h0.017c1.6-0.064,2.873-0.704,2.873-1.501c0-0.833-1.401-1.516-3.128-1.516
			c-1.718,0-3.119,0.683-3.119,1.516c0,0.075,0.025,0.141,0.042,0.218c-5.814-1.2-10.19-5.468-10.509-10.606"/>
		<path fill="#AE1F24" d="M94.187,48.285c-0.306,0-0.59-0.02-0.876-0.061c-4.775-0.27-9.111-2.369-11.844-5.758l0.831-0.673
			c-1.383-1.769-2.229-3.844-2.367-6.039l1.34-0.081c0.283,4.527,4.048,8.482,9.261,9.823c0.433-0.933,1.861-1.581,3.655-1.581
			c2.164,0,3.8,0.941,3.8,2.188c0,1.195-1.445,2.091-3.519,2.173L94.187,48.285z M91.877,46.729c0.511,0.077,1.04,0.129,1.565,0.16
			c0.28,0.036,0.505,0.053,0.744,0.053l0.238-0.01c1.439-0.056,2.217-0.611,2.217-0.828c0-0.218-0.842-0.844-2.455-0.844
			c-1.604,0-2.446,0.626-2.446,0.844L91.877,46.729z"/>
	</g>
</g>
</svg>
