<?xml version="1.0" encoding="utf-8"?>
<!-- Generator: Adobe Illustrator 16.0.0, SVG Export Plug-In . SVG Version: 6.00 Build 0)  -->
<!DOCTYPE svg PUBLIC "-//W3C//DTD SVG 1.1//EN" "http://www.w3.org/Graphics/SVG/1.1/DTD/svg11.dtd">
<svg version="1.1" id="Capa_1" xmlns="http://www.w3.org/2000/svg" xmlns:xlink="http://www.w3.org/1999/xlink" x="0px" y="0px"
	 width="189.235px" height="189.233px" viewBox="0 0 189.235 189.233" enable-background="new 0 0 189.235 189.233"
	 xml:space="preserve">
<circle fill="#EAEBEC" cx="94.618" cy="94.616" r="94.618"/>
<g>
	<g>
		<path fill="#EAEBEC" d="M69.259,127.024c-0.068,0.53-0.41,0.649-0.803,0.649c-0.463,0-0.701-0.308-0.701-0.77
			c0-0.17,0.033-0.393,0.086-0.684l1.656-9.775c0.154-0.854,0.633-1.145,1.18-1.145c0.598,0,0.924,0.223,1.094,0.786l2.598,8.903
			h0.035l2.598-8.903c0.17-0.563,0.494-0.786,1.094-0.786c0.547,0,1.025,0.291,1.178,1.145l1.658,9.775
			c0.051,0.291,0.086,0.514,0.086,0.684c0,0.462-0.24,0.77-0.701,0.77c-0.393,0-0.734-0.119-0.803-0.649l-1.418-9.775H78.06
			l-2.904,9.81c-0.154,0.496-0.428,0.615-0.77,0.615s-0.615-0.119-0.77-0.615l-2.904-9.81h-0.035L69.259,127.024z"/>
		<path fill="#EAEBEC" d="M83.458,127.109c-0.119,0.325-0.324,0.564-0.734,0.564c-0.395,0-0.719-0.239-0.719-0.633
			c0-0.205,0.154-0.598,0.205-0.752l3.777-10.065c0.188-0.53,0.496-0.923,1.076-0.923c0.582,0,0.889,0.393,1.076,0.923l3.777,10.065
			c0.051,0.154,0.205,0.547,0.205,0.752c0,0.394-0.324,0.633-0.717,0.633c-0.41,0-0.615-0.239-0.736-0.564l-0.785-2.188h-5.641
			L83.458,127.109z M87.081,117.044h-0.035l-2.34,6.579h4.717L87.081,117.044z"/>
		<path fill="#EAEBEC" d="M95.11,126.871c0,0.495-0.291,0.803-0.752,0.803s-0.752-0.308-0.752-0.803v-10.768
			c0-0.495,0.291-0.803,0.752-0.803s0.752,0.308,0.752,0.803v4.443l5.213-4.768c0.273-0.256,0.512-0.479,0.82-0.479
			c0.375,0,0.648,0.256,0.648,0.649s-0.137,0.53-0.307,0.684l-4.99,4.495l5.451,5.264c0.24,0.222,0.309,0.393,0.309,0.615
			c0,0.358-0.326,0.666-0.736,0.666c-0.221,0-0.426-0.034-0.734-0.324l-5.674-5.572V126.871z"/>
		<path fill="#EAEBEC" d="M105.243,126.871c0,0.495-0.291,0.803-0.752,0.803c-0.463,0-0.752-0.308-0.752-0.803v-10.647
			c0-0.462,0.238-0.82,0.803-0.82h2.785c1.914,0,3.727,1.299,3.727,3.281c0,2.461-1.504,3.384-3.316,3.452l-0.648,0.018l3.879,4.255
			c0.205,0.222,0.291,0.41,0.291,0.684c0,0.325-0.309,0.581-0.684,0.581c-0.309,0-0.514-0.154-0.684-0.342l-4.648-5.093V126.871z
			 M105.243,121.025h2.051c1.572,0,2.256-0.666,2.256-2.238c0-1.128-0.889-2.085-2.291-2.085h-2.016V121.025z"/>
		<path fill="#EAEBEC" d="M117.802,115.301c3.471,0,5.332,3.025,5.332,6.187s-1.861,6.187-5.332,6.187
			c-3.469,0-5.332-3.025-5.332-6.187S114.333,115.301,117.802,115.301z M117.802,126.375c2.734,0,3.727-2.563,3.727-4.888
			s-0.992-4.888-3.727-4.888s-3.725,2.563-3.725,4.888S115.067,126.375,117.802,126.375z"/>
		<path fill="#EAEBEC" d="M70.276,145.031c1.828,0,2.631-1.094,3.264-1.094c0.359,0,0.598,0.273,0.598,0.701
			c0,0.769-1.725,1.691-3.861,1.691c-3.521,0-5.332-3.025-5.332-6.187s1.811-6.187,5.418-6.187c2.152,0,3.52,1.162,3.52,1.777
			c0,0.393-0.238,0.718-0.615,0.718c-0.684,0-1.025-1.196-2.904-1.196c-2.701,0-3.812,2.563-3.812,4.888
			S67.696,145.031,70.276,145.031z"/>
		<path fill="#EAEBEC" d="M77.366,145.527c0,0.495-0.291,0.803-0.752,0.803s-0.752-0.308-0.752-0.803V134.88
			c0-0.462,0.24-0.82,0.803-0.82h2.787c1.914,0,3.725,1.299,3.725,3.281c0,2.461-1.504,3.384-3.314,3.452l-0.65,0.018l3.879,4.255
			c0.205,0.222,0.291,0.41,0.291,0.684c0,0.325-0.307,0.581-0.684,0.581c-0.307,0-0.512-0.154-0.684-0.342l-4.648-5.093V145.527z
			 M77.366,139.682h2.051c1.572,0,2.256-0.666,2.256-2.238c0-1.128-0.889-2.085-2.289-2.085h-2.018V139.682z"/>
		<path fill="#EAEBEC" d="M86.56,144.826h3.623c0.426,0,0.734,0.223,0.734,0.701s-0.309,0.7-0.734,0.7h-4.324
			c-0.564,0-0.803-0.358-0.803-0.82V134.88c0-0.462,0.238-0.82,0.803-0.82h4.324c0.426,0,0.734,0.222,0.734,0.7
			s-0.309,0.701-0.734,0.701H86.56v3.982h3.297c0.428,0,0.736,0.222,0.736,0.7s-0.309,0.7-0.736,0.7H86.56V144.826z M87.19,132.966
			c-0.289,0.12-0.426,0.153-0.58,0.153c-0.445,0-0.65-0.461-0.65-0.717c0-0.205,0.121-0.445,0.6-0.633l1.965-0.803
			c0.291-0.12,0.428-0.154,0.58-0.154c0.445,0,0.65,0.461,0.65,0.718c0,0.205-0.119,0.444-0.598,0.632L87.19,132.966z"/>
		<path fill="#EAEBEC" d="M93.052,134.88c0-0.462,0.238-0.82,0.803-0.82h2.957c3.623,0,5.4,2.803,5.4,6.016
			c0,3.64-1.932,6.152-5.195,6.152h-3.162c-0.564,0-0.803-0.358-0.803-0.82V134.88z M94.556,144.929h2.152
			c2.838,0,3.896-2.376,3.896-4.854c0-2.495-1.127-4.717-3.998-4.717h-2.051V144.929z"/>
		<path fill="#EAEBEC" d="M105.56,145.527c0,0.495-0.291,0.803-0.752,0.803c-0.463,0-0.752-0.308-0.752-0.803V134.76
			c0-0.495,0.289-0.803,0.752-0.803c0.461,0,0.752,0.308,0.752,0.803V145.527z"/>
		<path fill="#EAEBEC" d="M109.915,135.461h-2.273c-0.426,0-0.734-0.223-0.734-0.701s0.309-0.7,0.734-0.7h6.051
			c0.428,0,0.734,0.222,0.734,0.7s-0.307,0.701-0.734,0.701h-2.273v10.066c0,0.495-0.291,0.803-0.752,0.803
			s-0.752-0.308-0.752-0.803V135.461z"/>
		<path fill="#EAEBEC" d="M120.646,133.957c3.471,0,5.332,3.025,5.332,6.187s-1.861,6.187-5.332,6.187
			c-3.469,0-5.332-3.025-5.332-6.187S117.177,133.957,120.646,133.957z M120.646,145.031c2.734,0,3.727-2.563,3.727-4.888
			s-0.992-4.888-3.727-4.888s-3.725,2.563-3.725,4.888S117.911,145.031,120.646,145.031z"/>
	</g>
	<g>
		<path fill="#59595C" d="M69.259,127.024c-0.068,0.53-0.41,0.649-0.803,0.649c-0.463,0-0.701-0.308-0.701-0.77
			c0-0.17,0.033-0.393,0.086-0.684l1.656-9.775c0.154-0.854,0.633-1.145,1.18-1.145c0.598,0,0.924,0.223,1.094,0.786l2.598,8.903
			h0.035l2.598-8.903c0.17-0.563,0.494-0.786,1.094-0.786c0.547,0,1.025,0.291,1.178,1.145l1.658,9.775
			c0.051,0.291,0.086,0.514,0.086,0.684c0,0.462-0.24,0.77-0.701,0.77c-0.393,0-0.734-0.119-0.803-0.649l-1.418-9.775H78.06
			l-2.904,9.81c-0.154,0.496-0.428,0.615-0.77,0.615s-0.615-0.119-0.77-0.615l-2.904-9.81h-0.035L69.259,127.024z"/>
		<path fill="#59595C" d="M83.458,127.109c-0.119,0.325-0.324,0.564-0.734,0.564c-0.395,0-0.719-0.239-0.719-0.633
			c0-0.205,0.154-0.598,0.205-0.752l3.777-10.065c0.188-0.53,0.496-0.923,1.076-0.923c0.582,0,0.889,0.393,1.076,0.923l3.777,10.065
			c0.051,0.154,0.205,0.547,0.205,0.752c0,0.394-0.324,0.633-0.717,0.633c-0.41,0-0.615-0.239-0.736-0.564l-0.785-2.188h-5.641
			L83.458,127.109z M87.081,117.044h-0.035l-2.34,6.579h4.717L87.081,117.044z"/>
		<path fill="#59595C" d="M95.11,126.871c0,0.495-0.291,0.803-0.752,0.803s-0.752-0.308-0.752-0.803v-10.768
			c0-0.495,0.291-0.803,0.752-0.803s0.752,0.308,0.752,0.803v4.443l5.213-4.768c0.273-0.256,0.512-0.479,0.82-0.479
			c0.375,0,0.648,0.256,0.648,0.649s-0.137,0.53-0.307,0.684l-4.99,4.495l5.451,5.264c0.24,0.222,0.309,0.393,0.309,0.615
			c0,0.358-0.326,0.666-0.736,0.666c-0.221,0-0.426-0.034-0.734-0.324l-5.674-5.572V126.871z"/>
		<path fill="#59595C" d="M105.243,126.871c0,0.495-0.291,0.803-0.752,0.803c-0.463,0-0.752-0.308-0.752-0.803v-10.647
			c0-0.462,0.238-0.82,0.803-0.82h2.785c1.914,0,3.727,1.299,3.727,3.281c0,2.461-1.504,3.384-3.316,3.452l-0.648,0.018l3.879,4.255
			c0.205,0.222,0.291,0.41,0.291,0.684c0,0.325-0.309,0.581-0.684,0.581c-0.309,0-0.514-0.154-0.684-0.342l-4.648-5.093V126.871z
			 M105.243,121.025h2.051c1.572,0,2.256-0.666,2.256-2.238c0-1.128-0.889-2.085-2.291-2.085h-2.016V121.025z"/>
		<path fill="#59595C" d="M117.802,115.301c3.471,0,5.332,3.025,5.332,6.187s-1.861,6.187-5.332,6.187
			c-3.469,0-5.332-3.025-5.332-6.187S114.333,115.301,117.802,115.301z M117.802,126.375c2.734,0,3.727-2.563,3.727-4.888
			s-0.992-4.888-3.727-4.888s-3.725,2.563-3.725,4.888S115.067,126.375,117.802,126.375z"/>
		<path fill="#59595C" d="M70.276,145.031c1.828,0,2.631-1.094,3.264-1.094c0.359,0,0.598,0.273,0.598,0.701
			c0,0.769-1.725,1.691-3.861,1.691c-3.521,0-5.332-3.025-5.332-6.187s1.811-6.187,5.418-6.187c2.152,0,3.52,1.162,3.52,1.777
			c0,0.393-0.238,0.718-0.615,0.718c-0.684,0-1.025-1.196-2.904-1.196c-2.701,0-3.812,2.563-3.812,4.888
			S67.696,145.031,70.276,145.031z"/>
		<path fill="#59595C" d="M77.366,145.527c0,0.495-0.291,0.803-0.752,0.803s-0.752-0.308-0.752-0.803V134.88
			c0-0.462,0.24-0.82,0.803-0.82h2.787c1.914,0,3.725,1.299,3.725,3.281c0,2.461-1.504,3.384-3.314,3.452l-0.65,0.018l3.879,4.255
			c0.205,0.222,0.291,0.41,0.291,0.684c0,0.325-0.307,0.581-0.684,0.581c-0.307,0-0.512-0.154-0.684-0.342l-4.648-5.093V145.527z
			 M77.366,139.682h2.051c1.572,0,2.256-0.666,2.256-2.238c0-1.128-0.889-2.085-2.289-2.085h-2.018V139.682z"/>
		<path fill="#59595C" d="M86.56,144.826h3.623c0.426,0,0.734,0.223,0.734,0.701s-0.309,0.7-0.734,0.7h-4.324
			c-0.564,0-0.803-0.358-0.803-0.82V134.88c0-0.462,0.238-0.82,0.803-0.82h4.324c0.426,0,0.734,0.222,0.734,0.7
			s-0.309,0.701-0.734,0.701H86.56v3.982h3.297c0.428,0,0.736,0.222,0.736,0.7s-0.309,0.7-0.736,0.7H86.56V144.826z M87.19,132.966
			c-0.289,0.12-0.426,0.153-0.58,0.153c-0.445,0-0.65-0.461-0.65-0.717c0-0.205,0.121-0.445,0.6-0.633l1.965-0.803
			c0.291-0.12,0.428-0.154,0.58-0.154c0.445,0,0.65,0.461,0.65,0.718c0,0.205-0.119,0.444-0.598,0.632L87.19,132.966z"/>
		<path fill="#59595C" d="M93.052,134.88c0-0.462,0.238-0.82,0.803-0.82h2.957c3.623,0,5.4,2.803,5.4,6.016
			c0,3.64-1.932,6.152-5.195,6.152h-3.162c-0.564,0-0.803-0.358-0.803-0.82V134.88z M94.556,144.929h2.152
			c2.838,0,3.896-2.376,3.896-4.854c0-2.495-1.127-4.717-3.998-4.717h-2.051V144.929z"/>
		<path fill="#59595C" d="M105.56,145.527c0,0.495-0.291,0.803-0.752,0.803c-0.463,0-0.752-0.308-0.752-0.803V134.76
			c0-0.495,0.289-0.803,0.752-0.803c0.461,0,0.752,0.308,0.752,0.803V145.527z"/>
		<path fill="#59595C" d="M109.915,135.461h-2.273c-0.426,0-0.734-0.223-0.734-0.701s0.309-0.7,0.734-0.7h6.051
			c0.428,0,0.734,0.222,0.734,0.7s-0.307,0.701-0.734,0.701h-2.273v10.066c0,0.495-0.291,0.803-0.752,0.803
			s-0.752-0.308-0.752-0.803V135.461z"/>
		<path fill="#59595C" d="M120.646,133.957c3.471,0,5.332,3.025,5.332,6.187s-1.861,6.187-5.332,6.187
			c-3.469,0-5.332-3.025-5.332-6.187S117.177,133.957,120.646,133.957z M120.646,145.031c2.734,0,3.727-2.563,3.727-4.888
			s-0.992-4.888-3.727-4.888s-3.725,2.563-3.725,4.888S117.911,145.031,120.646,145.031z"/>
	</g>
</g>
<g>
	<path fill-rule="evenodd" clip-rule="evenodd" fill="#AE1F24" d="M39.638,96.697v-0.042V54.63c0-0.976,0.788-1.764,1.744-1.764
		h0.048h87.629c0.966,0,1.749,0.788,1.749,1.764v0.046v42.021c0,0.972-0.783,1.765-1.749,1.765h-0.056H41.382
		C40.426,98.462,39.638,97.669,39.638,96.697L39.638,96.697z M43.14,56.378v38.576h84.163V56.378H43.14z"/>
	<path fill-rule="evenodd" clip-rule="evenodd" fill="#AE1F24" d="M48.404,49.365c-0.968,0-1.757-0.784-1.757-1.753
		s0.789-1.757,1.757-1.757h87.664c0.969,0,1.757,0.788,1.757,1.757v0.042v42.032c0,0.963-0.788,1.75-1.757,1.75
		c-0.961,0-1.748-0.787-1.748-1.75V49.365H48.404z"/>
	<path fill-rule="evenodd" clip-rule="evenodd" fill="#AE1F24" d="M55.422,42.349c-0.967,0-1.755-0.789-1.755-1.754
		c0-0.963,0.788-1.746,1.755-1.746h87.663c0.964,0,1.75,0.783,1.75,1.746v0.043v42.029c0,0.97-0.786,1.756-1.75,1.756
		c-0.97,0-1.754-0.786-1.754-1.756V42.349H55.422z"/>
	<path fill-rule="evenodd" clip-rule="evenodd" fill="#AE1F24" d="M62.433,35.332c-0.965,0-1.756-0.784-1.756-1.761
		c0-0.959,0.791-1.75,1.756-1.75h87.672c0.965,0,1.755,0.791,1.755,1.75l-0.014,0.189l-0.006,41.912
		c0,0.954-0.791,1.736-1.751,1.736c-0.964,0-1.743-0.782-1.743-1.736l0.017-40.341H62.433z"/>
	<path fill-rule="evenodd" clip-rule="evenodd" fill="#AE1F24" d="M55.412,80.933c-1.449,0-2.773-0.6-3.721-1.547
		s-1.54-2.268-1.54-3.713c0-1.459,0.593-2.771,1.54-3.725c0.947-0.944,2.265-1.537,3.721-1.537c1.444,0,2.759,0.593,3.709,1.537
		l0.011,0.004l0.042,0.051l0.021,0.02c0.913,0.938,1.478,2.231,1.478,3.65c0,1.445-0.588,2.766-1.54,3.713l-0.135,0.125
		C58.053,80.386,56.797,80.933,55.412,80.933L55.412,80.933z M54.175,76.905c0.309,0.314,0.759,0.51,1.237,0.51
		c0.457,0,0.861-0.162,1.175-0.436l0.071-0.074c0.31-0.311,0.506-0.754,0.506-1.232c0-0.494-0.196-0.938-0.497-1.245l-0.009-0.003
		c-0.314-0.316-0.761-0.512-1.246-0.512c-0.479,0-0.929,0.197-1.237,0.515c-0.315,0.319-0.515,0.751-0.515,1.245
		C53.66,76.151,53.859,76.595,54.175,76.905z"/>
	<path fill-rule="evenodd" clip-rule="evenodd" fill="#AE1F24" d="M115.027,80.925c-1.44,0-2.763-0.592-3.71-1.547l0,0h-0.006
		c-0.951-0.947-1.542-2.262-1.542-3.705c0-1.457,0.591-2.771,1.542-3.725h0.006l0.046-0.047l0.016-0.018
		c0.95-0.912,2.241-1.488,3.648-1.488c1.451,0,2.762,0.604,3.718,1.553l0,0l0.058,0.051l0.009,0.014
		c0.913,0.948,1.479,2.234,1.479,3.66c0,1.443-0.596,2.758-1.546,3.705l-0.137,0.127C117.666,80.385,116.41,80.925,115.027,80.925
		L115.027,80.925z M113.795,76.905c0.309,0.314,0.749,0.51,1.232,0.51c0.459,0,0.871-0.162,1.182-0.441l0.055-0.07
		c0.321-0.316,0.516-0.759,0.516-1.23c0-0.496-0.189-0.938-0.497-1.248l-0.019-0.012c-0.31-0.318-0.748-0.508-1.236-0.508
		c-0.483,0-0.921,0.189-1.232,0.508l-0.015,0.012c-0.305,0.31-0.506,0.752-0.506,1.248c0,0.472,0.206,0.914,0.521,1.23V76.905z"/>
	<path fill-rule="evenodd" clip-rule="evenodd" fill="#AE1F24" d="M114.666,54.63c0-0.976,0.794-1.764,1.753-1.764
		c0.975,0,1.759,0.788,1.759,1.764c0,3.003,1.215,5.713,3.174,7.688c1.973,1.963,4.694,3.18,7.697,3.18
		c0.966,0,1.748,0.791,1.748,1.758c0,0.957-0.782,1.744-1.748,1.744c-3.97,0-7.557-1.607-10.168-4.21V64.78
		C116.282,62.177,114.666,58.593,114.666,54.63z"/>
	<path fill-rule="evenodd" clip-rule="evenodd" fill="#AE1F24" d="M52.257,54.63c0-0.976,0.784-1.764,1.752-1.764
		c0.969,0,1.759,0.788,1.759,1.764c0,3.959-1.615,7.543-4.215,10.15l-0.007,0.009c-2.609,2.603-6.207,4.21-10.164,4.21
		c-0.956,0-1.744-0.787-1.744-1.744c0-0.967,0.788-1.758,1.744-1.758c3.011,0,5.729-1.217,7.69-3.18l0.013-0.008
		C51.045,60.343,52.257,57.633,52.257,54.63z"/>
	<path fill-rule="evenodd" clip-rule="evenodd" fill="#AE1F24" d="M118.178,96.697c0,0.972-0.784,1.765-1.759,1.765
		c-0.959,0-1.753-0.793-1.753-1.765c0-3.948,1.616-7.544,4.215-10.147l0.008-0.012c2.606-2.6,6.196-4.205,10.16-4.205
		c0.966,0,1.748,0.784,1.748,1.744c0,0.969-0.782,1.756-1.748,1.756c-3.019,0-5.725,1.223-7.688,3.177l-0.009,0.013
		C119.393,90.977,118.178,93.706,118.178,96.697z"/>
	<path fill-rule="evenodd" clip-rule="evenodd" fill="#AE1F24" d="M55.768,96.697c0,0.972-0.79,1.765-1.759,1.765
		c-0.968,0-1.752-0.793-1.752-1.765c0-2.991-1.212-5.721-3.172-7.675l-0.013-0.013c-1.962-1.954-4.68-3.177-7.69-3.177
		c-0.956,0-1.744-0.787-1.744-1.756c0-0.96,0.788-1.744,1.744-1.744c3.957,0,7.555,1.605,10.164,4.205l0.007,0.012
		C54.152,89.153,55.768,92.749,55.768,96.697z"/>
	<path fill-rule="evenodd" clip-rule="evenodd" fill="#AE1F24" d="M85.217,64.274c-1.325,0-2.536,0.533-3.404,1.406l-0.079,0.085
		c-0.827,0.856-1.339,2.036-1.339,3.327c0,1.333,0.547,2.54,1.413,3.405l0.005,0.001v-0.001c0.868,0.876,2.079,1.407,3.404,1.407
		c1.337,0,2.55-0.531,3.41-1.4l0.014-0.007c0.86-0.865,1.401-2.072,1.401-3.405c0-1.334-0.541-2.543-1.415-3.412l-0.079-0.087
		C87.69,64.776,86.521,64.274,85.217,64.274L85.217,64.274z M79.337,63.203c1.505-1.515,3.584-2.434,5.88-2.434
		c2.243,0,4.284,0.886,5.784,2.331l0.108,0.103c1.509,1.5,2.438,3.586,2.438,5.89c0,2.285-0.93,4.365-2.438,5.871l-0.006,0.019
		c-1.509,1.501-3.591,2.433-5.887,2.433c-2.302,0-4.375-0.932-5.88-2.433v-0.008c-1.511-1.513-2.443-3.591-2.443-5.882
		c0-2.244,0.891-4.275,2.332-5.781L79.337,63.203z"/>
	<path fill-rule="evenodd" clip-rule="evenodd" fill="#AE1F24" d="M76.666,81.285c-0.335,0.386-0.646,0.795-0.943,1.224
		l-0.067,0.105c-0.354,0.541-0.665,1.111-0.917,1.703c1.174,1.423,2.643,2.597,4.284,3.449c1.85,0.951,3.959,1.482,6.194,1.482
		c2.243,0,4.346-0.531,6.203-1.482c1.651-0.853,3.105-2.026,4.282-3.438c-0.272-0.64-0.607-1.253-0.979-1.821v0.002
		c-0.3-0.429-0.606-0.838-0.945-1.224c-1.015,0.708-2.121,1.303-3.287,1.748c-1.648,0.618-3.437,0.958-5.273,0.958
		c-1.841,0-3.618-0.34-5.259-0.958C78.784,82.588,77.682,81.993,76.666,81.285L76.666,81.285z M72.803,80.57
		c0.708-1.06,1.559-2.028,2.521-2.886c0.64-0.617,1.672-0.651,2.362-0.037c1.015,0.895,2.211,1.616,3.503,2.11
		c1.24,0.47,2.609,0.727,4.028,0.727c1.43,0,2.79-0.257,4.026-0.727c1.288-0.481,2.474-1.204,3.491-2.09
		c0.645-0.601,1.66-0.622,2.342-0.021c0.976,0.857,1.844,1.846,2.554,2.916v0.007l0,0c0.711,1.069,1.29,2.241,1.714,3.476v0.011
		c0.173,0.515,0.099,1.102-0.239,1.58c-1.585,2.189-3.675,4.001-6.095,5.233c-2.342,1.205-4.991,1.888-7.793,1.888
		c-2.788,0-5.441-0.683-7.781-1.888c-2.425-1.232-4.518-3.044-6.09-5.233c-0.316-0.443-0.428-1.034-0.242-1.58
		c0.398-1.2,0.963-2.343,1.639-3.377L72.803,80.57z"/>
</g>
</svg>
