<?xml version="1.0" encoding="utf-8"?>
<!-- Generator: Adobe Illustrator 16.0.0, SVG Export Plug-In . SVG Version: 6.00 Build 0)  -->
<!DOCTYPE svg PUBLIC "-//W3C//DTD SVG 1.1//EN" "http://www.w3.org/Graphics/SVG/1.1/DTD/svg11.dtd">
<svg version="1.1" id="Capa_1" xmlns="http://www.w3.org/2000/svg" xmlns:xlink="http://www.w3.org/1999/xlink" x="0px" y="0px"
	 width="189.235px" height="189.233px" viewBox="0 0 189.235 189.233" enable-background="new 0 0 189.235 189.233"
	 xml:space="preserve">
<circle fill="#EAEBEC" cx="94.618" cy="94.616" r="94.618"/>
<g>
	<g>
		<path fill="#EAEBEC" d="M32.382,127.125c-0.116,0.314-0.314,0.546-0.711,0.546c-0.38,0-0.694-0.231-0.694-0.612
			c0-0.198,0.149-0.578,0.198-0.727l3.652-9.733c0.182-0.513,0.479-0.893,1.041-0.893s0.859,0.38,1.041,0.893l3.652,9.733
			c0.05,0.148,0.198,0.528,0.198,0.727c0,0.381-0.314,0.612-0.694,0.612c-0.396,0-0.595-0.231-0.71-0.546l-0.761-2.115h-5.453
			L32.382,127.125z M35.885,117.392h-0.033l-2.264,6.362h4.561L35.885,117.392z"/>
		<path fill="#EAEBEC" d="M43.65,126.894c0,0.479-0.281,0.777-0.728,0.777s-0.728-0.298-0.728-0.777v-10.295
			c0-0.446,0.231-0.793,0.777-0.793h2.693c1.851,0,3.603,1.256,3.603,3.173c0,2.379-1.454,3.271-3.206,3.338l-0.628,0.017
			l3.751,4.114c0.198,0.215,0.281,0.396,0.281,0.661c0,0.314-0.298,0.562-0.661,0.562c-0.297,0-0.495-0.149-0.661-0.331
			l-4.494-4.925V126.894z M43.65,121.242h1.982c1.521,0,2.182-0.645,2.182-2.165c0-1.091-0.859-2.016-2.215-2.016H43.65V121.242z"/>
		<path fill="#EAEBEC" d="M52.54,126.216h3.503c0.413,0,0.711,0.215,0.711,0.678s-0.298,0.678-0.711,0.678h-4.181
			c-0.546,0-0.777-0.347-0.777-0.793v-10.18c0-0.446,0.231-0.793,0.777-0.793h4.181c0.413,0,0.711,0.215,0.711,0.677
			c0,0.463-0.298,0.678-0.711,0.678H52.54v3.851h3.189c0.413,0,0.71,0.215,0.71,0.678s-0.297,0.678-0.71,0.678H52.54V126.216z"/>
		<path fill="#EAEBEC" d="M59.347,127.125c-0.116,0.314-0.314,0.546-0.711,0.546c-0.38,0-0.694-0.231-0.694-0.612
			c0-0.198,0.149-0.578,0.198-0.727l3.652-9.733c0.182-0.513,0.479-0.893,1.041-0.893s0.859,0.38,1.041,0.893l3.652,9.733
			c0.05,0.148,0.198,0.528,0.198,0.727c0,0.381-0.314,0.612-0.694,0.612c-0.396,0-0.595-0.231-0.71-0.546l-0.761-2.115h-5.453
			L59.347,127.125z M62.85,117.392h-0.033l-2.264,6.362h4.561L62.85,117.392z"/>
		<path fill="#EAEBEC" d="M73.688,116.599c0-0.446,0.231-0.793,0.776-0.793h2.859c3.503,0,5.222,2.71,5.222,5.816
			c0,3.52-1.867,5.949-5.023,5.949h-3.058c-0.545,0-0.776-0.347-0.776-0.793V116.599z M75.143,126.315h2.082
			c2.743,0,3.769-2.297,3.769-4.693c0-2.412-1.091-4.561-3.867-4.561h-1.983V126.315z"/>
		<path fill="#EAEBEC" d="M85.784,126.216h3.503c0.413,0,0.711,0.215,0.711,0.678s-0.298,0.678-0.711,0.678h-4.181
			c-0.546,0-0.777-0.347-0.777-0.793v-10.18c0-0.446,0.231-0.793,0.777-0.793h4.181c0.413,0,0.711,0.215,0.711,0.677
			c0,0.463-0.298,0.678-0.711,0.678h-3.503v3.851h3.189c0.413,0,0.71,0.215,0.71,0.678s-0.297,0.678-0.71,0.678h-3.189V126.216z"/>
		<path fill="#EAEBEC" d="M97.879,126.894c0,0.479-0.281,0.777-0.728,0.777s-0.728-0.298-0.728-0.777v-10.328
			c0-0.578,0.199-0.859,0.661-0.859c0.43,0,0.628,0.182,1.025,0.761l5.948,8.543h0.033v-8.527c0-0.479,0.281-0.776,0.728-0.776
			s0.727,0.298,0.727,0.776v10.329c0,0.578-0.198,0.859-0.661,0.859c-0.429,0-0.628-0.183-1.024-0.761l-5.949-8.543h-0.032V126.894z
			"/>
		<path fill="#EAEBEC" d="M109.229,126.216h3.503c0.413,0,0.711,0.215,0.711,0.678s-0.298,0.678-0.711,0.678h-4.181
			c-0.546,0-0.777-0.347-0.777-0.793v-10.18c0-0.446,0.231-0.793,0.777-0.793h4.181c0.413,0,0.711,0.215,0.711,0.677
			c0,0.463-0.298,0.678-0.711,0.678h-3.503v3.851h3.189c0.413,0,0.71,0.215,0.71,0.678s-0.297,0.678-0.71,0.678h-3.189V126.216z"/>
		<path fill="#EAEBEC" d="M121.655,122.184c-0.413,0-0.711-0.215-0.711-0.677c0-0.463,0.298-0.678,0.711-0.678h2.445
			c0.744,0,1.058,0.281,1.058,1.189c0,2.843-1.024,5.652-5.023,5.652c-3.388,0-5.155-2.926-5.155-5.982
			c0-3.058,1.686-5.982,5.37-5.982c2.413,0,4.032,1.256,4.032,1.884c0,0.38-0.281,0.694-0.694,0.694
			c-0.727,0-1.321-1.322-3.437-1.322c-2.645,0-3.719,2.479-3.719,4.727c0,2.247,1.041,4.726,3.784,4.726
			c2.281,0,3.388-1.949,3.388-3.536v-0.694H121.655z"/>
		<path fill="#EAEBEC" d="M131.47,115.706c3.354,0,5.156,2.925,5.156,5.982c0,3.057-1.802,5.982-5.156,5.982
			s-5.155-2.926-5.155-5.982C126.314,118.631,128.115,115.706,131.47,115.706z M131.47,126.414c2.645,0,3.603-2.479,3.603-4.726
			c0-2.248-0.958-4.727-3.603-4.727c-2.644,0-3.603,2.479-3.603,4.727C127.867,123.936,128.826,126.414,131.47,126.414z"/>
		<path fill="#EAEBEC" d="M143.118,126.414c1.769,0,2.545-1.058,3.156-1.058c0.348,0,0.579,0.265,0.579,0.678
			c0,0.744-1.67,1.637-3.735,1.637c-3.404,0-5.155-2.926-5.155-5.982c0-3.058,1.751-5.982,5.238-5.982
			c2.082,0,3.404,1.124,3.404,1.719c0,0.38-0.231,0.694-0.595,0.694c-0.661,0-0.992-1.157-2.81-1.157
			c-2.611,0-3.686,2.479-3.686,4.727C139.516,123.936,140.623,126.414,143.118,126.414z"/>
		<path fill="#EAEBEC" d="M149.975,126.894c0,0.479-0.281,0.777-0.728,0.777s-0.728-0.298-0.728-0.777v-10.411
			c0-0.479,0.281-0.776,0.728-0.776s0.728,0.298,0.728,0.776V126.894z"/>
		<path fill="#EAEBEC" d="M156.914,115.706c3.354,0,5.156,2.925,5.156,5.982c0,3.057-1.802,5.982-5.156,5.982
			s-5.155-2.926-5.155-5.982C151.759,118.631,153.56,115.706,156.914,115.706z M156.914,126.414c2.645,0,3.603-2.479,3.603-4.726
			c0-2.248-0.958-4.727-3.603-4.727c-2.644,0-3.603,2.479-3.603,4.727C153.312,123.936,154.271,126.414,156.914,126.414z"/>
		<path fill="#EAEBEC" d="M169.72,117.078c0,0.347-0.265,0.645-0.628,0.645c-0.645,0-0.859-0.761-2.313-0.761
			c-1.074,0-1.868,0.678-1.868,1.669c0,2.595,5.586,1.355,5.586,5.321c0,1.95-1.421,3.719-3.982,3.719
			c-1.554,0-3.272-0.596-3.272-1.422c0-0.396,0.198-0.743,0.611-0.743c0.496,0,1.19,0.908,2.678,0.908
			c1.504,0,2.412-1.09,2.412-2.396c0-2.793-5.585-1.438-5.585-5.288c0-1.372,1.289-3.024,3.47-3.024
			C168.282,115.706,169.72,116.317,169.72,117.078z"/>
		<path fill="#EAEBEC" d="M64.923,144.257h3.503c0.413,0,0.711,0.215,0.711,0.678s-0.298,0.678-0.711,0.678h-4.181
			c-0.546,0-0.777-0.347-0.777-0.793v-10.18c0-0.446,0.231-0.793,0.777-0.793h4.181c0.413,0,0.711,0.215,0.711,0.677
			c0,0.463-0.298,0.678-0.711,0.678h-3.503v3.851h3.189c0.413,0,0.71,0.215,0.71,0.678s-0.297,0.678-0.71,0.678h-3.189V144.257z"/>
		<path fill="#EAEBEC" d="M71.697,145.249c-0.298,0.413-0.496,0.463-0.728,0.463c-0.33,0-0.661-0.265-0.661-0.612
			c0-0.23,0.133-0.445,0.231-0.595l3.686-5.205l-3.074-4.347c-0.165-0.231-0.231-0.43-0.231-0.595c0-0.363,0.298-0.611,0.645-0.611
			c0.248,0,0.463,0.066,0.744,0.463l2.76,4.032l2.76-4.032c0.28-0.396,0.495-0.463,0.743-0.463c0.348,0,0.645,0.248,0.645,0.611
			c0,0.165-0.066,0.363-0.231,0.595l-3.073,4.347l3.685,5.205c0.1,0.149,0.231,0.364,0.231,0.595c0,0.348-0.33,0.612-0.661,0.612
			c-0.23,0-0.43-0.05-0.727-0.463l-3.371-4.81L71.697,145.249z"/>
		<path fill="#EAEBEC" d="M85.956,144.455c1.769,0,2.545-1.058,3.156-1.058c0.348,0,0.579,0.265,0.579,0.678
			c0,0.744-1.67,1.637-3.735,1.637c-3.404,0-5.155-2.926-5.155-5.982c0-3.058,1.751-5.982,5.238-5.982
			c2.082,0,3.404,1.124,3.404,1.719c0,0.38-0.231,0.694-0.595,0.694c-0.661,0-0.992-1.157-2.81-1.157
			c-2.611,0-3.686,2.479-3.686,4.727C82.354,141.977,83.461,144.455,85.956,144.455z"/>
		<path fill="#EAEBEC" d="M92.813,144.257h3.106c0.413,0,0.711,0.215,0.711,0.678s-0.298,0.678-0.711,0.678h-3.784
			c-0.546,0-0.777-0.347-0.777-0.793v-10.296c0-0.479,0.281-0.776,0.728-0.776s0.728,0.298,0.728,0.776V144.257z"/>
		<path fill="#EAEBEC" d="M98.1,134.523c0-0.479,0.281-0.776,0.728-0.776s0.728,0.298,0.728,0.776v6.99
			c0,1.852,1.256,2.941,3.106,2.941s3.106-1.09,3.106-2.941v-6.99c0-0.479,0.281-0.776,0.728-0.776s0.727,0.298,0.727,0.776v6.429
			c0,3.966-2.545,4.76-4.561,4.76c-2.017,0-4.562-0.794-4.562-4.76V134.523z"/>
		<path fill="#EAEBEC" d="M115.317,135.119c0,0.347-0.265,0.645-0.628,0.645c-0.645,0-0.859-0.761-2.313-0.761
			c-1.074,0-1.868,0.678-1.868,1.669c0,2.595,5.586,1.355,5.586,5.321c0,1.95-1.421,3.719-3.982,3.719
			c-1.554,0-3.272-0.596-3.272-1.422c0-0.396,0.198-0.743,0.611-0.743c0.496,0,1.19,0.908,2.678,0.908
			c1.504,0,2.412-1.09,2.412-2.396c0-2.793-5.585-1.438-5.585-5.288c0-1.372,1.289-3.024,3.47-3.024
			C113.88,133.747,115.317,134.358,115.317,135.119z"/>
		<path fill="#EAEBEC" d="M119.167,144.935c0,0.479-0.281,0.777-0.728,0.777s-0.728-0.298-0.728-0.777v-10.411
			c0-0.479,0.281-0.776,0.728-0.776s0.728,0.298,0.728,0.776V144.935z"/>
		<path fill="#EAEBEC" d="M128.023,134.689c0.182-0.513,0.314-0.942,0.893-0.942c0.396,0,0.645,0.298,0.645,0.595
			c0,0.198-0.033,0.364-0.1,0.562l-3.586,10.014c-0.165,0.479-0.347,0.794-0.843,0.794c-0.495,0-0.678-0.314-0.843-0.794
			l-3.586-10.014c-0.065-0.198-0.099-0.364-0.099-0.562c0-0.297,0.248-0.595,0.645-0.595c0.578,0,0.71,0.43,0.892,0.942l2.975,8.576
			h0.033L128.023,134.689z"/>
		<path fill="#EAEBEC" d="M130.602,145.166c-0.116,0.314-0.314,0.546-0.711,0.546c-0.38,0-0.694-0.231-0.694-0.612
			c0-0.198,0.149-0.578,0.198-0.727l3.652-9.733c0.182-0.513,0.479-0.893,1.041-0.893s0.859,0.38,1.041,0.893l3.652,9.733
			c0.05,0.148,0.198,0.528,0.198,0.727c0,0.381-0.314,0.612-0.694,0.612c-0.396,0-0.595-0.231-0.71-0.546l-0.761-2.115h-5.453
			L130.602,145.166z M134.104,135.433h-0.033l-2.264,6.362h4.561L134.104,135.433z"/>
	</g>
	<g>
		<path fill="#59595C" d="M32.382,127.125c-0.116,0.314-0.314,0.546-0.711,0.546c-0.38,0-0.694-0.231-0.694-0.612
			c0-0.198,0.149-0.578,0.198-0.727l3.652-9.733c0.182-0.513,0.479-0.893,1.041-0.893s0.859,0.38,1.041,0.893l3.652,9.733
			c0.05,0.148,0.198,0.528,0.198,0.727c0,0.381-0.314,0.612-0.694,0.612c-0.396,0-0.595-0.231-0.71-0.546l-0.761-2.115h-5.453
			L32.382,127.125z M35.885,117.392h-0.033l-2.264,6.362h4.561L35.885,117.392z"/>
		<path fill="#59595C" d="M43.65,126.894c0,0.479-0.281,0.777-0.728,0.777s-0.728-0.298-0.728-0.777v-10.295
			c0-0.446,0.231-0.793,0.777-0.793h2.693c1.851,0,3.603,1.256,3.603,3.173c0,2.379-1.454,3.271-3.206,3.338l-0.628,0.017
			l3.751,4.114c0.198,0.215,0.281,0.396,0.281,0.661c0,0.314-0.298,0.562-0.661,0.562c-0.297,0-0.495-0.149-0.661-0.331
			l-4.494-4.925V126.894z M43.65,121.242h1.982c1.521,0,2.182-0.645,2.182-2.165c0-1.091-0.859-2.016-2.215-2.016H43.65V121.242z"/>
		<path fill="#59595C" d="M52.54,126.216h3.503c0.413,0,0.711,0.215,0.711,0.678s-0.298,0.678-0.711,0.678h-4.181
			c-0.546,0-0.777-0.347-0.777-0.793v-10.18c0-0.446,0.231-0.793,0.777-0.793h4.181c0.413,0,0.711,0.215,0.711,0.677
			c0,0.463-0.298,0.678-0.711,0.678H52.54v3.851h3.189c0.413,0,0.71,0.215,0.71,0.678s-0.297,0.678-0.71,0.678H52.54V126.216z"/>
		<path fill="#59595C" d="M59.347,127.125c-0.116,0.314-0.314,0.546-0.711,0.546c-0.38,0-0.694-0.231-0.694-0.612
			c0-0.198,0.149-0.578,0.198-0.727l3.652-9.733c0.182-0.513,0.479-0.893,1.041-0.893s0.859,0.38,1.041,0.893l3.652,9.733
			c0.05,0.148,0.198,0.528,0.198,0.727c0,0.381-0.314,0.612-0.694,0.612c-0.396,0-0.595-0.231-0.71-0.546l-0.761-2.115h-5.453
			L59.347,127.125z M62.85,117.392h-0.033l-2.264,6.362h4.561L62.85,117.392z"/>
		<path fill="#59595C" d="M73.688,116.599c0-0.446,0.231-0.793,0.776-0.793h2.859c3.503,0,5.222,2.71,5.222,5.816
			c0,3.52-1.867,5.949-5.023,5.949h-3.058c-0.545,0-0.776-0.347-0.776-0.793V116.599z M75.143,126.315h2.082
			c2.743,0,3.769-2.297,3.769-4.693c0-2.412-1.091-4.561-3.867-4.561h-1.983V126.315z"/>
		<path fill="#59595C" d="M85.784,126.216h3.503c0.413,0,0.711,0.215,0.711,0.678s-0.298,0.678-0.711,0.678h-4.181
			c-0.546,0-0.777-0.347-0.777-0.793v-10.18c0-0.446,0.231-0.793,0.777-0.793h4.181c0.413,0,0.711,0.215,0.711,0.677
			c0,0.463-0.298,0.678-0.711,0.678h-3.503v3.851h3.189c0.413,0,0.71,0.215,0.71,0.678s-0.297,0.678-0.71,0.678h-3.189V126.216z"/>
		<path fill="#59595C" d="M97.879,126.894c0,0.479-0.281,0.777-0.728,0.777s-0.728-0.298-0.728-0.777v-10.328
			c0-0.578,0.199-0.859,0.661-0.859c0.43,0,0.628,0.182,1.025,0.761l5.948,8.543h0.033v-8.527c0-0.479,0.281-0.776,0.728-0.776
			s0.727,0.298,0.727,0.776v10.329c0,0.578-0.198,0.859-0.661,0.859c-0.429,0-0.628-0.183-1.024-0.761l-5.949-8.543h-0.032V126.894z
			"/>
		<path fill="#59595C" d="M109.229,126.216h3.503c0.413,0,0.711,0.215,0.711,0.678s-0.298,0.678-0.711,0.678h-4.181
			c-0.546,0-0.777-0.347-0.777-0.793v-10.18c0-0.446,0.231-0.793,0.777-0.793h4.181c0.413,0,0.711,0.215,0.711,0.677
			c0,0.463-0.298,0.678-0.711,0.678h-3.503v3.851h3.189c0.413,0,0.71,0.215,0.71,0.678s-0.297,0.678-0.71,0.678h-3.189V126.216z"/>
		<path fill="#59595C" d="M121.655,122.184c-0.413,0-0.711-0.215-0.711-0.677c0-0.463,0.298-0.678,0.711-0.678h2.445
			c0.744,0,1.058,0.281,1.058,1.189c0,2.843-1.024,5.652-5.023,5.652c-3.388,0-5.155-2.926-5.155-5.982
			c0-3.058,1.686-5.982,5.37-5.982c2.413,0,4.032,1.256,4.032,1.884c0,0.38-0.281,0.694-0.694,0.694
			c-0.727,0-1.321-1.322-3.437-1.322c-2.645,0-3.719,2.479-3.719,4.727c0,2.247,1.041,4.726,3.784,4.726
			c2.281,0,3.388-1.949,3.388-3.536v-0.694H121.655z"/>
		<path fill="#59595C" d="M131.47,115.706c3.354,0,5.156,2.925,5.156,5.982c0,3.057-1.802,5.982-5.156,5.982
			s-5.155-2.926-5.155-5.982C126.314,118.631,128.115,115.706,131.47,115.706z M131.47,126.414c2.645,0,3.603-2.479,3.603-4.726
			c0-2.248-0.958-4.727-3.603-4.727c-2.644,0-3.603,2.479-3.603,4.727C127.867,123.936,128.826,126.414,131.47,126.414z"/>
		<path fill="#59595C" d="M143.118,126.414c1.769,0,2.545-1.058,3.156-1.058c0.348,0,0.579,0.265,0.579,0.678
			c0,0.744-1.67,1.637-3.735,1.637c-3.404,0-5.155-2.926-5.155-5.982c0-3.058,1.751-5.982,5.238-5.982
			c2.082,0,3.404,1.124,3.404,1.719c0,0.38-0.231,0.694-0.595,0.694c-0.661,0-0.992-1.157-2.81-1.157
			c-2.611,0-3.686,2.479-3.686,4.727C139.516,123.936,140.623,126.414,143.118,126.414z"/>
		<path fill="#59595C" d="M149.975,126.894c0,0.479-0.281,0.777-0.728,0.777s-0.728-0.298-0.728-0.777v-10.411
			c0-0.479,0.281-0.776,0.728-0.776s0.728,0.298,0.728,0.776V126.894z"/>
		<path fill="#59595C" d="M156.914,115.706c3.354,0,5.156,2.925,5.156,5.982c0,3.057-1.802,5.982-5.156,5.982
			s-5.155-2.926-5.155-5.982C151.759,118.631,153.56,115.706,156.914,115.706z M156.914,126.414c2.645,0,3.603-2.479,3.603-4.726
			c0-2.248-0.958-4.727-3.603-4.727c-2.644,0-3.603,2.479-3.603,4.727C153.312,123.936,154.271,126.414,156.914,126.414z"/>
		<path fill="#59595C" d="M169.72,117.078c0,0.347-0.265,0.645-0.628,0.645c-0.645,0-0.859-0.761-2.313-0.761
			c-1.074,0-1.868,0.678-1.868,1.669c0,2.595,5.586,1.355,5.586,5.321c0,1.95-1.421,3.719-3.982,3.719
			c-1.554,0-3.272-0.596-3.272-1.422c0-0.396,0.198-0.743,0.611-0.743c0.496,0,1.19,0.908,2.678,0.908
			c1.504,0,2.412-1.09,2.412-2.396c0-2.793-5.585-1.438-5.585-5.288c0-1.372,1.289-3.024,3.47-3.024
			C168.282,115.706,169.72,116.317,169.72,117.078z"/>
		<path fill="#59595C" d="M64.923,144.257h3.503c0.413,0,0.711,0.215,0.711,0.678s-0.298,0.678-0.711,0.678h-4.181
			c-0.546,0-0.777-0.347-0.777-0.793v-10.18c0-0.446,0.231-0.793,0.777-0.793h4.181c0.413,0,0.711,0.215,0.711,0.677
			c0,0.463-0.298,0.678-0.711,0.678h-3.503v3.851h3.189c0.413,0,0.71,0.215,0.71,0.678s-0.297,0.678-0.71,0.678h-3.189V144.257z"/>
		<path fill="#59595C" d="M71.697,145.249c-0.298,0.413-0.496,0.463-0.728,0.463c-0.33,0-0.661-0.265-0.661-0.612
			c0-0.23,0.133-0.445,0.231-0.595l3.686-5.205l-3.074-4.347c-0.165-0.231-0.231-0.43-0.231-0.595c0-0.363,0.298-0.611,0.645-0.611
			c0.248,0,0.463,0.066,0.744,0.463l2.76,4.032l2.76-4.032c0.28-0.396,0.495-0.463,0.743-0.463c0.348,0,0.645,0.248,0.645,0.611
			c0,0.165-0.066,0.363-0.231,0.595l-3.073,4.347l3.685,5.205c0.1,0.149,0.231,0.364,0.231,0.595c0,0.348-0.33,0.612-0.661,0.612
			c-0.23,0-0.43-0.05-0.727-0.463l-3.371-4.81L71.697,145.249z"/>
		<path fill="#59595C" d="M85.956,144.455c1.769,0,2.545-1.058,3.156-1.058c0.348,0,0.579,0.265,0.579,0.678
			c0,0.744-1.67,1.637-3.735,1.637c-3.404,0-5.155-2.926-5.155-5.982c0-3.058,1.751-5.982,5.238-5.982
			c2.082,0,3.404,1.124,3.404,1.719c0,0.38-0.231,0.694-0.595,0.694c-0.661,0-0.992-1.157-2.81-1.157
			c-2.611,0-3.686,2.479-3.686,4.727C82.354,141.977,83.461,144.455,85.956,144.455z"/>
		<path fill="#59595C" d="M92.813,144.257h3.106c0.413,0,0.711,0.215,0.711,0.678s-0.298,0.678-0.711,0.678h-3.784
			c-0.546,0-0.777-0.347-0.777-0.793v-10.296c0-0.479,0.281-0.776,0.728-0.776s0.728,0.298,0.728,0.776V144.257z"/>
		<path fill="#59595C" d="M98.1,134.523c0-0.479,0.281-0.776,0.728-0.776s0.728,0.298,0.728,0.776v6.99
			c0,1.852,1.256,2.941,3.106,2.941s3.106-1.09,3.106-2.941v-6.99c0-0.479,0.281-0.776,0.728-0.776s0.727,0.298,0.727,0.776v6.429
			c0,3.966-2.545,4.76-4.561,4.76c-2.017,0-4.562-0.794-4.562-4.76V134.523z"/>
		<path fill="#59595C" d="M115.317,135.119c0,0.347-0.265,0.645-0.628,0.645c-0.645,0-0.859-0.761-2.313-0.761
			c-1.074,0-1.868,0.678-1.868,1.669c0,2.595,5.586,1.355,5.586,5.321c0,1.95-1.421,3.719-3.982,3.719
			c-1.554,0-3.272-0.596-3.272-1.422c0-0.396,0.198-0.743,0.611-0.743c0.496,0,1.19,0.908,2.678,0.908
			c1.504,0,2.412-1.09,2.412-2.396c0-2.793-5.585-1.438-5.585-5.288c0-1.372,1.289-3.024,3.47-3.024
			C113.88,133.747,115.317,134.358,115.317,135.119z"/>
		<path fill="#59595C" d="M119.167,144.935c0,0.479-0.281,0.777-0.728,0.777s-0.728-0.298-0.728-0.777v-10.411
			c0-0.479,0.281-0.776,0.728-0.776s0.728,0.298,0.728,0.776V144.935z"/>
		<path fill="#59595C" d="M128.023,134.689c0.182-0.513,0.314-0.942,0.893-0.942c0.396,0,0.645,0.298,0.645,0.595
			c0,0.198-0.033,0.364-0.1,0.562l-3.586,10.014c-0.165,0.479-0.347,0.794-0.843,0.794c-0.495,0-0.678-0.314-0.843-0.794
			l-3.586-10.014c-0.065-0.198-0.099-0.364-0.099-0.562c0-0.297,0.248-0.595,0.645-0.595c0.578,0,0.71,0.43,0.892,0.942l2.975,8.576
			h0.033L128.023,134.689z"/>
		<path fill="#59595C" d="M130.602,145.166c-0.116,0.314-0.314,0.546-0.711,0.546c-0.38,0-0.694-0.231-0.694-0.612
			c0-0.198,0.149-0.578,0.198-0.727l3.652-9.733c0.182-0.513,0.479-0.893,1.041-0.893s0.859,0.38,1.041,0.893l3.652,9.733
			c0.05,0.148,0.198,0.528,0.198,0.727c0,0.381-0.314,0.612-0.694,0.612c-0.396,0-0.595-0.231-0.71-0.546l-0.761-2.115h-5.453
			L130.602,145.166z M134.104,135.433h-0.033l-2.264,6.362h4.561L134.104,135.433z"/>
	</g>
</g>
<g>
	<g>
		<g>
			<path fill="none" stroke="#AE1F24" stroke-width="4.9218" stroke-miterlimit="10" d="M80.994,43.422
				c0-7.783,6.313-14.091,14.099-14.091c7.778,0,14.089,6.308,14.089,14.091c0,7.781-6.311,14.097-14.089,14.097
				C87.308,57.519,80.994,51.203,80.994,43.422z"/>
			<path fill="none" stroke="#AE1F24" stroke-width="4.9218" stroke-miterlimit="10" d="M94.678,80.452L82.68,61.72
				c-13.561-0.213-12.922,15.263-12.922,15.263v9.963c0,7.203,6.776,6.775,6.776,6.775s28.716,0.064,35.92,0
				c8.197-0.068,7.114-7.41,7.114-7.41s0.037-1.952-0.008-8.905c-0.102-17.595-12.506-15.898-12.506-15.898L94.678,80.452z
				 M112.48,85.03h-7.945v-2.397h7.945V85.03z"/>
		</g>
	</g>
</g>
</svg>
