<?xml version="1.0" encoding="utf-8"?>
<!-- Generator: Adobe Illustrator 16.0.0, SVG Export Plug-In . SVG Version: 6.00 Build 0)  -->
<!DOCTYPE svg PUBLIC "-//W3C//DTD SVG 1.1//EN" "http://www.w3.org/Graphics/SVG/1.1/DTD/svg11.dtd">
<svg version="1.1" id="Capa_1" xmlns="http://www.w3.org/2000/svg" xmlns:xlink="http://www.w3.org/1999/xlink" x="0px" y="0px"
	 width="189.235px" height="189.233px" viewBox="0 0 189.235 189.233" enable-background="new 0 0 189.235 189.233"
	 xml:space="preserve">
<circle fill="#EAEBEC" cx="94.618" cy="94.616" r="94.618"/>
<g>
	<g>
		<path fill="#EAEBEC" d="M52.871,134.651c0,0.65-0.381,1.055-0.986,1.055s-0.987-0.404-0.987-1.055v-13.974
			c0-0.605,0.314-1.077,1.055-1.077h3.656c2.512,0,4.89,1.705,4.89,4.307c0,3.23-1.974,4.441-4.352,4.531l-0.853,0.022l5.092,5.585
			c0.27,0.292,0.381,0.538,0.381,0.897c0,0.426-0.403,0.763-0.896,0.763c-0.404,0-0.673-0.202-0.897-0.449l-6.102-6.684V134.651z
			 M52.871,126.98h2.692c2.063,0,2.961-0.875,2.961-2.938c0-1.48-1.167-2.736-3.006-2.736h-2.647V126.98z"/>
		<path fill="#EAEBEC" d="M64.941,133.732h4.756c0.561,0,0.964,0.291,0.964,0.919s-0.403,0.92-0.964,0.92h-5.675
			c-0.74,0-1.055-0.471-1.055-1.077v-13.816c0-0.605,0.314-1.077,1.055-1.077h5.675c0.561,0,0.964,0.292,0.964,0.92
			s-0.403,0.92-0.964,0.92h-4.756v5.226h4.329c0.562,0,0.965,0.292,0.965,0.92s-0.403,0.92-0.965,0.92h-4.329V133.732z"/>
		<path fill="#EAEBEC" d="M73.468,120.678c0-0.605,0.314-1.077,1.055-1.077h3.88c4.756,0,7.088,3.679,7.088,7.896
			c0,4.778-2.534,8.075-6.818,8.075h-4.149c-0.74,0-1.055-0.471-1.055-1.077V120.678z M75.441,133.866h2.826
			c3.724,0,5.114-3.117,5.114-6.37c0-3.274-1.48-6.19-5.248-6.19h-2.692V133.866z"/>
		<path fill="#EAEBEC" d="M95.274,134.854c-0.09,0.695-0.538,0.853-1.054,0.853c-0.605,0-0.92-0.404-0.92-1.01
			c0-0.224,0.045-0.516,0.112-0.897l2.176-12.83c0.202-1.121,0.83-1.503,1.548-1.503c0.785,0,1.211,0.292,1.436,1.032l3.409,11.687
			h0.045l3.409-11.687c0.225-0.74,0.65-1.032,1.436-1.032c0.718,0,1.346,0.382,1.548,1.503l2.176,12.83
			c0.067,0.382,0.112,0.674,0.112,0.897c0,0.605-0.314,1.01-0.92,1.01c-0.516,0-0.965-0.157-1.054-0.853l-1.862-12.83h-0.045
			l-3.812,12.875c-0.202,0.65-0.562,0.808-1.01,0.808s-0.808-0.157-1.01-0.808l-3.812-12.875h-0.045L95.274,134.854z"/>
		<path fill="#EAEBEC" d="M122.487,130.435l0.135-0.18c1.031-1.391,1.548-2.781,2.221-2.781c0.448,0,0.83,0.225,0.83,0.673
			c0,0.605-0.472,1.66-2.086,3.589l1.951,2.311c0.269,0.314,0.403,0.516,0.403,0.853c0,0.471-0.358,0.808-0.808,0.808
			c-0.336,0-0.561-0.112-0.763-0.359l-1.929-2.221c-1.48,1.862-3.229,2.58-4.935,2.58c-2.602,0-4.912-1.705-4.912-4.644
			c0-2.714,1.346-3.88,3.566-5.226c-0.897-0.92-1.772-2.042-1.772-3.118c0-2.355,1.75-3.253,3.903-3.253
			c1.884,0,3.499,1.189,3.499,2.827c0,2.041-1.436,3.117-2.871,3.925L122.487,130.435z M117.688,133.866
			c1.368,0,2.399-0.538,3.656-2.041l-4.083-4.71c-2.086,1.188-2.691,2.266-2.691,3.724
			C114.569,132.498,115.579,133.866,117.688,133.866z M117.845,124.984c0.896-0.517,2.108-1.346,2.108-2.355
			c0-1.076-0.92-1.593-1.817-1.593c-0.965,0-1.771,0.538-1.771,1.638C116.364,123.347,117.06,124.109,117.845,124.984z"/>
		<path fill="#EAEBEC" d="M130.453,134.651c0,0.65-0.381,1.055-0.986,1.055s-0.987-0.404-0.987-1.055v-14.131
			c0-0.65,0.382-1.055,0.987-1.055s0.986,0.404,0.986,1.055v5.832l6.842-6.258c0.358-0.337,0.673-0.629,1.076-0.629
			c0.494,0,0.853,0.337,0.853,0.853c0,0.517-0.18,0.695-0.403,0.897l-6.55,5.899l7.155,6.908c0.313,0.292,0.403,0.516,0.403,0.808
			c0,0.471-0.426,0.875-0.964,0.875c-0.292,0-0.562-0.045-0.965-0.427l-7.447-7.312V134.651z"/>
	</g>
	<g>
		<path fill="#59595C" d="M52.871,134.651c0,0.65-0.381,1.055-0.986,1.055s-0.987-0.404-0.987-1.055v-13.974
			c0-0.605,0.314-1.077,1.055-1.077h3.656c2.512,0,4.89,1.705,4.89,4.307c0,3.23-1.974,4.441-4.352,4.531l-0.853,0.022l5.092,5.585
			c0.27,0.292,0.381,0.538,0.381,0.897c0,0.426-0.403,0.763-0.896,0.763c-0.404,0-0.673-0.202-0.897-0.449l-6.102-6.684V134.651z
			 M52.871,126.98h2.692c2.063,0,2.961-0.875,2.961-2.938c0-1.48-1.167-2.736-3.006-2.736h-2.647V126.98z"/>
		<path fill="#59595C" d="M64.941,133.732h4.756c0.561,0,0.964,0.291,0.964,0.919s-0.403,0.92-0.964,0.92h-5.675
			c-0.74,0-1.055-0.471-1.055-1.077v-13.816c0-0.605,0.314-1.077,1.055-1.077h5.675c0.561,0,0.964,0.292,0.964,0.92
			s-0.403,0.92-0.964,0.92h-4.756v5.226h4.329c0.562,0,0.965,0.292,0.965,0.92s-0.403,0.92-0.965,0.92h-4.329V133.732z"/>
		<path fill="#59595C" d="M73.468,120.678c0-0.605,0.314-1.077,1.055-1.077h3.88c4.756,0,7.088,3.679,7.088,7.896
			c0,4.778-2.534,8.075-6.818,8.075h-4.149c-0.74,0-1.055-0.471-1.055-1.077V120.678z M75.441,133.866h2.826
			c3.724,0,5.114-3.117,5.114-6.37c0-3.274-1.48-6.19-5.248-6.19h-2.692V133.866z"/>
		<path fill="#59595C" d="M95.274,134.854c-0.09,0.695-0.538,0.853-1.054,0.853c-0.605,0-0.92-0.404-0.92-1.01
			c0-0.224,0.045-0.516,0.112-0.897l2.176-12.83c0.202-1.121,0.83-1.503,1.548-1.503c0.785,0,1.211,0.292,1.436,1.032l3.409,11.687
			h0.045l3.409-11.687c0.225-0.74,0.65-1.032,1.436-1.032c0.718,0,1.346,0.382,1.548,1.503l2.176,12.83
			c0.067,0.382,0.112,0.674,0.112,0.897c0,0.605-0.314,1.01-0.92,1.01c-0.516,0-0.965-0.157-1.054-0.853l-1.862-12.83h-0.045
			l-3.812,12.875c-0.202,0.65-0.562,0.808-1.01,0.808s-0.808-0.157-1.01-0.808l-3.812-12.875h-0.045L95.274,134.854z"/>
		<path fill="#59595C" d="M122.487,130.435l0.135-0.18c1.031-1.391,1.548-2.781,2.221-2.781c0.448,0,0.83,0.225,0.83,0.673
			c0,0.605-0.472,1.66-2.086,3.589l1.951,2.311c0.269,0.314,0.403,0.516,0.403,0.853c0,0.471-0.358,0.808-0.808,0.808
			c-0.336,0-0.561-0.112-0.763-0.359l-1.929-2.221c-1.48,1.862-3.229,2.58-4.935,2.58c-2.602,0-4.912-1.705-4.912-4.644
			c0-2.714,1.346-3.88,3.566-5.226c-0.897-0.92-1.772-2.042-1.772-3.118c0-2.355,1.75-3.253,3.903-3.253
			c1.884,0,3.499,1.189,3.499,2.827c0,2.041-1.436,3.117-2.871,3.925L122.487,130.435z M117.688,133.866
			c1.368,0,2.399-0.538,3.656-2.041l-4.083-4.71c-2.086,1.188-2.691,2.266-2.691,3.724
			C114.569,132.498,115.579,133.866,117.688,133.866z M117.845,124.984c0.896-0.517,2.108-1.346,2.108-2.355
			c0-1.076-0.92-1.593-1.817-1.593c-0.965,0-1.771,0.538-1.771,1.638C116.364,123.347,117.06,124.109,117.845,124.984z"/>
		<path fill="#59595C" d="M130.453,134.651c0,0.65-0.381,1.055-0.986,1.055s-0.987-0.404-0.987-1.055v-14.131
			c0-0.65,0.382-1.055,0.987-1.055s0.986,0.404,0.986,1.055v5.832l6.842-6.258c0.358-0.337,0.673-0.629,1.076-0.629
			c0.494,0,0.853,0.337,0.853,0.853c0,0.517-0.18,0.695-0.403,0.897l-6.55,5.899l7.155,6.908c0.313,0.292,0.403,0.516,0.403,0.808
			c0,0.471-0.426,0.875-0.964,0.875c-0.292,0-0.562-0.045-0.965-0.427l-7.447-7.312V134.651z"/>
	</g>
</g>
<g>
	<g>
		<path fill="#AE1F24" d="M102.395,104.995l-6.333-4.292l-6.343,4.292l-4.702-6.044l-7.352,2.122l-2.608-7.195l-7.647-0.259
			l-0.262-7.646l-7.185-2.607l2.11-7.352l-6.04-4.707l4.289-6.337l-4.289-6.332l6.04-4.711l-2.117-7.35l7.191-2.607l0.262-7.649
			l7.647-0.26l2.608-7.197l7.352,2.125l4.702-6.03l6.343,4.279l6.333-4.279l4.705,6.03l7.354-2.125l2.605,7.197l7.649,0.26
			l0.261,7.649l7.194,2.607l-2.128,7.35l6.041,4.711l-4.285,6.332l4.285,6.337l-6.041,4.705l2.124,7.354l-7.19,2.607l-0.261,7.646
			l-7.649,0.259l-2.605,7.195l-7.354-2.122L102.395,104.995z M86.535,94.283l4.056,5.215l5.471-3.703l5.464,3.703l4.06-5.215
			l6.345,1.832l2.248-6.204l6.597-0.227L121,83.091l6.201-2.248l-1.83-6.345l5.206-4.062l-3.696-5.466l3.696-5.465l-5.206-4.063
			l1.83-6.342L121,46.854l-0.226-6.601l-6.597-0.226l-2.248-6.204l-6.345,1.831l-4.06-5.205l-5.464,3.691l-5.471-3.691l-4.06,5.205
			l-6.345-1.831l-2.245,6.204l-6.602,0.226l-0.225,6.601l-6.199,2.247l1.826,6.344l-5.213,4.062l3.7,5.465l-3.7,5.466l5.213,4.058
			l-1.826,6.346l6.199,2.251l0.225,6.594l6.602,0.227l2.245,6.204L86.535,94.283z"/>
	</g>
	<g>
		<path fill="#AE1F24" d="M84.46,65.528c1.661,0.136,2.562,1.26,2.562,2.875c0,1.529-0.9,2.654-2.562,2.788h-9.57
			c-1.662-0.134-2.565-1.259-2.565-2.788c0-1.615,0.903-2.739,2.565-2.875H84.46z"/>
		<path fill="#AE1F24" d="M85.314,56.138c0-3.911,2.922-7.282,6.921-7.282c4,0,6.918,3.371,6.918,7.282
			c0,3.908-2.918,7.234-6.918,7.234C88.236,63.372,85.314,60.046,85.314,56.138z M94.571,56.138c0-1.438-0.854-2.696-2.336-2.696
			c-1.484,0-2.339,1.258-2.339,2.696s0.854,2.651,2.339,2.651C93.717,58.789,94.571,57.576,94.571,56.138z M105.492,50.026
			c0.581-1.125,1.03-1.439,2.066-1.439c1.394,0,2.653,1.125,2.653,2.517c0,0.361,0,0.674-0.364,1.348L94.751,80.72
			c-0.674,0.943-0.945,1.482-2.024,1.482c-1.17,0-2.563-1.124-2.563-2.471c0-0.674,0.273-1.306,0.453-1.664L105.492,50.026z
			 M101.131,74.695c0-3.907,2.922-7.279,6.923-7.279c3.996,0,6.92,3.372,6.92,7.279c0,3.912-2.924,7.238-6.92,7.238
			C104.053,81.934,101.131,78.607,101.131,74.695z M110.389,74.695c0-1.437-0.854-2.693-2.335-2.693
			c-1.484,0-2.341,1.257-2.341,2.693c0,1.44,0.856,2.653,2.341,2.653C109.534,77.349,110.389,76.136,110.389,74.695z"/>
	</g>
</g>
</svg>
