<?xml version="1.0" encoding="utf-8"?>
<!-- Generator: Adobe Illustrator 16.0.0, SVG Export Plug-In . SVG Version: 6.00 Build 0)  -->
<!DOCTYPE svg PUBLIC "-//W3C//DTD SVG 1.1//EN" "http://www.w3.org/Graphics/SVG/1.1/DTD/svg11.dtd">
<svg version="1.1" id="Capa_1" xmlns="http://www.w3.org/2000/svg" xmlns:xlink="http://www.w3.org/1999/xlink" x="0px" y="0px"
	 width="189.235px" height="189.233px" viewBox="0 0 189.235 189.233" enable-background="new 0 0 189.235 189.233"
	 xml:space="preserve">
<circle fill="#EAEBEC" cx="94.618" cy="94.616" r="94.618"/>
<g>
	<g>
		<path fill="#EAEBEC" d="M77.306,126.379c1.822,0,2.622-1.09,3.253-1.09c0.357,0,0.596,0.272,0.596,0.698
			c0,0.767-1.72,1.687-3.849,1.687c-3.508,0-5.312-3.015-5.312-6.165s1.805-6.164,5.397-6.164c2.146,0,3.508,1.158,3.508,1.771
			c0,0.392-0.238,0.716-0.612,0.716c-0.682,0-1.022-1.192-2.896-1.192c-2.69,0-3.797,2.555-3.797,4.87
			C73.594,123.825,74.734,126.379,77.306,126.379z"/>
		<path fill="#EAEBEC" d="M83.504,127.111c-0.12,0.324-0.324,0.562-0.732,0.562c-0.392,0-0.716-0.238-0.716-0.631
			c0-0.204,0.153-0.596,0.205-0.749l3.763-10.03c0.188-0.527,0.494-0.919,1.073-0.919s0.886,0.392,1.072,0.919l3.764,10.03
			c0.051,0.153,0.204,0.545,0.204,0.749c0,0.393-0.323,0.631-0.715,0.631c-0.409,0-0.613-0.238-0.732-0.562l-0.783-2.18h-5.619
			L83.504,127.111z M87.113,117.082h-0.034l-2.332,6.556h4.699L87.113,117.082z"/>
		<path fill="#EAEBEC" d="M96.445,116.145c0-0.493,0.289-0.8,0.749-0.8s0.75,0.307,0.75,0.8v8.345c0,1.924-0.818,3.185-2.946,3.185
			c-0.801,0-2.486-0.478-2.486-1.362c0-0.375,0.238-0.631,0.596-0.631c0.682,0,0.716,0.698,2.01,0.698
			c1.039,0,1.328-0.783,1.328-1.736V116.145z"/>
		<path fill="#EAEBEC" d="M100.873,127.111c-0.12,0.324-0.324,0.562-0.732,0.562c-0.392,0-0.716-0.238-0.716-0.631
			c0-0.204,0.153-0.596,0.205-0.749l3.763-10.03c0.188-0.527,0.494-0.919,1.073-0.919s0.886,0.392,1.072,0.919l3.764,10.03
			c0.051,0.153,0.204,0.545,0.204,0.749c0,0.393-0.323,0.631-0.715,0.631c-0.409,0-0.613-0.238-0.732-0.562l-0.783-2.18h-5.619
			L100.873,127.111z M104.482,117.082h-0.034l-2.332,6.556h4.699L104.482,117.082z"/>
		<path fill="#EAEBEC" d="M117.033,116.758c0,0.357-0.272,0.664-0.647,0.664c-0.664,0-0.886-0.783-2.384-0.783
			c-1.107,0-1.925,0.698-1.925,1.72c0,2.674,5.756,1.396,5.756,5.483c0,2.01-1.464,3.832-4.104,3.832
			c-1.601,0-3.372-0.613-3.372-1.465c0-0.408,0.204-0.767,0.63-0.767c0.512,0,1.227,0.937,2.759,0.937
			c1.55,0,2.486-1.123,2.486-2.469c0-2.878-5.756-1.481-5.756-5.449c0-1.413,1.328-3.116,3.576-3.116
			C115.552,115.345,117.033,115.975,117.033,116.758z"/>
		<path fill="#EAEBEC" d="M53.567,144.768h3.61c0.426,0,0.731,0.222,0.731,0.698s-0.306,0.698-0.731,0.698h-4.309
			c-0.562,0-0.801-0.357-0.801-0.817v-10.489c0-0.46,0.239-0.818,0.801-0.818h4.309c0.426,0,0.731,0.222,0.731,0.698
			c0,0.478-0.306,0.698-0.731,0.698h-3.61v3.968h3.286c0.426,0,0.732,0.222,0.732,0.698s-0.307,0.698-0.732,0.698h-3.286V144.768z"
			/>
		<path fill="#EAEBEC" d="M60.549,145.789c-0.307,0.426-0.511,0.478-0.75,0.478c-0.34,0-0.681-0.272-0.681-0.631
			c0-0.238,0.136-0.459,0.238-0.612l3.798-5.364l-3.168-4.479c-0.17-0.238-0.238-0.443-0.238-0.613c0-0.375,0.307-0.63,0.664-0.63
			c0.256,0,0.477,0.068,0.767,0.477l2.844,4.155l2.844-4.155c0.289-0.408,0.511-0.477,0.767-0.477c0.357,0,0.664,0.255,0.664,0.63
			c0,0.17-0.068,0.375-0.238,0.613l-3.168,4.479l3.798,5.364c0.102,0.153,0.238,0.374,0.238,0.612c0,0.358-0.341,0.631-0.682,0.631
			c-0.238,0-0.442-0.052-0.749-0.478l-3.474-4.955L60.549,145.789z"/>
		<path fill="#EAEBEC" d="M75.244,144.972c1.822,0,2.622-1.09,3.253-1.09c0.357,0,0.596,0.272,0.596,0.698
			c0,0.767-1.72,1.687-3.849,1.687c-3.508,0-5.312-3.015-5.312-6.165s1.805-6.164,5.397-6.164c2.146,0,3.508,1.158,3.508,1.771
			c0,0.392-0.238,0.716-0.612,0.716c-0.682,0-1.022-1.192-2.896-1.192c-2.69,0-3.797,2.555-3.797,4.87
			C71.532,142.418,72.673,144.972,75.244,144.972z"/>
		<path fill="#EAEBEC" d="M82.311,144.768h3.201c0.426,0,0.732,0.222,0.732,0.698s-0.307,0.698-0.732,0.698h-3.899
			c-0.562,0-0.801-0.357-0.801-0.817v-10.609c0-0.493,0.29-0.8,0.75-0.8c0.459,0,0.749,0.307,0.749,0.8V144.768z"/>
		<path fill="#EAEBEC" d="M87.759,134.737c0-0.493,0.29-0.8,0.75-0.8c0.459,0,0.749,0.307,0.749,0.8v7.204
			c0,1.906,1.294,3.03,3.201,3.03s3.201-1.124,3.201-3.03v-7.204c0-0.493,0.29-0.8,0.75-0.8c0.459,0,0.749,0.307,0.749,0.8v6.625
			c0,4.087-2.623,4.904-4.7,4.904s-4.7-0.817-4.7-4.904V134.737z"/>
		<path fill="#EAEBEC" d="M105.503,135.351c0,0.357-0.272,0.664-0.647,0.664c-0.664,0-0.886-0.783-2.384-0.783
			c-1.107,0-1.925,0.698-1.925,1.72c0,2.674,5.756,1.396,5.756,5.483c0,2.01-1.464,3.832-4.104,3.832
			c-1.601,0-3.372-0.613-3.372-1.465c0-0.409,0.204-0.767,0.63-0.767c0.511,0,1.227,0.937,2.759,0.937
			c1.55,0,2.486-1.124,2.486-2.469c0-2.878-5.756-1.481-5.756-5.449c0-1.413,1.328-3.116,3.576-3.116
			C104.021,133.938,105.503,134.567,105.503,135.351z"/>
		<path fill="#EAEBEC" d="M109.471,145.466c0,0.494-0.29,0.801-0.749,0.801c-0.46,0-0.75-0.307-0.75-0.801v-10.729
			c0-0.493,0.29-0.8,0.75-0.8c0.459,0,0.749,0.307,0.749,0.8V145.466z"/>
		<path fill="#EAEBEC" d="M118.598,134.908c0.188-0.528,0.323-0.971,0.919-0.971c0.409,0,0.664,0.307,0.664,0.613
			c0,0.204-0.033,0.374-0.102,0.578l-3.695,10.32c-0.17,0.493-0.357,0.817-0.868,0.817s-0.698-0.324-0.869-0.817l-3.695-10.32
			c-0.067-0.204-0.102-0.374-0.102-0.578c0-0.307,0.255-0.613,0.664-0.613c0.596,0,0.732,0.442,0.919,0.971l3.065,8.838h0.034
			L118.598,134.908z"/>
		<path fill="#EAEBEC" d="M121.255,145.704c-0.119,0.323-0.324,0.562-0.732,0.562c-0.392,0-0.716-0.239-0.716-0.631
			c0-0.204,0.153-0.596,0.205-0.749l3.763-10.029c0.188-0.528,0.494-0.92,1.073-0.92s0.886,0.392,1.072,0.92l3.764,10.029
			c0.051,0.153,0.204,0.545,0.204,0.749c0,0.392-0.323,0.631-0.715,0.631c-0.408,0-0.613-0.239-0.732-0.562l-0.783-2.18h-5.619
			L121.255,145.704z M124.864,135.674h-0.034l-2.333,6.557h4.7L124.864,135.674z"/>
		<path fill="#EAEBEC" d="M137.415,135.351c0,0.357-0.272,0.664-0.647,0.664c-0.664,0-0.886-0.783-2.384-0.783
			c-1.107,0-1.925,0.698-1.925,1.72c0,2.674,5.756,1.396,5.756,5.483c0,2.01-1.464,3.832-4.104,3.832
			c-1.601,0-3.372-0.613-3.372-1.465c0-0.409,0.204-0.767,0.63-0.767c0.511,0,1.227,0.937,2.759,0.937
			c1.55,0,2.486-1.124,2.486-2.469c0-2.878-5.756-1.481-5.756-5.449c0-1.413,1.328-3.116,3.576-3.116
			C135.934,133.938,137.415,134.567,137.415,135.351z"/>
	</g>
	<g>
		<path fill="#59595C" d="M77.306,126.379c1.822,0,2.622-1.09,3.253-1.09c0.357,0,0.596,0.272,0.596,0.698
			c0,0.767-1.72,1.687-3.849,1.687c-3.508,0-5.312-3.015-5.312-6.165s1.805-6.164,5.397-6.164c2.146,0,3.508,1.158,3.508,1.771
			c0,0.392-0.238,0.716-0.612,0.716c-0.682,0-1.022-1.192-2.896-1.192c-2.69,0-3.797,2.555-3.797,4.87
			C73.594,123.825,74.734,126.379,77.306,126.379z"/>
		<path fill="#59595C" d="M83.504,127.111c-0.12,0.324-0.324,0.562-0.732,0.562c-0.392,0-0.716-0.238-0.716-0.631
			c0-0.204,0.153-0.596,0.205-0.749l3.763-10.03c0.188-0.527,0.494-0.919,1.073-0.919s0.886,0.392,1.072,0.919l3.764,10.03
			c0.051,0.153,0.204,0.545,0.204,0.749c0,0.393-0.323,0.631-0.715,0.631c-0.409,0-0.613-0.238-0.732-0.562l-0.783-2.18h-5.619
			L83.504,127.111z M87.113,117.082h-0.034l-2.332,6.556h4.699L87.113,117.082z"/>
		<path fill="#59595C" d="M96.445,116.145c0-0.493,0.289-0.8,0.749-0.8s0.75,0.307,0.75,0.8v8.345c0,1.924-0.818,3.185-2.946,3.185
			c-0.801,0-2.486-0.478-2.486-1.362c0-0.375,0.238-0.631,0.596-0.631c0.682,0,0.716,0.698,2.01,0.698
			c1.039,0,1.328-0.783,1.328-1.736V116.145z"/>
		<path fill="#59595C" d="M100.873,127.111c-0.12,0.324-0.324,0.562-0.732,0.562c-0.392,0-0.716-0.238-0.716-0.631
			c0-0.204,0.153-0.596,0.205-0.749l3.763-10.03c0.188-0.527,0.494-0.919,1.073-0.919s0.886,0.392,1.072,0.919l3.764,10.03
			c0.051,0.153,0.204,0.545,0.204,0.749c0,0.393-0.323,0.631-0.715,0.631c-0.409,0-0.613-0.238-0.732-0.562l-0.783-2.18h-5.619
			L100.873,127.111z M104.482,117.082h-0.034l-2.332,6.556h4.699L104.482,117.082z"/>
		<path fill="#59595C" d="M117.033,116.758c0,0.357-0.272,0.664-0.647,0.664c-0.664,0-0.886-0.783-2.384-0.783
			c-1.107,0-1.925,0.698-1.925,1.72c0,2.674,5.756,1.396,5.756,5.483c0,2.01-1.464,3.832-4.104,3.832
			c-1.601,0-3.372-0.613-3.372-1.465c0-0.408,0.204-0.767,0.63-0.767c0.512,0,1.227,0.937,2.759,0.937
			c1.55,0,2.486-1.123,2.486-2.469c0-2.878-5.756-1.481-5.756-5.449c0-1.413,1.328-3.116,3.576-3.116
			C115.552,115.345,117.033,115.975,117.033,116.758z"/>
		<path fill="#59595C" d="M53.567,144.768h3.61c0.426,0,0.731,0.222,0.731,0.698s-0.306,0.698-0.731,0.698h-4.309
			c-0.562,0-0.801-0.357-0.801-0.817v-10.489c0-0.46,0.239-0.818,0.801-0.818h4.309c0.426,0,0.731,0.222,0.731,0.698
			c0,0.478-0.306,0.698-0.731,0.698h-3.61v3.968h3.286c0.426,0,0.732,0.222,0.732,0.698s-0.307,0.698-0.732,0.698h-3.286V144.768z"
			/>
		<path fill="#59595C" d="M60.549,145.789c-0.307,0.426-0.511,0.478-0.75,0.478c-0.34,0-0.681-0.272-0.681-0.631
			c0-0.238,0.136-0.459,0.238-0.612l3.798-5.364l-3.168-4.479c-0.17-0.238-0.238-0.443-0.238-0.613c0-0.375,0.307-0.63,0.664-0.63
			c0.256,0,0.477,0.068,0.767,0.477l2.844,4.155l2.844-4.155c0.289-0.408,0.511-0.477,0.767-0.477c0.357,0,0.664,0.255,0.664,0.63
			c0,0.17-0.068,0.375-0.238,0.613l-3.168,4.479l3.798,5.364c0.102,0.153,0.238,0.374,0.238,0.612c0,0.358-0.341,0.631-0.682,0.631
			c-0.238,0-0.442-0.052-0.749-0.478l-3.474-4.955L60.549,145.789z"/>
		<path fill="#59595C" d="M75.244,144.972c1.822,0,2.622-1.09,3.253-1.09c0.357,0,0.596,0.272,0.596,0.698
			c0,0.767-1.72,1.687-3.849,1.687c-3.508,0-5.312-3.015-5.312-6.165s1.805-6.164,5.397-6.164c2.146,0,3.508,1.158,3.508,1.771
			c0,0.392-0.238,0.716-0.612,0.716c-0.682,0-1.022-1.192-2.896-1.192c-2.69,0-3.797,2.555-3.797,4.87
			C71.532,142.418,72.673,144.972,75.244,144.972z"/>
		<path fill="#59595C" d="M82.311,144.768h3.201c0.426,0,0.732,0.222,0.732,0.698s-0.307,0.698-0.732,0.698h-3.899
			c-0.562,0-0.801-0.357-0.801-0.817v-10.609c0-0.493,0.29-0.8,0.75-0.8c0.459,0,0.749,0.307,0.749,0.8V144.768z"/>
		<path fill="#59595C" d="M87.759,134.737c0-0.493,0.29-0.8,0.75-0.8c0.459,0,0.749,0.307,0.749,0.8v7.204
			c0,1.906,1.294,3.03,3.201,3.03s3.201-1.124,3.201-3.03v-7.204c0-0.493,0.29-0.8,0.75-0.8c0.459,0,0.749,0.307,0.749,0.8v6.625
			c0,4.087-2.623,4.904-4.7,4.904s-4.7-0.817-4.7-4.904V134.737z"/>
		<path fill="#59595C" d="M105.503,135.351c0,0.357-0.272,0.664-0.647,0.664c-0.664,0-0.886-0.783-2.384-0.783
			c-1.107,0-1.925,0.698-1.925,1.72c0,2.674,5.756,1.396,5.756,5.483c0,2.01-1.464,3.832-4.104,3.832
			c-1.601,0-3.372-0.613-3.372-1.465c0-0.409,0.204-0.767,0.63-0.767c0.511,0,1.227,0.937,2.759,0.937
			c1.55,0,2.486-1.124,2.486-2.469c0-2.878-5.756-1.481-5.756-5.449c0-1.413,1.328-3.116,3.576-3.116
			C104.021,133.938,105.503,134.567,105.503,135.351z"/>
		<path fill="#59595C" d="M109.471,145.466c0,0.494-0.29,0.801-0.749,0.801c-0.46,0-0.75-0.307-0.75-0.801v-10.729
			c0-0.493,0.29-0.8,0.75-0.8c0.459,0,0.749,0.307,0.749,0.8V145.466z"/>
		<path fill="#59595C" d="M118.598,134.908c0.188-0.528,0.323-0.971,0.919-0.971c0.409,0,0.664,0.307,0.664,0.613
			c0,0.204-0.033,0.374-0.102,0.578l-3.695,10.32c-0.17,0.493-0.357,0.817-0.868,0.817s-0.698-0.324-0.869-0.817l-3.695-10.32
			c-0.067-0.204-0.102-0.374-0.102-0.578c0-0.307,0.255-0.613,0.664-0.613c0.596,0,0.732,0.442,0.919,0.971l3.065,8.838h0.034
			L118.598,134.908z"/>
		<path fill="#59595C" d="M121.255,145.704c-0.119,0.323-0.324,0.562-0.732,0.562c-0.392,0-0.716-0.239-0.716-0.631
			c0-0.204,0.153-0.596,0.205-0.749l3.763-10.029c0.188-0.528,0.494-0.92,1.073-0.92s0.886,0.392,1.072,0.92l3.764,10.029
			c0.051,0.153,0.204,0.545,0.204,0.749c0,0.392-0.323,0.631-0.715,0.631c-0.408,0-0.613-0.239-0.732-0.562l-0.783-2.18h-5.619
			L121.255,145.704z M124.864,135.674h-0.034l-2.333,6.557h4.7L124.864,135.674z"/>
		<path fill="#59595C" d="M137.415,135.351c0,0.357-0.272,0.664-0.647,0.664c-0.664,0-0.886-0.783-2.384-0.783
			c-1.107,0-1.925,0.698-1.925,1.72c0,2.674,5.756,1.396,5.756,5.483c0,2.01-1.464,3.832-4.104,3.832
			c-1.601,0-3.372-0.613-3.372-1.465c0-0.409,0.204-0.767,0.63-0.767c0.511,0,1.227,0.937,2.759,0.937
			c1.55,0,2.486-1.124,2.486-2.469c0-2.878-5.756-1.481-5.756-5.449c0-1.413,1.328-3.116,3.576-3.116
			C135.934,133.938,137.415,134.567,137.415,135.351z"/>
	</g>
</g>
<g>
	<g>
		<g>
			<path fill="#AE1F24" d="M73.556,28.126c3.329,3.34,7.845,5.253,12.684,5.253c0.812,0,1.625-0.055,2.434-0.166
				c0.185,0.736,0.276,1.499,0.276,2.264c0,5.221-4.242,9.468-9.463,9.468c-5.215,0-9.459-4.247-9.459-9.468
				C70.027,32.591,71.372,29.894,73.556,28.126 M74.619,22.675c-5.168,1.965-8.84,6.947-8.84,12.802
				c0,7.573,6.135,13.715,13.707,13.715c7.576,0,13.714-6.142,13.714-13.715c0-2.666-0.775-5.144-2.09-7.248
				c-1.517,0.573-3.153,0.904-4.871,0.904C81.335,29.133,77.041,26.546,74.619,22.675L74.619,22.675z"/>
			<path fill="#AE1F24" d="M92.406,27.496c-0.417-0.445,8.802-1.021,8.802,7.365c0,8.392-0.411,12.895,0.816,15.145
				c0,0-7.573,0.206-7.573-5.935C94.451,37.933,95.48,30.77,92.406,27.496z"/>
			<path fill="#AE1F24" d="M74.167,56.35l5.113,7.365l4.917-7.163c0,0-2.869-2.654-5.322-2.654
				C76.415,53.897,74.167,56.35,74.167,56.35z"/>
		</g>
		<g>
			<path fill="#AE1F24" d="M133.059,91.619v5.259H93.05v-5.259H133.059 M137.303,87.376h-48.5v13.749h48.5V87.376L137.303,87.376z"
				/>
			<g>
				<path fill="#AE1F24" d="M92.493,84.808c0.064-0.922,0.275-1.39,0.275-1.39l-0.028,0.055l1.384-2.722H61.479l-0.049-0.012
					l-0.174,0.016c-0.304-0.004-0.95-0.077-1.399-0.347c-0.187-0.108-0.681-0.404-0.681-1.956v-9.616v-0.091l-0.003-0.091
					c-0.003-0.051-0.095-5.474,2.688-8.376c0.875-0.913,1.99-1.498,3.376-1.762l10.499,15.927l3.596,5.455l3.522-5.502
					l10.352-16.157c2.603,0.536,5.183,2.795,5.524,9.453c0.895,0,2.385,0,4.229,0.002c-0.605-12.737-8.528-13.841-11.171-13.841
					c-0.533,0-0.849,0.044-0.849,0.044L79.28,72.106L67.412,54.101c-0.087-0.001-0.179-0.003-0.265-0.003
					c-12.825,0-12.219,14.738-12.219,14.738v9.616c0,6.224,5.244,6.55,6.351,6.55c0.126,0,0.199-0.004,0.199-0.004
					s20.481,0,31.015,0V84.808z"/>
				<path fill="#AE1F24" d="M99.522,69.818c5.401,0.001,21.604,0.006,27.094,0.032l-0.034,3.772l-0.008,1.045l0.477,0.93
					c1.487,2.903,3.873,7.577,4.363,8.565c0.032,0.164,0.064,0.46,0.078,0.674v0.711H94.616v-0.654
					c0.029-0.336,0.08-0.543,0.105-0.627l4.39-8.627l0.477-0.945l-0.018-1.062C99.57,73.612,99.536,71.835,99.522,69.818
					 M97.754,65.571c0,0-2.482,0.049-2.482,2.682c0,2.628,0.055,5.459,0.055,5.459l-4.452,8.752c0,0-0.408,0.759-0.505,2.276v5.054
					h45.37V84.74c0,0-0.052-1.468-0.405-2.228c-0.356-0.755-4.502-8.852-4.502-8.852l0.049-5.612c0,0,0.102-2.378-2.529-2.429
					C125.722,65.571,97.754,65.571,97.754,65.571L97.754,65.571z"/>
			</g>
			<rect x="119.551" y="62.032" fill="#AE1F24" width="4.855" height="4.707"/>
			<path fill="#AE1F24" d="M129.214,59.095c0,1.756-1.561,3.19-3.473,3.19h-7.52c-1.912,0-3.474-1.435-3.474-3.19
				c0-1.751,1.562-3.188,3.474-3.188h7.52C127.653,55.906,129.214,57.344,129.214,59.095z"/>
		</g>
	</g>
</g>
</svg>
