<?xml version="1.0" encoding="utf-8"?>
<!-- Generator: Adobe Illustrator 16.0.0, SVG Export Plug-In . SVG Version: 6.00 Build 0)  -->
<!DOCTYPE svg PUBLIC "-//W3C//DTD SVG 1.1//EN" "http://www.w3.org/Graphics/SVG/1.1/DTD/svg11.dtd">
<svg version="1.1" id="Capa_1" xmlns="http://www.w3.org/2000/svg" xmlns:xlink="http://www.w3.org/1999/xlink" x="0px" y="0px"
	 width="189.235px" height="189.233px" viewBox="0 0 189.235 189.233" enable-background="new 0 0 189.235 189.233"
	 xml:space="preserve">
<circle fill="#EAEBEC" cx="94.618" cy="94.616" r="94.618"/>
<g>
	<g>
		<path fill="#AE1F24" d="M110.741,91.268c0,4.758,3.863,8.615,8.62,8.615c4.756,0,8.618-3.857,8.618-8.615
			s-3.862-8.618-8.618-8.618C114.604,82.649,110.741,86.51,110.741,91.268z"/>
		<path fill="#AE1F24" d="M127.612,38.683c0.392,0,1.06,0.553,1.135,0.938l9.086,47.107h-1.672
			c-2.002-7.403-8.772-12.864-16.8-12.864c-8.025,0-14.808,5.467-16.804,12.874l-18.78,0.008l-0.199-0.985l-9.085-47.077H127.612
			 M127.612,33.389H73.404c-2.926,0-4.868,2.355-4.315,5.228l9.293,48.174l1.073,5.249l27.838-0.008
			c-0.019-0.254-0.04-0.506-0.04-0.764c0-6.69,5.418-12.111,12.108-12.111c6.682,0,12.105,5.421,12.105,12.111
			c0,0.255-0.017,0.504-0.036,0.754l7.492-0.001c2.926,0,4.87-2.354,4.315-5.23l-9.295-48.174
			C133.387,35.744,130.537,33.389,127.612,33.389L127.612,33.389z"/>
		<path fill="#AE1F24" d="M49.097,91.268c0,4.758,3.857,8.615,8.614,8.615c4.764,0,8.618-3.857,8.618-8.615
			s-3.854-8.618-8.618-8.618C52.954,82.649,49.097,86.51,49.097,91.268z"/>
		<path fill="#AE1F24" d="M62.109,53.2l5.028,23.442c-2.717-1.757-5.956-2.779-9.427-2.779c-7.291,0-13.549,4.511-16.133,10.886
			l-1.812-8.154c-0.054-0.326,0.02-1.105,0.116-1.386L49.327,53.2H62.109 M63.968,47.906H48.256c-1.33,0-2.849,1.003-3.373,2.226
			L35.019,73.12c-0.526,1.225-0.717,3.288-0.428,4.586l2.613,11.764c0.289,1.298,1.616,2.362,2.949,2.362h5.477
			c-0.006-0.188-0.026-0.377-0.026-0.564c0-6.69,5.421-12.111,12.107-12.111S69.82,84.577,69.82,91.268
			c0,0.188-0.019,0.377-0.028,0.564h3.599h2.438l-0.524-2.366L66.893,50.27C66.612,48.972,65.297,47.906,63.968,47.906
			L63.968,47.906z"/>
		<path fill="#AE1F24" d="M139.553,50.068c0.253,0.754,1.112,1.378,1.91,1.378h11.453c0.801,0,1.247-0.624,0.994-1.378l-1.257-3.772
			c-0.256-0.758-1.114-1.379-1.915-1.379h-11.452c-0.797,0-1.245,0.621-0.989,1.379L139.553,50.068z"/>
		<path fill="#AE1F24" d="M143.248,64.206c0.257,0.759,1.116,1.375,1.917,1.375h7.751c0.801,0,1.247-0.616,0.994-1.375l-1.257-3.771
			c-0.256-0.76-1.114-1.377-1.915-1.377h-7.749c-0.805,0-1.247,0.617-0.998,1.377L143.248,64.206z"/>
		<path fill="#AE1F24" d="M146.511,78.343c0.255,0.758,1.115,1.376,1.915,1.376h3.621c0.796,0,1.244-0.618,0.99-1.376l-1.258-3.767
			c-0.25-0.758-1.112-1.378-1.91-1.378h-3.62c-0.799,0-1.249,0.62-0.988,1.378L146.511,78.343z"/>
	</g>
	<path fill="#AE1F24" d="M45.683,65.052l3.471-8.785c0.368-0.931,1.487-1.682,2.481-1.665l7.265,0.095
		c0.998,0.012,1.989,0.823,2.199,1.796l0.792,3.666c0.207,0.975-0.404,1.993-1.369,2.265L46.76,66.255
		C45.8,66.521,45.312,65.981,45.683,65.052z"/>
</g>
<g>
	<g>
		<path fill="#EAEBEC" d="M28.362,126.175h3.61c0.426,0,0.731,0.222,0.731,0.698s-0.306,0.698-0.731,0.698h-4.309
			c-0.562,0-0.801-0.357-0.801-0.817v-10.49c0-0.459,0.239-0.816,0.801-0.816h4.309c0.426,0,0.731,0.221,0.731,0.697
			c0,0.478-0.306,0.698-0.731,0.698h-3.61v3.968h3.286c0.426,0,0.732,0.222,0.732,0.698c0,0.478-0.307,0.698-0.732,0.698h-3.286
			V126.175z"/>
		<path fill="#EAEBEC" d="M40.793,116.758c0,0.357-0.272,0.664-0.647,0.664c-0.664,0-0.886-0.783-2.384-0.783
			c-1.107,0-1.925,0.698-1.925,1.72c0,2.674,5.756,1.396,5.756,5.483c0,2.01-1.464,3.832-4.104,3.832
			c-1.601,0-3.372-0.613-3.372-1.465c0-0.408,0.204-0.767,0.63-0.767c0.512,0,1.227,0.937,2.759,0.937
			c1.55,0,2.486-1.123,2.486-2.469c0-2.878-5.756-1.481-5.756-5.449c0-1.413,1.328-3.116,3.576-3.116
			C39.312,115.345,40.793,115.975,40.793,116.758z"/>
		<path fill="#EAEBEC" d="M45.305,116.843H43.04c-0.426,0-0.732-0.221-0.732-0.698c0-0.477,0.307-0.697,0.732-0.697h6.028
			c0.425,0,0.731,0.221,0.731,0.697c0,0.478-0.307,0.698-0.731,0.698h-2.266v10.03c0,0.494-0.289,0.801-0.749,0.801
			s-0.749-0.307-0.749-0.801V116.843z"/>
		<path fill="#EAEBEC" d="M50.516,127.111c-0.12,0.324-0.324,0.562-0.732,0.562c-0.392,0-0.716-0.238-0.716-0.631
			c0-0.204,0.153-0.596,0.205-0.749l3.763-10.03c0.188-0.527,0.494-0.919,1.073-0.919s0.886,0.392,1.072,0.919l3.764,10.03
			c0.051,0.153,0.204,0.545,0.204,0.749c0,0.393-0.323,0.631-0.715,0.631c-0.409,0-0.613-0.238-0.732-0.562l-0.783-2.18h-5.619
			L50.516,127.111z M54.125,117.082h-0.034l-2.332,6.556h4.699L54.125,117.082z"/>
		<path fill="#EAEBEC" d="M65.483,126.379c1.822,0,2.622-1.09,3.253-1.09c0.357,0,0.596,0.272,0.596,0.698
			c0,0.767-1.72,1.687-3.849,1.687c-3.508,0-5.312-3.015-5.312-6.165s1.805-6.164,5.397-6.164c2.146,0,3.508,1.158,3.508,1.771
			c0,0.392-0.238,0.716-0.612,0.716c-0.682,0-1.022-1.192-2.896-1.192c-2.69,0-3.797,2.555-3.797,4.87
			C61.771,123.825,62.912,126.379,65.483,126.379z"/>
		<path fill="#EAEBEC" d="M72.55,126.873c0,0.494-0.29,0.801-0.749,0.801c-0.46,0-0.75-0.307-0.75-0.801v-10.729
			c0-0.493,0.29-0.8,0.75-0.8c0.459,0,0.749,0.307,0.749,0.8V126.873z"/>
		<path fill="#EAEBEC" d="M79.702,115.345c3.457,0,5.313,3.014,5.313,6.164s-1.856,6.165-5.313,6.165s-5.312-3.015-5.312-6.165
			S76.245,115.345,79.702,115.345z M79.702,126.379c2.725,0,3.712-2.554,3.712-4.87c0-2.315-0.987-4.87-3.712-4.87
			s-3.712,2.555-3.712,4.87C75.99,123.825,76.978,126.379,79.702,126.379z"/>
		<path fill="#EAEBEC" d="M88.353,126.873c0,0.494-0.29,0.801-0.749,0.801c-0.46,0-0.75-0.307-0.75-0.801V116.23
			c0-0.597,0.205-0.886,0.682-0.886c0.442,0,0.647,0.188,1.056,0.783l6.131,8.804h0.033v-8.787c0-0.493,0.29-0.8,0.75-0.8
			c0.459,0,0.749,0.307,0.749,0.8v10.644c0,0.596-0.204,0.886-0.682,0.886c-0.442,0-0.646-0.188-1.056-0.783l-6.13-8.805h-0.034
			V126.873z"/>
		<path fill="#EAEBEC" d="M99.183,127.111c-0.119,0.324-0.324,0.562-0.732,0.562c-0.392,0-0.716-0.238-0.716-0.631
			c0-0.204,0.153-0.596,0.205-0.749l3.763-10.03c0.188-0.527,0.494-0.919,1.073-0.919s0.886,0.392,1.072,0.919l3.764,10.03
			c0.051,0.153,0.204,0.545,0.204,0.749c0,0.393-0.323,0.631-0.715,0.631c-0.408,0-0.613-0.238-0.732-0.562l-0.783-2.18h-5.619
			L99.183,127.111z M102.792,117.082h-0.034l-2.333,6.556h4.7L102.792,117.082z"/>
		<path fill="#EAEBEC" d="M110.302,127.026c-0.068,0.528-0.408,0.647-0.8,0.647c-0.46,0-0.698-0.307-0.698-0.767
			c0-0.17,0.034-0.392,0.085-0.682l1.651-9.74c0.153-0.852,0.631-1.141,1.176-1.141c0.596,0,0.919,0.222,1.09,0.783l2.588,8.872
			h0.034l2.588-8.872c0.171-0.562,0.494-0.783,1.09-0.783c0.545,0,1.022,0.289,1.176,1.141l1.651,9.74
			c0.051,0.29,0.085,0.512,0.085,0.682c0,0.46-0.238,0.767-0.698,0.767c-0.392,0-0.732-0.119-0.8-0.647l-1.414-9.74h-0.034
			l-2.895,9.774c-0.153,0.494-0.426,0.613-0.767,0.613c-0.34,0-0.612-0.119-0.766-0.613l-2.896-9.774h-0.033L110.302,127.026z"/>
		<path fill="#EAEBEC" d="M125.32,126.873c0,0.494-0.29,0.801-0.749,0.801c-0.46,0-0.75-0.307-0.75-0.801v-10.729
			c0-0.493,0.29-0.8,0.75-0.8c0.459,0,0.749,0.307,0.749,0.8V126.873z"/>
		<path fill="#EAEBEC" d="M129.118,126.175h3.61c0.426,0,0.731,0.222,0.731,0.698s-0.306,0.698-0.731,0.698h-4.309
			c-0.562,0-0.801-0.357-0.801-0.817v-10.49c0-0.459,0.239-0.816,0.801-0.816h4.309c0.426,0,0.731,0.221,0.731,0.697
			c0,0.478-0.306,0.698-0.731,0.698h-3.61v3.968h3.286c0.426,0,0.732,0.222,0.732,0.698c0,0.478-0.307,0.698-0.732,0.698h-3.286
			V126.175z"/>
		<path fill="#EAEBEC" d="M137.002,126.873c0,0.494-0.29,0.801-0.749,0.801c-0.46,0-0.75-0.307-0.75-0.801V116.23
			c0-0.597,0.205-0.886,0.682-0.886c0.442,0,0.646,0.188,1.056,0.783l6.13,8.804h0.034v-8.787c0-0.493,0.29-0.8,0.75-0.8
			c0.459,0,0.749,0.307,0.749,0.8v10.644c0,0.596-0.204,0.886-0.682,0.886c-0.442,0-0.646-0.188-1.056-0.783l-6.13-8.805h-0.034
			V126.873z"/>
		<path fill="#EAEBEC" d="M149.245,116.843h-2.265c-0.426,0-0.732-0.221-0.732-0.698c0-0.477,0.307-0.697,0.732-0.697h6.028
			c0.426,0,0.731,0.221,0.731,0.697c0,0.478-0.306,0.698-0.731,0.698h-2.266v10.03c0,0.494-0.289,0.801-0.749,0.801
			s-0.749-0.307-0.749-0.801V116.843z"/>
		<path fill="#EAEBEC" d="M159.938,115.345c3.457,0,5.313,3.014,5.313,6.164s-1.856,6.165-5.313,6.165s-5.312-3.015-5.312-6.165
			S156.481,115.345,159.938,115.345z M159.938,126.379c2.725,0,3.712-2.554,3.712-4.87c0-2.315-0.987-4.87-3.712-4.87
			s-3.712,2.555-3.712,4.87C156.227,123.825,157.214,126.379,159.938,126.379z"/>
		<path fill="#EAEBEC" d="M57.728,144.768h3.61c0.426,0,0.731,0.222,0.731,0.698s-0.306,0.698-0.731,0.698h-4.309
			c-0.562,0-0.801-0.357-0.801-0.817v-10.489c0-0.46,0.239-0.818,0.801-0.818h4.309c0.426,0,0.731,0.222,0.731,0.698
			c0,0.478-0.306,0.698-0.731,0.698h-3.61v3.968h3.286c0.426,0,0.732,0.222,0.732,0.698s-0.307,0.698-0.732,0.698h-3.286V144.768z"
			/>
		<path fill="#EAEBEC" d="M64.709,145.789c-0.307,0.426-0.511,0.478-0.75,0.478c-0.34,0-0.681-0.272-0.681-0.631
			c0-0.238,0.136-0.459,0.238-0.612l3.798-5.364l-3.168-4.479c-0.17-0.238-0.238-0.443-0.238-0.613c0-0.375,0.307-0.63,0.664-0.63
			c0.256,0,0.477,0.068,0.767,0.477l2.844,4.155l2.844-4.155c0.289-0.408,0.511-0.477,0.767-0.477c0.357,0,0.664,0.255,0.664,0.63
			c0,0.17-0.068,0.375-0.238,0.613l-3.168,4.479l3.798,5.364c0.102,0.153,0.238,0.374,0.238,0.612c0,0.358-0.341,0.631-0.682,0.631
			c-0.238,0-0.442-0.052-0.749-0.478l-3.474-4.955L64.709,145.789z"/>
		<path fill="#EAEBEC" d="M79.404,144.972c1.822,0,2.622-1.09,3.253-1.09c0.357,0,0.596,0.272,0.596,0.698
			c0,0.767-1.72,1.687-3.849,1.687c-3.508,0-5.312-3.015-5.312-6.165s1.805-6.164,5.397-6.164c2.146,0,3.508,1.158,3.508,1.771
			c0,0.392-0.238,0.716-0.612,0.716c-0.682,0-1.022-1.192-2.896-1.192c-2.69,0-3.797,2.555-3.797,4.87
			C75.692,142.418,76.833,144.972,79.404,144.972z"/>
		<path fill="#EAEBEC" d="M86.471,144.768h3.201c0.426,0,0.732,0.222,0.732,0.698s-0.307,0.698-0.732,0.698h-3.899
			c-0.562,0-0.801-0.357-0.801-0.817v-10.609c0-0.493,0.29-0.8,0.75-0.8c0.459,0,0.749,0.307,0.749,0.8V144.768z"/>
		<path fill="#EAEBEC" d="M91.919,134.737c0-0.493,0.29-0.8,0.75-0.8c0.459,0,0.749,0.307,0.749,0.8v7.204
			c0,1.906,1.294,3.03,3.201,3.03s3.201-1.124,3.201-3.03v-7.204c0-0.493,0.29-0.8,0.75-0.8c0.459,0,0.749,0.307,0.749,0.8v6.625
			c0,4.087-2.623,4.904-4.7,4.904s-4.7-0.817-4.7-4.904V134.737z"/>
		<path fill="#EAEBEC" d="M109.663,135.351c0,0.357-0.272,0.664-0.647,0.664c-0.664,0-0.886-0.783-2.384-0.783
			c-1.107,0-1.925,0.698-1.925,1.72c0,2.674,5.756,1.396,5.756,5.483c0,2.01-1.464,3.832-4.104,3.832
			c-1.601,0-3.372-0.613-3.372-1.465c0-0.409,0.204-0.767,0.63-0.767c0.511,0,1.227,0.937,2.759,0.937
			c1.55,0,2.486-1.124,2.486-2.469c0-2.878-5.756-1.481-5.756-5.449c0-1.413,1.328-3.116,3.576-3.116
			C108.182,133.938,109.663,134.567,109.663,135.351z"/>
		<path fill="#EAEBEC" d="M113.631,145.466c0,0.494-0.29,0.801-0.749,0.801c-0.46,0-0.75-0.307-0.75-0.801v-10.729
			c0-0.493,0.29-0.8,0.75-0.8c0.459,0,0.749,0.307,0.749,0.8V145.466z"/>
		<path fill="#EAEBEC" d="M122.758,134.908c0.188-0.528,0.323-0.971,0.919-0.971c0.409,0,0.664,0.307,0.664,0.613
			c0,0.204-0.033,0.374-0.102,0.578l-3.695,10.32c-0.17,0.493-0.357,0.817-0.868,0.817s-0.698-0.324-0.869-0.817l-3.695-10.32
			c-0.067-0.204-0.102-0.374-0.102-0.578c0-0.307,0.255-0.613,0.664-0.613c0.596,0,0.732,0.442,0.919,0.971l3.065,8.838h0.034
			L122.758,134.908z"/>
		<path fill="#EAEBEC" d="M130.573,133.938c3.457,0,5.313,3.014,5.313,6.164s-1.856,6.165-5.313,6.165s-5.312-3.015-5.312-6.165
			S127.116,133.938,130.573,133.938z M130.573,144.972c2.725,0,3.712-2.554,3.712-4.87c0-2.315-0.987-4.87-3.712-4.87
			s-3.712,2.555-3.712,4.87C126.861,142.418,127.849,144.972,130.573,144.972z"/>
	</g>
	<g>
		<path fill="#59595C" d="M28.362,126.175h3.61c0.426,0,0.731,0.222,0.731,0.698s-0.306,0.698-0.731,0.698h-4.309
			c-0.562,0-0.801-0.357-0.801-0.817v-10.49c0-0.459,0.239-0.816,0.801-0.816h4.309c0.426,0,0.731,0.221,0.731,0.697
			c0,0.478-0.306,0.698-0.731,0.698h-3.61v3.968h3.286c0.426,0,0.732,0.222,0.732,0.698c0,0.478-0.307,0.698-0.732,0.698h-3.286
			V126.175z"/>
		<path fill="#59595C" d="M40.793,116.758c0,0.357-0.272,0.664-0.647,0.664c-0.664,0-0.886-0.783-2.384-0.783
			c-1.107,0-1.925,0.698-1.925,1.72c0,2.674,5.756,1.396,5.756,5.483c0,2.01-1.464,3.832-4.104,3.832
			c-1.601,0-3.372-0.613-3.372-1.465c0-0.408,0.204-0.767,0.63-0.767c0.512,0,1.227,0.937,2.759,0.937
			c1.55,0,2.486-1.123,2.486-2.469c0-2.878-5.756-1.481-5.756-5.449c0-1.413,1.328-3.116,3.576-3.116
			C39.312,115.345,40.793,115.975,40.793,116.758z"/>
		<path fill="#59595C" d="M45.305,116.843H43.04c-0.426,0-0.732-0.221-0.732-0.698c0-0.477,0.307-0.697,0.732-0.697h6.028
			c0.425,0,0.731,0.221,0.731,0.697c0,0.478-0.307,0.698-0.731,0.698h-2.266v10.03c0,0.494-0.289,0.801-0.749,0.801
			s-0.749-0.307-0.749-0.801V116.843z"/>
		<path fill="#59595C" d="M50.516,127.111c-0.12,0.324-0.324,0.562-0.732,0.562c-0.392,0-0.716-0.238-0.716-0.631
			c0-0.204,0.153-0.596,0.205-0.749l3.763-10.03c0.188-0.527,0.494-0.919,1.073-0.919s0.886,0.392,1.072,0.919l3.764,10.03
			c0.051,0.153,0.204,0.545,0.204,0.749c0,0.393-0.323,0.631-0.715,0.631c-0.409,0-0.613-0.238-0.732-0.562l-0.783-2.18h-5.619
			L50.516,127.111z M54.125,117.082h-0.034l-2.332,6.556h4.699L54.125,117.082z"/>
		<path fill="#59595C" d="M65.483,126.379c1.822,0,2.622-1.09,3.253-1.09c0.357,0,0.596,0.272,0.596,0.698
			c0,0.767-1.72,1.687-3.849,1.687c-3.508,0-5.312-3.015-5.312-6.165s1.805-6.164,5.397-6.164c2.146,0,3.508,1.158,3.508,1.771
			c0,0.392-0.238,0.716-0.612,0.716c-0.682,0-1.022-1.192-2.896-1.192c-2.69,0-3.797,2.555-3.797,4.87
			C61.771,123.825,62.912,126.379,65.483,126.379z"/>
		<path fill="#59595C" d="M72.55,126.873c0,0.494-0.29,0.801-0.749,0.801c-0.46,0-0.75-0.307-0.75-0.801v-10.729
			c0-0.493,0.29-0.8,0.75-0.8c0.459,0,0.749,0.307,0.749,0.8V126.873z"/>
		<path fill="#59595C" d="M79.702,115.345c3.457,0,5.313,3.014,5.313,6.164s-1.856,6.165-5.313,6.165s-5.312-3.015-5.312-6.165
			S76.245,115.345,79.702,115.345z M79.702,126.379c2.725,0,3.712-2.554,3.712-4.87c0-2.315-0.987-4.87-3.712-4.87
			s-3.712,2.555-3.712,4.87C75.99,123.825,76.978,126.379,79.702,126.379z"/>
		<path fill="#59595C" d="M88.353,126.873c0,0.494-0.29,0.801-0.749,0.801c-0.46,0-0.75-0.307-0.75-0.801V116.23
			c0-0.597,0.205-0.886,0.682-0.886c0.442,0,0.647,0.188,1.056,0.783l6.131,8.804h0.033v-8.787c0-0.493,0.29-0.8,0.75-0.8
			c0.459,0,0.749,0.307,0.749,0.8v10.644c0,0.596-0.204,0.886-0.682,0.886c-0.442,0-0.646-0.188-1.056-0.783l-6.13-8.805h-0.034
			V126.873z"/>
		<path fill="#59595C" d="M99.183,127.111c-0.119,0.324-0.324,0.562-0.732,0.562c-0.392,0-0.716-0.238-0.716-0.631
			c0-0.204,0.153-0.596,0.205-0.749l3.763-10.03c0.188-0.527,0.494-0.919,1.073-0.919s0.886,0.392,1.072,0.919l3.764,10.03
			c0.051,0.153,0.204,0.545,0.204,0.749c0,0.393-0.323,0.631-0.715,0.631c-0.408,0-0.613-0.238-0.732-0.562l-0.783-2.18h-5.619
			L99.183,127.111z M102.792,117.082h-0.034l-2.333,6.556h4.7L102.792,117.082z"/>
		<path fill="#59595C" d="M110.302,127.026c-0.068,0.528-0.408,0.647-0.8,0.647c-0.46,0-0.698-0.307-0.698-0.767
			c0-0.17,0.034-0.392,0.085-0.682l1.651-9.74c0.153-0.852,0.631-1.141,1.176-1.141c0.596,0,0.919,0.222,1.09,0.783l2.588,8.872
			h0.034l2.588-8.872c0.171-0.562,0.494-0.783,1.09-0.783c0.545,0,1.022,0.289,1.176,1.141l1.651,9.74
			c0.051,0.29,0.085,0.512,0.085,0.682c0,0.46-0.238,0.767-0.698,0.767c-0.392,0-0.732-0.119-0.8-0.647l-1.414-9.74h-0.034
			l-2.895,9.774c-0.153,0.494-0.426,0.613-0.767,0.613c-0.34,0-0.612-0.119-0.766-0.613l-2.896-9.774h-0.033L110.302,127.026z"/>
		<path fill="#59595C" d="M125.32,126.873c0,0.494-0.29,0.801-0.749,0.801c-0.46,0-0.75-0.307-0.75-0.801v-10.729
			c0-0.493,0.29-0.8,0.75-0.8c0.459,0,0.749,0.307,0.749,0.8V126.873z"/>
		<path fill="#59595C" d="M129.118,126.175h3.61c0.426,0,0.731,0.222,0.731,0.698s-0.306,0.698-0.731,0.698h-4.309
			c-0.562,0-0.801-0.357-0.801-0.817v-10.49c0-0.459,0.239-0.816,0.801-0.816h4.309c0.426,0,0.731,0.221,0.731,0.697
			c0,0.478-0.306,0.698-0.731,0.698h-3.61v3.968h3.286c0.426,0,0.732,0.222,0.732,0.698c0,0.478-0.307,0.698-0.732,0.698h-3.286
			V126.175z"/>
		<path fill="#59595C" d="M137.002,126.873c0,0.494-0.29,0.801-0.749,0.801c-0.46,0-0.75-0.307-0.75-0.801V116.23
			c0-0.597,0.205-0.886,0.682-0.886c0.442,0,0.646,0.188,1.056,0.783l6.13,8.804h0.034v-8.787c0-0.493,0.29-0.8,0.75-0.8
			c0.459,0,0.749,0.307,0.749,0.8v10.644c0,0.596-0.204,0.886-0.682,0.886c-0.442,0-0.646-0.188-1.056-0.783l-6.13-8.805h-0.034
			V126.873z"/>
		<path fill="#59595C" d="M149.245,116.843h-2.265c-0.426,0-0.732-0.221-0.732-0.698c0-0.477,0.307-0.697,0.732-0.697h6.028
			c0.426,0,0.731,0.221,0.731,0.697c0,0.478-0.306,0.698-0.731,0.698h-2.266v10.03c0,0.494-0.289,0.801-0.749,0.801
			s-0.749-0.307-0.749-0.801V116.843z"/>
		<path fill="#59595C" d="M159.938,115.345c3.457,0,5.313,3.014,5.313,6.164s-1.856,6.165-5.313,6.165s-5.312-3.015-5.312-6.165
			S156.481,115.345,159.938,115.345z M159.938,126.379c2.725,0,3.712-2.554,3.712-4.87c0-2.315-0.987-4.87-3.712-4.87
			s-3.712,2.555-3.712,4.87C156.227,123.825,157.214,126.379,159.938,126.379z"/>
		<path fill="#59595C" d="M57.728,144.768h3.61c0.426,0,0.731,0.222,0.731,0.698s-0.306,0.698-0.731,0.698h-4.309
			c-0.562,0-0.801-0.357-0.801-0.817v-10.489c0-0.46,0.239-0.818,0.801-0.818h4.309c0.426,0,0.731,0.222,0.731,0.698
			c0,0.478-0.306,0.698-0.731,0.698h-3.61v3.968h3.286c0.426,0,0.732,0.222,0.732,0.698s-0.307,0.698-0.732,0.698h-3.286V144.768z"
			/>
		<path fill="#59595C" d="M64.709,145.789c-0.307,0.426-0.511,0.478-0.75,0.478c-0.34,0-0.681-0.272-0.681-0.631
			c0-0.238,0.136-0.459,0.238-0.612l3.798-5.364l-3.168-4.479c-0.17-0.238-0.238-0.443-0.238-0.613c0-0.375,0.307-0.63,0.664-0.63
			c0.256,0,0.477,0.068,0.767,0.477l2.844,4.155l2.844-4.155c0.289-0.408,0.511-0.477,0.767-0.477c0.357,0,0.664,0.255,0.664,0.63
			c0,0.17-0.068,0.375-0.238,0.613l-3.168,4.479l3.798,5.364c0.102,0.153,0.238,0.374,0.238,0.612c0,0.358-0.341,0.631-0.682,0.631
			c-0.238,0-0.442-0.052-0.749-0.478l-3.474-4.955L64.709,145.789z"/>
		<path fill="#59595C" d="M79.404,144.972c1.822,0,2.622-1.09,3.253-1.09c0.357,0,0.596,0.272,0.596,0.698
			c0,0.767-1.72,1.687-3.849,1.687c-3.508,0-5.312-3.015-5.312-6.165s1.805-6.164,5.397-6.164c2.146,0,3.508,1.158,3.508,1.771
			c0,0.392-0.238,0.716-0.612,0.716c-0.682,0-1.022-1.192-2.896-1.192c-2.69,0-3.797,2.555-3.797,4.87
			C75.692,142.418,76.833,144.972,79.404,144.972z"/>
		<path fill="#59595C" d="M86.471,144.768h3.201c0.426,0,0.732,0.222,0.732,0.698s-0.307,0.698-0.732,0.698h-3.899
			c-0.562,0-0.801-0.357-0.801-0.817v-10.609c0-0.493,0.29-0.8,0.75-0.8c0.459,0,0.749,0.307,0.749,0.8V144.768z"/>
		<path fill="#59595C" d="M91.919,134.737c0-0.493,0.29-0.8,0.75-0.8c0.459,0,0.749,0.307,0.749,0.8v7.204
			c0,1.906,1.294,3.03,3.201,3.03s3.201-1.124,3.201-3.03v-7.204c0-0.493,0.29-0.8,0.75-0.8c0.459,0,0.749,0.307,0.749,0.8v6.625
			c0,4.087-2.623,4.904-4.7,4.904s-4.7-0.817-4.7-4.904V134.737z"/>
		<path fill="#59595C" d="M109.663,135.351c0,0.357-0.272,0.664-0.647,0.664c-0.664,0-0.886-0.783-2.384-0.783
			c-1.107,0-1.925,0.698-1.925,1.72c0,2.674,5.756,1.396,5.756,5.483c0,2.01-1.464,3.832-4.104,3.832
			c-1.601,0-3.372-0.613-3.372-1.465c0-0.409,0.204-0.767,0.63-0.767c0.511,0,1.227,0.937,2.759,0.937
			c1.55,0,2.486-1.124,2.486-2.469c0-2.878-5.756-1.481-5.756-5.449c0-1.413,1.328-3.116,3.576-3.116
			C108.182,133.938,109.663,134.567,109.663,135.351z"/>
		<path fill="#59595C" d="M113.631,145.466c0,0.494-0.29,0.801-0.749,0.801c-0.46,0-0.75-0.307-0.75-0.801v-10.729
			c0-0.493,0.29-0.8,0.75-0.8c0.459,0,0.749,0.307,0.749,0.8V145.466z"/>
		<path fill="#59595C" d="M122.758,134.908c0.188-0.528,0.323-0.971,0.919-0.971c0.409,0,0.664,0.307,0.664,0.613
			c0,0.204-0.033,0.374-0.102,0.578l-3.695,10.32c-0.17,0.493-0.357,0.817-0.868,0.817s-0.698-0.324-0.869-0.817l-3.695-10.32
			c-0.067-0.204-0.102-0.374-0.102-0.578c0-0.307,0.255-0.613,0.664-0.613c0.596,0,0.732,0.442,0.919,0.971l3.065,8.838h0.034
			L122.758,134.908z"/>
		<path fill="#59595C" d="M130.573,133.938c3.457,0,5.313,3.014,5.313,6.164s-1.856,6.165-5.313,6.165s-5.312-3.015-5.312-6.165
			S127.116,133.938,130.573,133.938z M130.573,144.972c2.725,0,3.712-2.554,3.712-4.87c0-2.315-0.987-4.87-3.712-4.87
			s-3.712,2.555-3.712,4.87C126.861,142.418,127.849,144.972,130.573,144.972z"/>
	</g>
</g>
</svg>
