<?xml version="1.0" encoding="utf-8"?>
<!-- Generator: Adobe Illustrator 16.0.0, SVG Export Plug-In . SVG Version: 6.00 Build 0)  -->
<!DOCTYPE svg PUBLIC "-//W3C//DTD SVG 1.1//EN" "http://www.w3.org/Graphics/SVG/1.1/DTD/svg11.dtd">
<svg version="1.1" id="Capa_1" xmlns="http://www.w3.org/2000/svg" xmlns:xlink="http://www.w3.org/1999/xlink" x="0px" y="0px"
	 width="189.235px" height="189.233px" viewBox="0 0 189.235 189.233" enable-background="new 0 0 189.235 189.233"
	 xml:space="preserve">
<circle fill="#EAEBEC" cx="94.618" cy="94.616" r="94.618"/>
<g>
	<g>
		<path fill="#EAEBEC" d="M70.114,115.706c3.355,0,5.156,2.925,5.156,5.982c0,3.057-1.801,5.982-5.156,5.982
			c-3.354,0-5.154-2.926-5.154-5.982C64.96,118.631,66.761,115.706,70.114,115.706z M70.114,126.414
			c2.645,0,3.604-2.479,3.604-4.726c0-2.248-0.959-4.727-3.604-4.727c-2.643,0-3.602,2.479-3.602,4.727
			C66.513,123.936,67.472,126.414,70.114,126.414z"/>
		<path fill="#EAEBEC" d="M78.509,126.894c0,0.479-0.281,0.777-0.729,0.777c-0.445,0-0.727-0.298-0.727-0.777v-10.295
			c0-0.446,0.23-0.793,0.777-0.793h4.131c0.412,0,0.711,0.215,0.711,0.677c0,0.463-0.299,0.678-0.711,0.678h-3.453v3.851h3.057
			c0.412,0,0.711,0.215,0.711,0.678s-0.299,0.678-0.711,0.678h-3.057V126.894z"/>
		<path fill="#EAEBEC" d="M85.548,126.216h3.502c0.414,0,0.711,0.215,0.711,0.678s-0.297,0.678-0.711,0.678h-4.18
			c-0.547,0-0.777-0.347-0.777-0.793v-10.18c0-0.446,0.23-0.793,0.777-0.793h4.18c0.414,0,0.711,0.215,0.711,0.677
			c0,0.463-0.297,0.678-0.711,0.678h-3.502v3.851h3.189c0.412,0,0.709,0.215,0.709,0.678s-0.297,0.678-0.709,0.678h-3.189V126.216z"
			/>
		<path fill="#EAEBEC" d="M93.196,126.894c0,0.479-0.281,0.777-0.727,0.777c-0.447,0-0.729-0.298-0.729-0.777v-10.295
			c0-0.446,0.232-0.793,0.777-0.793h2.693c1.852,0,3.604,1.256,3.604,3.173c0,2.379-1.455,3.271-3.207,3.338l-0.627,0.017
			l3.75,4.114c0.199,0.215,0.281,0.396,0.281,0.661c0,0.314-0.297,0.562-0.66,0.562c-0.297,0-0.496-0.149-0.662-0.331l-4.494-4.925
			V126.894z M93.196,121.242h1.982c1.521,0,2.182-0.645,2.182-2.165c0-1.091-0.859-2.016-2.215-2.016h-1.949V121.242z"/>
		<path fill="#EAEBEC" d="M102.614,117.16h-2.197c-0.414,0-0.711-0.215-0.711-0.678c0-0.462,0.297-0.677,0.711-0.677h5.85
			c0.414,0,0.711,0.215,0.711,0.677c0,0.463-0.297,0.678-0.711,0.678h-2.197v9.733c0,0.479-0.281,0.777-0.727,0.777
			c-0.447,0-0.729-0.298-0.729-0.777V117.16z"/>
		<path fill="#EAEBEC" d="M107.671,127.125c-0.115,0.314-0.314,0.546-0.711,0.546c-0.379,0-0.693-0.231-0.693-0.612
			c0-0.198,0.148-0.578,0.197-0.727l3.652-9.733c0.182-0.513,0.48-0.893,1.041-0.893c0.562,0,0.859,0.38,1.041,0.893l3.652,9.733
			c0.051,0.148,0.199,0.528,0.199,0.727c0,0.381-0.314,0.612-0.695,0.612c-0.396,0-0.594-0.231-0.709-0.546l-0.762-2.115h-5.453
			L107.671,127.125z M111.175,117.392h-0.033l-2.264,6.362h4.561L111.175,117.392z"/>
		<path fill="#EAEBEC" d="M123.353,117.078c0,0.347-0.266,0.645-0.629,0.645c-0.645,0-0.859-0.761-2.312-0.761
			c-1.074,0-1.869,0.678-1.869,1.669c0,2.595,5.586,1.355,5.586,5.321c0,1.95-1.42,3.719-3.982,3.719
			c-1.553,0-3.271-0.596-3.271-1.422c0-0.396,0.197-0.743,0.611-0.743c0.496,0,1.189,0.908,2.678,0.908
			c1.504,0,2.412-1.09,2.412-2.396c0-2.793-5.586-1.438-5.586-5.288c0-1.372,1.289-3.024,3.471-3.024
			C121.915,115.706,123.353,116.317,123.353,117.078z"/>
		<path fill="#EAEBEC" d="M54.427,144.257h3.502c0.414,0,0.711,0.215,0.711,0.678s-0.297,0.678-0.711,0.678h-4.18
			c-0.547,0-0.777-0.347-0.777-0.793v-10.18c0-0.446,0.23-0.793,0.777-0.793h4.18c0.414,0,0.711,0.215,0.711,0.677
			c0,0.463-0.297,0.678-0.711,0.678h-3.502v3.851h3.189c0.412,0,0.709,0.215,0.709,0.678s-0.297,0.678-0.709,0.678h-3.189V144.257z"
			/>
		<path fill="#EAEBEC" d="M61.2,145.249c-0.297,0.413-0.496,0.463-0.727,0.463c-0.33,0-0.662-0.265-0.662-0.612
			c0-0.23,0.133-0.445,0.232-0.595l3.686-5.205l-3.074-4.347c-0.166-0.231-0.232-0.43-0.232-0.595c0-0.363,0.299-0.611,0.645-0.611
			c0.248,0,0.463,0.066,0.744,0.463l2.76,4.032l2.76-4.032c0.281-0.396,0.496-0.463,0.744-0.463c0.348,0,0.645,0.248,0.645,0.611
			c0,0.165-0.066,0.363-0.232,0.595l-3.072,4.347l3.684,5.205c0.1,0.149,0.232,0.364,0.232,0.595c0,0.348-0.33,0.612-0.662,0.612
			c-0.23,0-0.43-0.05-0.727-0.463l-3.371-4.81L61.2,145.249z"/>
		<path fill="#EAEBEC" d="M75.46,144.455c1.768,0,2.545-1.058,3.156-1.058c0.348,0,0.578,0.265,0.578,0.678
			c0,0.744-1.67,1.637-3.734,1.637c-3.404,0-5.156-2.926-5.156-5.982c0-3.058,1.752-5.982,5.238-5.982
			c2.082,0,3.404,1.124,3.404,1.719c0,0.38-0.23,0.694-0.594,0.694c-0.662,0-0.992-1.157-2.811-1.157
			c-2.611,0-3.686,2.479-3.686,4.727C71.856,141.977,72.964,144.455,75.46,144.455z"/>
		<path fill="#EAEBEC" d="M82.317,144.257h3.105c0.414,0,0.711,0.215,0.711,0.678s-0.297,0.678-0.711,0.678H81.64
			c-0.547,0-0.777-0.347-0.777-0.793v-10.296c0-0.479,0.281-0.776,0.727-0.776c0.447,0,0.729,0.298,0.729,0.776V144.257z"/>
		<path fill="#EAEBEC" d="M87.603,134.523c0-0.479,0.281-0.776,0.729-0.776c0.445,0,0.727,0.298,0.727,0.776v6.99
			c0,1.852,1.256,2.941,3.107,2.941c1.85,0,3.105-1.09,3.105-2.941v-6.99c0-0.479,0.281-0.776,0.729-0.776
			c0.445,0,0.727,0.298,0.727,0.776v6.429c0,3.966-2.545,4.76-4.561,4.76c-2.018,0-4.562-0.794-4.562-4.76V134.523z"/>
		<path fill="#EAEBEC" d="M104.821,135.119c0,0.347-0.266,0.645-0.629,0.645c-0.645,0-0.859-0.761-2.312-0.761
			c-1.074,0-1.869,0.678-1.869,1.669c0,2.595,5.586,1.355,5.586,5.321c0,1.95-1.42,3.719-3.982,3.719
			c-1.553,0-3.271-0.596-3.271-1.422c0-0.396,0.197-0.743,0.611-0.743c0.496,0,1.189,0.908,2.678,0.908
			c1.504,0,2.412-1.09,2.412-2.396c0-2.793-5.586-1.438-5.586-5.288c0-1.372,1.289-3.024,3.471-3.024
			C103.384,133.747,104.821,134.358,104.821,135.119z"/>
		<path fill="#EAEBEC" d="M108.671,144.935c0,0.479-0.281,0.777-0.729,0.777c-0.445,0-0.727-0.298-0.727-0.777v-10.411
			c0-0.479,0.281-0.776,0.727-0.776c0.447,0,0.729,0.298,0.729,0.776V144.935z"/>
		<path fill="#EAEBEC" d="M117.526,134.689c0.182-0.513,0.314-0.942,0.893-0.942c0.396,0,0.645,0.298,0.645,0.595
			c0,0.198-0.033,0.364-0.1,0.562l-3.586,10.014c-0.164,0.479-0.346,0.794-0.842,0.794s-0.678-0.314-0.844-0.794l-3.586-10.014
			c-0.064-0.198-0.098-0.364-0.098-0.562c0-0.297,0.248-0.595,0.645-0.595c0.578,0,0.709,0.43,0.891,0.942l2.975,8.576h0.033
			L117.526,134.689z"/>
		<path fill="#EAEBEC" d="M120.104,145.166c-0.115,0.314-0.314,0.546-0.711,0.546c-0.379,0-0.693-0.231-0.693-0.612
			c0-0.198,0.148-0.578,0.197-0.727l3.652-9.733c0.182-0.513,0.48-0.893,1.041-0.893c0.562,0,0.859,0.38,1.041,0.893l3.652,9.733
			c0.051,0.148,0.199,0.528,0.199,0.727c0,0.381-0.314,0.612-0.695,0.612c-0.396,0-0.594-0.231-0.709-0.546l-0.762-2.115h-5.453
			L120.104,145.166z M123.608,135.433h-0.033l-2.264,6.362h4.561L123.608,135.433z"/>
		<path fill="#EAEBEC" d="M135.786,135.119c0,0.347-0.264,0.645-0.627,0.645c-0.645,0-0.859-0.761-2.314-0.761
			c-1.074,0-1.867,0.678-1.867,1.669c0,2.595,5.586,1.355,5.586,5.321c0,1.95-1.422,3.719-3.982,3.719
			c-1.555,0-3.273-0.596-3.273-1.422c0-0.396,0.199-0.743,0.611-0.743c0.496,0,1.191,0.908,2.678,0.908
			c1.504,0,2.412-1.09,2.412-2.396c0-2.793-5.584-1.438-5.584-5.288c0-1.372,1.289-3.024,3.469-3.024
			C134.349,133.747,135.786,134.358,135.786,135.119z"/>
	</g>
	<g>
		<path fill="#59595C" d="M70.114,115.706c3.355,0,5.156,2.925,5.156,5.982c0,3.057-1.801,5.982-5.156,5.982
			c-3.354,0-5.154-2.926-5.154-5.982C64.96,118.631,66.761,115.706,70.114,115.706z M70.114,126.414
			c2.645,0,3.604-2.479,3.604-4.726c0-2.248-0.959-4.727-3.604-4.727c-2.643,0-3.602,2.479-3.602,4.727
			C66.513,123.936,67.472,126.414,70.114,126.414z"/>
		<path fill="#59595C" d="M78.509,126.894c0,0.479-0.281,0.777-0.729,0.777c-0.445,0-0.727-0.298-0.727-0.777v-10.295
			c0-0.446,0.23-0.793,0.777-0.793h4.131c0.412,0,0.711,0.215,0.711,0.677c0,0.463-0.299,0.678-0.711,0.678h-3.453v3.851h3.057
			c0.412,0,0.711,0.215,0.711,0.678s-0.299,0.678-0.711,0.678h-3.057V126.894z"/>
		<path fill="#59595C" d="M85.548,126.216h3.502c0.414,0,0.711,0.215,0.711,0.678s-0.297,0.678-0.711,0.678h-4.18
			c-0.547,0-0.777-0.347-0.777-0.793v-10.18c0-0.446,0.23-0.793,0.777-0.793h4.18c0.414,0,0.711,0.215,0.711,0.677
			c0,0.463-0.297,0.678-0.711,0.678h-3.502v3.851h3.189c0.412,0,0.709,0.215,0.709,0.678s-0.297,0.678-0.709,0.678h-3.189V126.216z"
			/>
		<path fill="#59595C" d="M93.196,126.894c0,0.479-0.281,0.777-0.727,0.777c-0.447,0-0.729-0.298-0.729-0.777v-10.295
			c0-0.446,0.232-0.793,0.777-0.793h2.693c1.852,0,3.604,1.256,3.604,3.173c0,2.379-1.455,3.271-3.207,3.338l-0.627,0.017
			l3.75,4.114c0.199,0.215,0.281,0.396,0.281,0.661c0,0.314-0.297,0.562-0.66,0.562c-0.297,0-0.496-0.149-0.662-0.331l-4.494-4.925
			V126.894z M93.196,121.242h1.982c1.521,0,2.182-0.645,2.182-2.165c0-1.091-0.859-2.016-2.215-2.016h-1.949V121.242z"/>
		<path fill="#59595C" d="M102.614,117.16h-2.197c-0.414,0-0.711-0.215-0.711-0.678c0-0.462,0.297-0.677,0.711-0.677h5.85
			c0.414,0,0.711,0.215,0.711,0.677c0,0.463-0.297,0.678-0.711,0.678h-2.197v9.733c0,0.479-0.281,0.777-0.727,0.777
			c-0.447,0-0.729-0.298-0.729-0.777V117.16z"/>
		<path fill="#59595C" d="M107.671,127.125c-0.115,0.314-0.314,0.546-0.711,0.546c-0.379,0-0.693-0.231-0.693-0.612
			c0-0.198,0.148-0.578,0.197-0.727l3.652-9.733c0.182-0.513,0.48-0.893,1.041-0.893c0.562,0,0.859,0.38,1.041,0.893l3.652,9.733
			c0.051,0.148,0.199,0.528,0.199,0.727c0,0.381-0.314,0.612-0.695,0.612c-0.396,0-0.594-0.231-0.709-0.546l-0.762-2.115h-5.453
			L107.671,127.125z M111.175,117.392h-0.033l-2.264,6.362h4.561L111.175,117.392z"/>
		<path fill="#59595C" d="M123.353,117.078c0,0.347-0.266,0.645-0.629,0.645c-0.645,0-0.859-0.761-2.312-0.761
			c-1.074,0-1.869,0.678-1.869,1.669c0,2.595,5.586,1.355,5.586,5.321c0,1.95-1.42,3.719-3.982,3.719
			c-1.553,0-3.271-0.596-3.271-1.422c0-0.396,0.197-0.743,0.611-0.743c0.496,0,1.189,0.908,2.678,0.908
			c1.504,0,2.412-1.09,2.412-2.396c0-2.793-5.586-1.438-5.586-5.288c0-1.372,1.289-3.024,3.471-3.024
			C121.915,115.706,123.353,116.317,123.353,117.078z"/>
		<path fill="#59595C" d="M54.427,144.257h3.502c0.414,0,0.711,0.215,0.711,0.678s-0.297,0.678-0.711,0.678h-4.18
			c-0.547,0-0.777-0.347-0.777-0.793v-10.18c0-0.446,0.23-0.793,0.777-0.793h4.18c0.414,0,0.711,0.215,0.711,0.677
			c0,0.463-0.297,0.678-0.711,0.678h-3.502v3.851h3.189c0.412,0,0.709,0.215,0.709,0.678s-0.297,0.678-0.709,0.678h-3.189V144.257z"
			/>
		<path fill="#59595C" d="M61.2,145.249c-0.297,0.413-0.496,0.463-0.727,0.463c-0.33,0-0.662-0.265-0.662-0.612
			c0-0.23,0.133-0.445,0.232-0.595l3.686-5.205l-3.074-4.347c-0.166-0.231-0.232-0.43-0.232-0.595c0-0.363,0.299-0.611,0.645-0.611
			c0.248,0,0.463,0.066,0.744,0.463l2.76,4.032l2.76-4.032c0.281-0.396,0.496-0.463,0.744-0.463c0.348,0,0.645,0.248,0.645,0.611
			c0,0.165-0.066,0.363-0.232,0.595l-3.072,4.347l3.684,5.205c0.1,0.149,0.232,0.364,0.232,0.595c0,0.348-0.33,0.612-0.662,0.612
			c-0.23,0-0.43-0.05-0.727-0.463l-3.371-4.81L61.2,145.249z"/>
		<path fill="#59595C" d="M75.46,144.455c1.768,0,2.545-1.058,3.156-1.058c0.348,0,0.578,0.265,0.578,0.678
			c0,0.744-1.67,1.637-3.734,1.637c-3.404,0-5.156-2.926-5.156-5.982c0-3.058,1.752-5.982,5.238-5.982
			c2.082,0,3.404,1.124,3.404,1.719c0,0.38-0.23,0.694-0.594,0.694c-0.662,0-0.992-1.157-2.811-1.157
			c-2.611,0-3.686,2.479-3.686,4.727C71.856,141.977,72.964,144.455,75.46,144.455z"/>
		<path fill="#59595C" d="M82.317,144.257h3.105c0.414,0,0.711,0.215,0.711,0.678s-0.297,0.678-0.711,0.678H81.64
			c-0.547,0-0.777-0.347-0.777-0.793v-10.296c0-0.479,0.281-0.776,0.727-0.776c0.447,0,0.729,0.298,0.729,0.776V144.257z"/>
		<path fill="#59595C" d="M87.603,134.523c0-0.479,0.281-0.776,0.729-0.776c0.445,0,0.727,0.298,0.727,0.776v6.99
			c0,1.852,1.256,2.941,3.107,2.941c1.85,0,3.105-1.09,3.105-2.941v-6.99c0-0.479,0.281-0.776,0.729-0.776
			c0.445,0,0.727,0.298,0.727,0.776v6.429c0,3.966-2.545,4.76-4.561,4.76c-2.018,0-4.562-0.794-4.562-4.76V134.523z"/>
		<path fill="#59595C" d="M104.821,135.119c0,0.347-0.266,0.645-0.629,0.645c-0.645,0-0.859-0.761-2.312-0.761
			c-1.074,0-1.869,0.678-1.869,1.669c0,2.595,5.586,1.355,5.586,5.321c0,1.95-1.42,3.719-3.982,3.719
			c-1.553,0-3.271-0.596-3.271-1.422c0-0.396,0.197-0.743,0.611-0.743c0.496,0,1.189,0.908,2.678,0.908
			c1.504,0,2.412-1.09,2.412-2.396c0-2.793-5.586-1.438-5.586-5.288c0-1.372,1.289-3.024,3.471-3.024
			C103.384,133.747,104.821,134.358,104.821,135.119z"/>
		<path fill="#59595C" d="M108.671,144.935c0,0.479-0.281,0.777-0.729,0.777c-0.445,0-0.727-0.298-0.727-0.777v-10.411
			c0-0.479,0.281-0.776,0.727-0.776c0.447,0,0.729,0.298,0.729,0.776V144.935z"/>
		<path fill="#59595C" d="M117.526,134.689c0.182-0.513,0.314-0.942,0.893-0.942c0.396,0,0.645,0.298,0.645,0.595
			c0,0.198-0.033,0.364-0.1,0.562l-3.586,10.014c-0.164,0.479-0.346,0.794-0.842,0.794s-0.678-0.314-0.844-0.794l-3.586-10.014
			c-0.064-0.198-0.098-0.364-0.098-0.562c0-0.297,0.248-0.595,0.645-0.595c0.578,0,0.709,0.43,0.891,0.942l2.975,8.576h0.033
			L117.526,134.689z"/>
		<path fill="#59595C" d="M120.104,145.166c-0.115,0.314-0.314,0.546-0.711,0.546c-0.379,0-0.693-0.231-0.693-0.612
			c0-0.198,0.148-0.578,0.197-0.727l3.652-9.733c0.182-0.513,0.48-0.893,1.041-0.893c0.562,0,0.859,0.38,1.041,0.893l3.652,9.733
			c0.051,0.148,0.199,0.528,0.199,0.727c0,0.381-0.314,0.612-0.695,0.612c-0.396,0-0.594-0.231-0.709-0.546l-0.762-2.115h-5.453
			L120.104,145.166z M123.608,135.433h-0.033l-2.264,6.362h4.561L123.608,135.433z"/>
		<path fill="#59595C" d="M135.786,135.119c0,0.347-0.264,0.645-0.627,0.645c-0.645,0-0.859-0.761-2.314-0.761
			c-1.074,0-1.867,0.678-1.867,1.669c0,2.595,5.586,1.355,5.586,5.321c0,1.95-1.422,3.719-3.982,3.719
			c-1.555,0-3.273-0.596-3.273-1.422c0-0.396,0.199-0.743,0.611-0.743c0.496,0,1.191,0.908,2.678,0.908
			c1.504,0,2.412-1.09,2.412-2.396c0-2.793-5.584-1.438-5.584-5.288c0-1.372,1.289-3.024,3.469-3.024
			C134.349,133.747,135.786,134.358,135.786,135.119z"/>
	</g>
</g>
<g>
	<g>
		<g>
			<g>
				<g>
					<g>
						<g>
							<g>
								<g>
									<g>
										<g>
											<g>
												<polygon fill="#AE1F24" points="100.576,91.828 99.951,88.533 110.791,86.462 60.573,86.22 60.781,44.223 
													55.849,42.654 56.869,39.455 64.154,41.77 63.954,82.87 134.354,83.212 134.363,86.579 118.961,86.732 												"/>
											</g>
											<g>
												<path fill="#AE1F24" d="M62.538,78.611l-10.045-0.049l0.134-27.104l10.046,0.048L62.538,78.611z M54.524,76.556
													l6.005,0.031l0.111-23.068l-6.004-0.029L54.524,76.556z"/>
											</g>
											<g>
												<path fill="#AE1F24" d="M58.779,41.061c-0.005,1.343-1.096,2.415-2.431,2.407c-1.333-0.004-2.412-1.089-2.405-2.43
													c0.008-1.329,1.095-2.401,2.425-2.393C57.707,38.651,58.786,39.734,58.779,41.061z"/>
											</g>
										</g>
										<g>
											<path fill="#AE1F24" d="M135.832,94.464c-0.011,2.765-2.261,4.992-5.027,4.979c-2.763-0.013-4.993-2.264-4.98-5.026
												c0.012-2.76,2.266-4.997,5.032-4.982C133.619,89.446,135.846,91.705,135.832,94.464z"/>
											<path fill="#AE1F24" d="M130.804,100.358c-3.265-0.017-5.918-2.685-5.9-5.948c0.016-3.264,2.691-5.908,5.956-5.892
												c3.261,0.016,5.899,2.685,5.883,5.948C136.729,97.73,134.062,100.375,130.804,100.358z M130.852,90.354
												c-2.261-0.01-4.106,1.81-4.115,4.066c-0.012,2.256,1.815,4.104,4.076,4.114c2.253,0.011,4.092-1.82,4.104-4.074
												C134.927,92.204,133.108,90.362,130.852,90.354z"/>
										</g>
										<g>
											<path fill="#AE1F24" d="M66.752,93.646c-0.012,2.76-2.266,4.989-5.029,4.978c-2.763-0.015-4.991-2.266-4.98-5.023
												c0.014-2.771,2.266-4.999,5.032-4.987C64.531,88.628,66.766,90.877,66.752,93.646z"/>
											<path fill="#AE1F24" d="M61.717,99.539c-3.263-0.017-5.911-2.683-5.895-5.945c0.018-3.264,2.688-5.912,5.953-5.896
												c3.265,0.017,5.901,2.69,5.885,5.952C67.646,96.914,64.98,99.553,61.717,99.539z M61.768,89.535
												c-2.254-0.014-4.1,1.808-4.115,4.068c-0.008,2.245,1.818,4.102,4.075,4.112c2.253,0.013,4.095-1.828,4.104-4.073
												C65.843,91.383,64.017,89.544,61.768,89.535z"/>
										</g>
										<g>
											<path fill="#AE1F24" d="M101.248,94.993c-0.012,2.205-1.803,3.984-4.009,3.973c-2.206-0.011-3.99-1.807-3.982-4.012
												c0.012-2.208,1.812-3.99,4.022-3.978C99.484,90.986,101.26,92.783,101.248,94.993z"/>
											<path fill="#AE1F24" d="M97.237,99.88c-2.71-0.015-4.896-2.227-4.881-4.932c0.012-2.7,2.222-4.891,4.926-4.881
												c2.708,0.014,4.897,2.228,4.882,4.932C102.151,97.701,99.941,99.891,97.237,99.88z M97.276,91.888
												c-1.706-0.007-3.104,1.369-3.109,3.07c-0.011,1.697,1.376,3.095,3.078,3.101c1.701,0.01,3.089-1.371,3.097-3.071
												C100.352,93.286,98.978,91.896,97.276,91.888z"/>
										</g>
										<g>
											<polygon fill="#AE1F24" points="66.942,89.992 60.52,93.924 60.57,83.555 66.977,83.588 											"/>
										</g>
										<g>
											<polygon fill="#AE1F24" points="134.219,90.32 127.792,94.254 127.843,83.885 134.249,83.914 											"/>
										</g>
										<g>
											<polygon fill="#AE1F24" points="102.871,90.26 96.444,94.189 96.472,88.437 102.881,88.467 											"/>
										</g>
									</g>
									<g>
										<line fill="#AE1F24" x1="62.466" y1="70.025" x2="53.481" y2="69.98"/>
										
											<rect x="53.482" y="69.061" transform="matrix(1 0.0052 -0.0052 1 0.3661 -0.3016)" fill="#AE1F24" width="8.982" height="1.889"/>
									</g>
									<g>
										<line fill="#AE1F24" x1="62.514" y1="60.344" x2="54.323" y2="60.304"/>
										
											<rect x="54.321" y="59.382" transform="matrix(1 0.005 -0.005 1 0.3028 -0.2917)" fill="#AE1F24" width="8.192" height="1.88"/>
									</g>
								</g>
							</g>
						</g>
					</g>
				</g>
			</g>
		</g>
	</g>
	<g>
		<path fill="#AE1F24" d="M98.145,59.458v6.539c1.601,0,2.727-1.601,2.727-3.198C100.871,60.822,99.837,59.975,98.145,59.458z"/>
		<path fill="#AE1F24" d="M92.733,48.216c0,1.504,1.224,2.398,2.589,2.729v-5.836C93.863,45.44,92.733,46.521,92.733,48.216z"/>
		<path fill="#AE1F24" d="M121.33,56.153l2.951-4.366l-4.162-3.245l1.467-5.058l-4.953-1.799l-0.181-5.273l-5.271-0.179l-1.799-4.96
			l-5.068,1.462l-3.237-4.148l-4.365,2.944l-4.366-2.944L89.1,32.735l-5.064-1.462l-1.799,4.96l-5.27,0.179l-0.183,5.273
			l-4.949,1.799l1.459,5.06l-4.165,3.243l2.959,4.366l-2.959,4.365l4.165,3.244l-1.459,5.064l4.949,1.804l0.183,5.261l5.27,0.18
			l1.799,4.962l5.067-1.468l3.243,4.163l4.366-2.949l4.365,2.949l3.237-4.163l5.068,1.468l1.799-4.962l5.271-0.18l0.181-5.261
			l4.953-1.797l-1.467-5.069l4.162-3.246L121.33,56.153z M98.145,73.333v2.071c0,0.895-0.425,1.411-1.411,1.411
			c-1.081,0-1.411-0.517-1.411-1.411v-2.071c-3.105-0.186-10.631-1.033-10.631-5.455c0-1.976,1.456-3.904,3.385-3.904
			c1.647,0,3.999,2.023,7.246,2.023v-7.292c-7.903-2.304-10.49-5.221-10.49-9.548c0-6.304,4.798-10.303,10.49-10.82v-2.164
			c0-0.894,0.422-1.411,1.411-1.411c1.079,0,1.411,0.518,1.411,1.411v2.164c2.964,0.095,8.326,1.035,8.326,4.985
			c0,1.787-1.223,3.529-3.153,3.529c-1.741,0-3.2-1.742-5.173-1.742v6.633c5.36,1.506,10.632,4.001,10.632,10.491
			C108.776,69.571,102.707,73.053,98.145,73.333z"/>
	</g>
</g>
</svg>
