<?xml version="1.0" encoding="utf-8"?>
<!-- Generator: Adobe Illustrator 16.0.0, SVG Export Plug-In . SVG Version: 6.00 Build 0)  -->
<!DOCTYPE svg PUBLIC "-//W3C//DTD SVG 1.1//EN" "http://www.w3.org/Graphics/SVG/1.1/DTD/svg11.dtd">
<svg version="1.1" id="Capa_1" xmlns="http://www.w3.org/2000/svg" xmlns:xlink="http://www.w3.org/1999/xlink" x="0px" y="0px"
	 width="189.235px" height="189.233px" viewBox="0 0 189.235 189.233" enable-background="new 0 0 189.235 189.233"
	 xml:space="preserve">
<circle fill="#EAEBEC" cx="94.938" cy="94.616" r="94.618"/>
<g>
	<g>
		<path fill="#EAEBEC" d="M60.88,116.593h-2.317c-0.436,0-0.749-0.227-0.749-0.714c0-0.488,0.313-0.715,0.749-0.715h6.169
			c0.436,0,0.749,0.227,0.749,0.715c0,0.487-0.313,0.714-0.749,0.714h-2.318v10.264c0,0.506-0.296,0.819-0.767,0.819
			c-0.47,0-0.767-0.313-0.767-0.819V116.593z"/>
		<path fill="#EAEBEC" d="M68.389,126.143h3.694c0.436,0,0.749,0.227,0.749,0.714c0,0.488-0.313,0.715-0.749,0.715h-4.408
			c-0.575,0-0.819-0.366-0.819-0.837v-10.733c0-0.471,0.244-0.837,0.819-0.837h4.408c0.436,0,0.749,0.227,0.749,0.715
			c0,0.487-0.313,0.714-0.749,0.714h-3.694v4.061h3.363c0.436,0,0.749,0.227,0.749,0.715c0,0.487-0.313,0.714-0.749,0.714h-3.363
			V126.143z"/>
		<path fill="#EAEBEC" d="M76.455,126.856c0,0.506-0.296,0.819-0.767,0.819s-0.767-0.313-0.767-0.819v-10.855
			c0-0.471,0.244-0.837,0.819-0.837h2.84c1.952,0,3.799,1.324,3.799,3.346c0,2.51-1.533,3.45-3.381,3.521l-0.662,0.018l3.956,4.339
			c0.209,0.227,0.296,0.418,0.296,0.696c0,0.331-0.313,0.593-0.697,0.593c-0.313,0-0.522-0.157-0.696-0.349l-4.74-5.192V126.856z
			 M76.455,120.897h2.091c1.604,0,2.301-0.68,2.301-2.283c0-1.149-0.906-2.126-2.335-2.126h-2.057V120.897z"/>
		<path fill="#EAEBEC" d="M85.323,127.014c-0.07,0.54-0.419,0.662-0.819,0.662c-0.471,0-0.715-0.313-0.715-0.784
			c0-0.174,0.035-0.4,0.088-0.697l1.69-9.967c0.156-0.871,0.645-1.168,1.202-1.168c0.609,0,0.94,0.227,1.115,0.802l2.648,9.079
			h0.035l2.648-9.079c0.174-0.575,0.505-0.802,1.115-0.802c0.558,0,1.046,0.297,1.202,1.168l1.69,9.967
			c0.053,0.297,0.087,0.523,0.087,0.697c0,0.471-0.244,0.784-0.714,0.784c-0.401,0-0.75-0.122-0.819-0.662l-1.446-9.968h-0.035
			l-2.962,10.003c-0.157,0.505-0.436,0.627-0.784,0.627s-0.628-0.122-0.784-0.627l-2.963-10.003H86.77L85.323,127.014z"/>
		<path fill="#EAEBEC" d="M100.69,126.856c0,0.506-0.296,0.819-0.767,0.819s-0.767-0.313-0.767-0.819v-10.978
			c0-0.506,0.296-0.819,0.767-0.819s0.767,0.313,0.767,0.819V126.856z"/>
		<path fill="#EAEBEC" d="M104.575,126.856c0,0.506-0.296,0.819-0.767,0.819s-0.767-0.313-0.767-0.819v-10.891
			c0-0.609,0.209-0.906,0.697-0.906c0.453,0,0.662,0.191,1.08,0.802l6.273,9.009h0.034v-8.991c0-0.506,0.297-0.819,0.768-0.819
			c0.47,0,0.767,0.313,0.767,0.819v10.891c0,0.61-0.209,0.906-0.697,0.906c-0.453,0-0.662-0.191-1.08-0.802l-6.273-9.009h-0.035
			V126.856z"/>
		<path fill="#EAEBEC" d="M115.656,127.101c-0.122,0.331-0.331,0.575-0.749,0.575c-0.401,0-0.732-0.244-0.732-0.645
			c0-0.209,0.157-0.61,0.21-0.767l3.851-10.264c0.191-0.54,0.505-0.941,1.098-0.941s0.906,0.401,1.098,0.941l3.852,10.264
			c0.052,0.156,0.209,0.558,0.209,0.767c0,0.4-0.331,0.645-0.731,0.645c-0.419,0-0.628-0.244-0.75-0.575l-0.802-2.23h-5.75
			L115.656,127.101z M119.351,116.837h-0.035l-2.387,6.709h4.81L119.351,116.837z"/>
		<path fill="#EAEBEC" d="M127.538,126.143h3.276c0.436,0,0.749,0.227,0.749,0.714c0,0.488-0.313,0.715-0.749,0.715h-3.99
			c-0.575,0-0.819-0.366-0.819-0.837v-10.855c0-0.506,0.296-0.819,0.767-0.819s0.767,0.313,0.767,0.819V126.143z"/>
		<path fill="#EAEBEC" d="M68.059,146.037c-0.07,0.54-0.419,0.662-0.819,0.662c-0.471,0-0.715-0.313-0.715-0.784
			c0-0.174,0.035-0.4,0.088-0.697l1.69-9.967c0.156-0.871,0.645-1.168,1.202-1.168c0.609,0,0.94,0.227,1.115,0.802l2.648,9.079
			h0.035l2.648-9.079c0.174-0.575,0.505-0.802,1.115-0.802c0.558,0,1.046,0.297,1.202,1.168l1.69,9.967
			c0.053,0.297,0.087,0.523,0.087,0.697c0,0.471-0.244,0.784-0.714,0.784c-0.401,0-0.75-0.122-0.819-0.662l-1.446-9.968h-0.035
			l-2.962,10.003c-0.157,0.505-0.436,0.627-0.784,0.627s-0.628-0.122-0.784-0.627l-2.963-10.003h-0.034L68.059,146.037z"/>
		<path fill="#EAEBEC" d="M82.536,146.124c-0.122,0.331-0.331,0.575-0.749,0.575c-0.401,0-0.732-0.244-0.732-0.645
			c0-0.209,0.157-0.61,0.21-0.767l3.851-10.264c0.191-0.54,0.506-0.941,1.098-0.941c0.593,0,0.906,0.401,1.098,0.941l3.852,10.264
			c0.052,0.156,0.209,0.558,0.209,0.767c0,0.4-0.331,0.645-0.732,0.645c-0.418,0-0.627-0.244-0.749-0.575l-0.802-2.23h-5.75
			L82.536,146.124z M86.23,135.86h-0.035l-2.387,6.709h4.81L86.23,135.86z"/>
		<path fill="#EAEBEC" d="M94.419,145.88c0,0.506-0.296,0.819-0.767,0.819s-0.767-0.313-0.767-0.819v-10.978
			c0-0.506,0.296-0.819,0.767-0.819s0.767,0.313,0.767,0.819v4.53l5.315-4.861c0.278-0.262,0.522-0.488,0.836-0.488
			c0.384,0,0.662,0.262,0.662,0.662c0,0.401-0.14,0.54-0.313,0.697l-5.088,4.583l5.559,5.367c0.243,0.227,0.313,0.4,0.313,0.627
			c0,0.366-0.331,0.68-0.749,0.68c-0.227,0-0.437-0.035-0.75-0.331l-5.785-5.681V145.88z"/>
		<path fill="#EAEBEC" d="M104.75,145.88c0,0.506-0.296,0.819-0.767,0.819s-0.767-0.313-0.767-0.819v-10.855
			c0-0.471,0.244-0.837,0.819-0.837h2.84c1.952,0,3.799,1.324,3.799,3.346c0,2.51-1.533,3.45-3.381,3.521l-0.662,0.018l3.956,4.339
			c0.209,0.227,0.296,0.418,0.296,0.696c0,0.331-0.313,0.593-0.697,0.593c-0.313,0-0.522-0.157-0.696-0.349l-4.74-5.192V145.88z
			 M104.75,139.921h2.091c1.604,0,2.301-0.68,2.301-2.283c0-1.149-0.906-2.126-2.335-2.126h-2.057V139.921z"/>
		<path fill="#EAEBEC" d="M117.557,134.083c3.538,0,5.438,3.085,5.438,6.309s-1.899,6.308-5.438,6.308
			c-3.537,0-5.437-3.084-5.437-6.308S114.02,134.083,117.557,134.083z M117.557,145.375c2.788,0,3.799-2.614,3.799-4.983
			c0-2.37-1.011-4.984-3.799-4.984s-3.799,2.614-3.799,4.984C113.758,142.761,114.769,145.375,117.557,145.375z"/>
	</g>
	<g>
		<path fill="#59595C" d="M60.88,116.593h-2.317c-0.436,0-0.749-0.227-0.749-0.714c0-0.488,0.313-0.715,0.749-0.715h6.169
			c0.436,0,0.749,0.227,0.749,0.715c0,0.487-0.313,0.714-0.749,0.714h-2.318v10.264c0,0.506-0.296,0.819-0.767,0.819
			c-0.47,0-0.767-0.313-0.767-0.819V116.593z"/>
		<path fill="#59595C" d="M68.389,126.143h3.694c0.436,0,0.749,0.227,0.749,0.714c0,0.488-0.313,0.715-0.749,0.715h-4.408
			c-0.575,0-0.819-0.366-0.819-0.837v-10.733c0-0.471,0.244-0.837,0.819-0.837h4.408c0.436,0,0.749,0.227,0.749,0.715
			c0,0.487-0.313,0.714-0.749,0.714h-3.694v4.061h3.363c0.436,0,0.749,0.227,0.749,0.715c0,0.487-0.313,0.714-0.749,0.714h-3.363
			V126.143z"/>
		<path fill="#59595C" d="M76.455,126.856c0,0.506-0.296,0.819-0.767,0.819s-0.767-0.313-0.767-0.819v-10.855
			c0-0.471,0.244-0.837,0.819-0.837h2.84c1.952,0,3.799,1.324,3.799,3.346c0,2.51-1.533,3.45-3.381,3.521l-0.662,0.018l3.956,4.339
			c0.209,0.227,0.296,0.418,0.296,0.696c0,0.331-0.313,0.593-0.697,0.593c-0.313,0-0.522-0.157-0.696-0.349l-4.74-5.192V126.856z
			 M76.455,120.897h2.091c1.604,0,2.301-0.68,2.301-2.283c0-1.149-0.906-2.126-2.335-2.126h-2.057V120.897z"/>
		<path fill="#59595C" d="M85.323,127.014c-0.07,0.54-0.419,0.662-0.819,0.662c-0.471,0-0.715-0.313-0.715-0.784
			c0-0.174,0.035-0.4,0.088-0.697l1.69-9.967c0.156-0.871,0.645-1.168,1.202-1.168c0.609,0,0.94,0.227,1.115,0.802l2.648,9.079
			h0.035l2.648-9.079c0.174-0.575,0.505-0.802,1.115-0.802c0.558,0,1.046,0.297,1.202,1.168l1.69,9.967
			c0.053,0.297,0.087,0.523,0.087,0.697c0,0.471-0.244,0.784-0.714,0.784c-0.401,0-0.75-0.122-0.819-0.662l-1.446-9.968h-0.035
			l-2.962,10.003c-0.157,0.505-0.436,0.627-0.784,0.627s-0.628-0.122-0.784-0.627l-2.963-10.003H86.77L85.323,127.014z"/>
		<path fill="#59595C" d="M100.69,126.856c0,0.506-0.296,0.819-0.767,0.819s-0.767-0.313-0.767-0.819v-10.978
			c0-0.506,0.296-0.819,0.767-0.819s0.767,0.313,0.767,0.819V126.856z"/>
		<path fill="#59595C" d="M104.575,126.856c0,0.506-0.296,0.819-0.767,0.819s-0.767-0.313-0.767-0.819v-10.891
			c0-0.609,0.209-0.906,0.697-0.906c0.453,0,0.662,0.191,1.08,0.802l6.273,9.009h0.034v-8.991c0-0.506,0.297-0.819,0.768-0.819
			c0.47,0,0.767,0.313,0.767,0.819v10.891c0,0.61-0.209,0.906-0.697,0.906c-0.453,0-0.662-0.191-1.08-0.802l-6.273-9.009h-0.035
			V126.856z"/>
		<path fill="#59595C" d="M115.656,127.101c-0.122,0.331-0.331,0.575-0.749,0.575c-0.401,0-0.732-0.244-0.732-0.645
			c0-0.209,0.157-0.61,0.21-0.767l3.851-10.264c0.191-0.54,0.505-0.941,1.098-0.941s0.906,0.401,1.098,0.941l3.852,10.264
			c0.052,0.156,0.209,0.558,0.209,0.767c0,0.4-0.331,0.645-0.731,0.645c-0.419,0-0.628-0.244-0.75-0.575l-0.802-2.23h-5.75
			L115.656,127.101z M119.351,116.837h-0.035l-2.387,6.709h4.81L119.351,116.837z"/>
		<path fill="#59595C" d="M127.538,126.143h3.276c0.436,0,0.749,0.227,0.749,0.714c0,0.488-0.313,0.715-0.749,0.715h-3.99
			c-0.575,0-0.819-0.366-0.819-0.837v-10.855c0-0.506,0.296-0.819,0.767-0.819s0.767,0.313,0.767,0.819V126.143z"/>
		<path fill="#59595C" d="M68.059,146.037c-0.07,0.54-0.419,0.662-0.819,0.662c-0.471,0-0.715-0.313-0.715-0.784
			c0-0.174,0.035-0.4,0.088-0.697l1.69-9.967c0.156-0.871,0.645-1.168,1.202-1.168c0.609,0,0.94,0.227,1.115,0.802l2.648,9.079
			h0.035l2.648-9.079c0.174-0.575,0.505-0.802,1.115-0.802c0.558,0,1.046,0.297,1.202,1.168l1.69,9.967
			c0.053,0.297,0.087,0.523,0.087,0.697c0,0.471-0.244,0.784-0.714,0.784c-0.401,0-0.75-0.122-0.819-0.662l-1.446-9.968h-0.035
			l-2.962,10.003c-0.157,0.505-0.436,0.627-0.784,0.627s-0.628-0.122-0.784-0.627l-2.963-10.003h-0.034L68.059,146.037z"/>
		<path fill="#59595C" d="M82.536,146.124c-0.122,0.331-0.331,0.575-0.749,0.575c-0.401,0-0.732-0.244-0.732-0.645
			c0-0.209,0.157-0.61,0.21-0.767l3.851-10.264c0.191-0.54,0.506-0.941,1.098-0.941c0.593,0,0.906,0.401,1.098,0.941l3.852,10.264
			c0.052,0.156,0.209,0.558,0.209,0.767c0,0.4-0.331,0.645-0.732,0.645c-0.418,0-0.627-0.244-0.749-0.575l-0.802-2.23h-5.75
			L82.536,146.124z M86.23,135.86h-0.035l-2.387,6.709h4.81L86.23,135.86z"/>
		<path fill="#59595C" d="M94.419,145.88c0,0.506-0.296,0.819-0.767,0.819s-0.767-0.313-0.767-0.819v-10.978
			c0-0.506,0.296-0.819,0.767-0.819s0.767,0.313,0.767,0.819v4.53l5.315-4.861c0.278-0.262,0.522-0.488,0.836-0.488
			c0.384,0,0.662,0.262,0.662,0.662c0,0.401-0.14,0.54-0.313,0.697l-5.088,4.583l5.559,5.367c0.243,0.227,0.313,0.4,0.313,0.627
			c0,0.366-0.331,0.68-0.749,0.68c-0.227,0-0.437-0.035-0.75-0.331l-5.785-5.681V145.88z"/>
		<path fill="#59595C" d="M104.75,145.88c0,0.506-0.296,0.819-0.767,0.819s-0.767-0.313-0.767-0.819v-10.855
			c0-0.471,0.244-0.837,0.819-0.837h2.84c1.952,0,3.799,1.324,3.799,3.346c0,2.51-1.533,3.45-3.381,3.521l-0.662,0.018l3.956,4.339
			c0.209,0.227,0.296,0.418,0.296,0.696c0,0.331-0.313,0.593-0.697,0.593c-0.313,0-0.522-0.157-0.696-0.349l-4.74-5.192V145.88z
			 M104.75,139.921h2.091c1.604,0,2.301-0.68,2.301-2.283c0-1.149-0.906-2.126-2.335-2.126h-2.057V139.921z"/>
		<path fill="#59595C" d="M117.557,134.083c3.538,0,5.438,3.085,5.438,6.309s-1.899,6.308-5.438,6.308
			c-3.537,0-5.437-3.084-5.437-6.308S114.02,134.083,117.557,134.083z M117.557,145.375c2.788,0,3.799-2.614,3.799-4.983
			c0-2.37-1.011-4.984-3.799-4.984s-3.799,2.614-3.799,4.984C113.758,142.761,114.769,145.375,117.557,145.375z"/>
	</g>
</g>
<g>
	<g>
		<g>
			<g>
				<path fill="#AE1F24" d="M83.307,50.713c-1.304-1.877-3.82-2.556-5.898-1.471l-32.37,16.879
					c-2.036,1.067-2.932,3.437-2.214,5.558L83.307,50.713z"/>
				<path fill="#AE1F24" d="M92.294,67.839l-6.088-11.68l-40.59,21.017l6.153,11.798c1.177,2.254,3.948,3.129,6.21,1.952
					l32.364-16.877C92.59,72.873,93.471,70.098,92.294,67.839z"/>
			</g>
			<g>
				<path fill="#AE1F24" d="M106.139,35.73h0.006l0.104,0.002c0.172,0,17.339,0.09,21.922,0.195
					c3.053,0.065,3.524,0.558,5.278,2.389c0.48,0.51,0.964,2.624,0.976,4.249c0,15.526-0.021,45.523-0.098,47.934
					c-0.08,2.479-0.192,3.429-1.861,5.28c-0.934,1.042-3.124,1.458-4.085,1.504h-22.399l-0.225,0.002h-0.226
					c-1.363,0-2.792-0.31-4.001-2.568l-0.065-0.117c-2.493-4.639-4.461-8.304-4.564-30.932c-0.054-14.354,2.303-24.273,6.458-27.217
					C104.091,35.933,105.439,35.735,106.139,35.73 M106.166,31.177c-0.572,0-3.353,0.08-5.439,1.559
					c-2.333,1.651-8.468,7-8.379,30.949c0.109,23.945,2.347,27.939,5.169,33.187c2.531,4.729,6.411,4.97,8.015,4.97
					c0.181,0,0.332-0.003,0.45-0.003c1.168,0,22.482,0,22.482,0s4.77-0.094,7.396-3.021c2.629-2.915,2.92-5.059,3.021-8.174
					c0.098-3.118,0.098-48.078,0.098-48.078s0-5.061-2.241-7.399c-2.231-2.333-3.791-3.691-8.468-3.792
					c-4.672-0.105-21.996-0.196-21.996-0.196S106.233,31.177,106.166,31.177L106.166,31.177z"/>
			</g>
		</g>
		<rect x="100.059" y="33.878" fill="#AE1F24" width="6" height="46"/>
		<path fill="#AE1F24" d="M106.895,54.517c0,0.893,0.727,1.618,1.628,1.618h23.517c0.889,0,1.621-0.726,1.621-1.618V44.108
			c0-0.902-0.732-1.624-1.621-1.624h-23.517c-0.901,0-1.628,0.722-1.628,1.624V54.517z"/>
		<path fill="#AE1F24" d="M126.914,67.945c0,0.827,0.661,1.492,1.494,1.492h3.855c0.821,0,1.494-0.665,1.494-1.492v-3.68
			c0-0.818-0.673-1.495-1.494-1.495h-3.855c-0.833,0-1.494,0.677-1.494,1.495V67.945z"/>
		<path fill="#AE1F24" d="M116.89,67.945c0,0.827,0.667,1.492,1.488,1.492h3.87c0.818,0,1.482-0.665,1.482-1.492v-3.68
			c0-0.818-0.664-1.495-1.482-1.495h-3.87c-0.821,0-1.488,0.677-1.488,1.495V67.945z"/>
		<path fill="#AE1F24" d="M106.874,67.945c0,0.827,0.67,1.492,1.5,1.492h3.856c0.82,0,1.49-0.665,1.49-1.492v-3.68
			c0-0.818-0.67-1.495-1.49-1.495h-3.856c-0.83,0-1.5,0.677-1.5,1.495V67.945z"/>
		<path fill="#AE1F24" d="M126.914,77.967c0,0.824,0.661,1.486,1.494,1.486h3.855c0.821,0,1.494-0.662,1.494-1.486v-3.682
			c0-0.825-0.673-1.492-1.494-1.492h-3.855c-0.833,0-1.494,0.667-1.494,1.492V77.967z"/>
		<path fill="#AE1F24" d="M116.89,77.967c0,0.824,0.667,1.486,1.488,1.486h3.87c0.818,0,1.482-0.662,1.482-1.486v-3.682
			c0-0.825-0.664-1.492-1.482-1.492h-3.87c-0.821,0-1.488,0.667-1.488,1.492V77.967z"/>
		<path fill="#AE1F24" d="M106.874,77.967c0,0.824,0.67,1.486,1.5,1.486h3.856c0.82,0,1.49-0.662,1.49-1.486v-3.682
			c0-0.825-0.67-1.492-1.49-1.492h-3.856c-0.83,0-1.5,0.667-1.5,1.492V77.967z"/>
		<path fill="#AE1F24" d="M126.914,88.086c0,0.822,0.661,1.489,1.494,1.489h3.855c0.821,0,1.494-0.667,1.494-1.489V84.41
			c0-0.826-0.673-1.495-1.494-1.495h-3.855c-0.833,0-1.494,0.669-1.494,1.495V88.086z"/>
		<path fill="#AE1F24" d="M116.89,88.086c0,0.822,0.667,1.489,1.488,1.489h3.87c0.818,0,1.482-0.667,1.482-1.489V84.41
			c0-0.826-0.664-1.495-1.482-1.495h-3.87c-0.821,0-1.488,0.669-1.488,1.495V88.086z"/>
		<path fill="#AE1F24" d="M106.874,88.086c0,0.822,0.67,1.489,1.5,1.489h3.856c0.82,0,1.49-0.667,1.49-1.489V84.41
			c0-0.826-0.67-1.495-1.49-1.495h-3.856c-0.83,0-1.5,0.669-1.5,1.495V88.086z"/>
	</g>
</g>
</svg>
