<?xml version="1.0" encoding="utf-8"?>
<!-- Generator: Adobe Illustrator 16.0.0, SVG Export Plug-In . SVG Version: 6.00 Build 0)  -->
<!DOCTYPE svg PUBLIC "-//W3C//DTD SVG 1.1//EN" "http://www.w3.org/Graphics/SVG/1.1/DTD/svg11.dtd">
<svg version="1.1" id="Capa_1" xmlns="http://www.w3.org/2000/svg" xmlns:xlink="http://www.w3.org/1999/xlink" x="0px" y="0px"
	 width="84.584px" height="66.187px" viewBox="0 0 84.584 66.187" enable-background="new 0 0 84.584 66.187" xml:space="preserve">
<g>
	<g>
		<path fill-rule="evenodd" clip-rule="evenodd" fill="#D61921" d="M7.65,51.473v-0.024V25.618c0-0.601,0.484-1.084,1.071-1.084
			h0.033h53.859c0.592,0,1.073,0.483,1.073,1.084v0.027v25.828c0,0.598-0.481,1.084-1.073,1.084h-0.035H8.721
			C8.134,52.557,7.65,52.071,7.65,51.473L7.65,51.473z M9.801,26.692v23.709h51.732V26.692H9.801z"/>
		<path fill-rule="evenodd" clip-rule="evenodd" fill="#D61921" d="M13.042,22.38c-0.598,0-1.082-0.481-1.082-1.077
			s0.484-1.08,1.082-1.08h53.882c0.595,0,1.079,0.484,1.079,1.08v0.027v25.834c0,0.591-0.484,1.074-1.079,1.074
			c-0.591,0-1.075-0.483-1.075-1.074V22.38H13.042z"/>
		<path fill-rule="evenodd" clip-rule="evenodd" fill="#D61921" d="M17.354,18.069c-0.596,0-1.081-0.486-1.081-1.078
			c0-0.594,0.485-1.074,1.081-1.074h53.881c0.592,0,1.074,0.48,1.074,1.074v0.025V42.85c0,0.597-0.482,1.08-1.074,1.08
			c-0.596,0-1.078-0.483-1.078-1.08V18.069H17.354z"/>
		<path fill-rule="evenodd" clip-rule="evenodd" fill="#D61921" d="M21.663,13.756c-0.594,0-1.08-0.482-1.08-1.082
			c0-0.592,0.486-1.076,1.08-1.076h53.889c0.59,0,1.077,0.484,1.077,1.076L76.62,12.79l-0.003,25.762
			c0,0.586-0.485,1.065-1.077,1.065s-1.07-0.479-1.07-1.065l0.01-24.795H21.663z"/>
		<path fill-rule="evenodd" clip-rule="evenodd" fill="#D61921" d="M17.348,41.784c-0.893,0-1.707-0.369-2.289-0.952
			c-0.581-0.58-0.946-1.392-0.946-2.28c0-0.896,0.365-1.703,0.946-2.29c0.582-0.58,1.394-0.944,2.289-0.944
			c0.887,0,1.693,0.364,2.277,0.944l0.008,0.001l0.025,0.033l0.012,0.012c0.562,0.577,0.91,1.373,0.91,2.244
			c0,0.889-0.363,1.7-0.947,2.28l-0.083,0.079C18.972,41.448,18.199,41.784,17.348,41.784L17.348,41.784z M16.584,39.307
			c0.189,0.193,0.469,0.315,0.764,0.315c0.279,0,0.526-0.101,0.721-0.268l0.045-0.048c0.191-0.189,0.311-0.463,0.311-0.756
			c0-0.303-0.119-0.577-0.307-0.768h-0.004c-0.195-0.195-0.469-0.314-0.766-0.314c-0.295,0-0.574,0.121-0.764,0.314
			c-0.191,0.197-0.314,0.465-0.314,0.768C16.27,38.844,16.393,39.118,16.584,39.307z"/>
		<path fill-rule="evenodd" clip-rule="evenodd" fill="#D61921" d="M53.988,41.78c-0.884,0-1.697-0.365-2.278-0.953l0,0h-0.005
			c-0.585-0.581-0.947-1.389-0.947-2.275c0-0.896,0.362-1.703,0.947-2.29h0.005l0.027-0.028l0.012-0.012
			c0.582-0.56,1.377-0.912,2.239-0.912c0.894,0,1.699,0.367,2.286,0.952l0,0l0.035,0.03l0.005,0.01
			c0.562,0.583,0.909,1.373,0.909,2.25c0,0.887-0.363,1.694-0.949,2.275l-0.084,0.08C55.611,41.448,54.838,41.78,53.988,41.78
			L53.988,41.78z M53.231,39.307c0.191,0.193,0.46,0.315,0.757,0.315c0.284,0,0.538-0.101,0.728-0.272l0.033-0.043
			c0.197-0.194,0.317-0.467,0.317-0.756c0-0.305-0.114-0.577-0.305-0.768l-0.013-0.006c-0.189-0.195-0.457-0.314-0.761-0.314
			c-0.297,0-0.564,0.119-0.757,0.314l-0.009,0.006c-0.187,0.19-0.311,0.463-0.311,0.768C52.912,38.84,53.038,39.113,53.231,39.307
			L53.231,39.307z"/>
		<path fill-rule="evenodd" clip-rule="evenodd" fill="#D61921" d="M53.767,25.618c0-0.601,0.487-1.084,1.078-1.084
			c0.597,0,1.081,0.483,1.081,1.084c0,1.843,0.746,3.51,1.949,4.725c1.213,1.206,2.886,1.953,4.732,1.953
			c0.594,0,1.074,0.487,1.074,1.082c0,0.588-0.48,1.07-1.074,1.07c-2.441,0-4.646-0.987-6.25-2.586v-0.006
			C54.761,30.254,53.767,28.053,53.767,25.618z"/>
		<path fill-rule="evenodd" clip-rule="evenodd" fill="#D61921" d="M15.407,25.618c0-0.601,0.482-1.084,1.078-1.084
			c0.595,0,1.08,0.483,1.08,1.084c0,2.432-0.992,4.633-2.591,6.238l-0.005,0.006c-1.604,1.599-3.814,2.586-6.248,2.586
			c-0.587,0-1.071-0.482-1.071-1.07c0-0.595,0.484-1.082,1.071-1.082c1.854,0,3.521-0.747,4.729-1.953l0.008-0.006
			C14.664,29.127,15.407,27.46,15.407,25.618z"/>
		<path fill-rule="evenodd" clip-rule="evenodd" fill="#D61921" d="M55.926,51.473c0,0.598-0.484,1.084-1.081,1.084
			c-0.591,0-1.078-0.486-1.078-1.084c0-2.427,0.994-4.636,2.591-6.236l0.005-0.008c1.602-1.596,3.808-2.584,6.245-2.584
			c0.594,0,1.074,0.482,1.074,1.071c0,0.595-0.48,1.083-1.074,1.083c-1.855,0-3.52,0.748-4.727,1.949l-0.006,0.008
			C56.672,47.956,55.926,49.635,55.926,51.473z"/>
		<path fill-rule="evenodd" clip-rule="evenodd" fill="#D61921" d="M17.565,51.473c0,0.598-0.485,1.084-1.08,1.084
			c-0.596,0-1.078-0.486-1.078-1.084c0-1.838-0.743-3.518-1.949-4.717l-0.008-0.008c-1.207-1.201-2.875-1.949-4.729-1.949
			c-0.587,0-1.071-0.488-1.071-1.083c0-0.589,0.484-1.071,1.071-1.071c2.434,0,4.645,0.988,6.248,2.584l0.005,0.008
			C16.573,46.837,17.565,49.046,17.565,51.473z"/>
		<path fill-rule="evenodd" clip-rule="evenodd" fill="#D61921" d="M35.667,31.545c-0.816,0-1.559,0.327-2.094,0.863l-0.049,0.051
			c-0.506,0.529-0.822,1.254-0.822,2.047c0,0.818,0.337,1.561,0.867,2.094h0.004l0,0c0.535,0.538,1.277,0.863,2.094,0.863
			c0.822,0,1.566-0.325,2.096-0.861L37.77,36.6c0.528-0.533,0.861-1.275,0.861-2.094c0-0.819-0.333-1.563-0.869-2.098l-0.05-0.053
			C37.187,31.854,36.467,31.545,35.667,31.545L35.667,31.545z M32.051,30.887c0.925-0.932,2.203-1.498,3.615-1.498
			c1.377,0,2.632,0.545,3.557,1.435l0.066,0.063c0.926,0.922,1.498,2.205,1.498,3.619c0,1.403-0.572,2.684-1.498,3.609l-0.006,0.011
			c-0.928,0.924-2.207,1.496-3.617,1.496c-1.416,0-2.69-0.572-3.615-1.496v-0.005c-0.928-0.932-1.5-2.205-1.5-3.615
			c0-1.378,0.545-2.627,1.431-3.553L32.051,30.887z"/>
		<path fill-rule="evenodd" clip-rule="evenodd" fill="#D61921" d="M30.411,41.999c-0.207,0.24-0.398,0.492-0.58,0.754l-0.041,0.064
			c-0.219,0.332-0.408,0.686-0.564,1.047c0.723,0.874,1.625,1.596,2.633,2.119c1.139,0.585,2.434,0.912,3.809,0.912
			c1.377,0,2.67-0.327,3.813-0.912c1.014-0.523,1.909-1.245,2.632-2.111c-0.169-0.395-0.375-0.771-0.603-1.12v0.001
			c-0.187-0.262-0.373-0.514-0.581-0.754c-0.623,0.438-1.304,0.803-2.021,1.077c-1.012,0.379-2.111,0.591-3.24,0.591
			c-1.133,0-2.223-0.212-3.234-0.591C31.711,42.801,31.036,42.436,30.411,41.999L30.411,41.999z M28.036,41.561
			c0.436-0.65,0.958-1.246,1.549-1.773c0.395-0.379,1.027-0.399,1.453-0.023c0.621,0.551,1.358,0.994,2.153,1.297
			c0.761,0.291,1.602,0.447,2.476,0.447c0.878,0,1.715-0.156,2.475-0.447c0.792-0.297,1.521-0.739,2.146-1.285
			c0.395-0.367,1.021-0.38,1.438-0.012c0.6,0.527,1.135,1.135,1.571,1.793v0.004l0,0c0.436,0.658,0.792,1.377,1.054,2.136v0.007
			c0.106,0.317,0.061,0.678-0.148,0.973c-0.973,1.346-2.259,2.458-3.746,3.216c-1.439,0.74-3.068,1.16-4.789,1.16
			c-1.715,0-3.344-0.42-4.783-1.16c-1.489-0.758-2.775-1.87-3.742-3.216c-0.195-0.273-0.264-0.637-0.149-0.973
			c0.245-0.736,0.591-1.439,1.007-2.074L28.036,41.561z"/>
	</g>
</g>
</svg>
