<?xml version="1.0" encoding="utf-8"?>
<!-- Generator: Adobe Illustrator 16.0.0, SVG Export Plug-In . SVG Version: 6.00 Build 0)  -->
<!DOCTYPE svg PUBLIC "-//W3C//DTD SVG 1.1//EN" "http://www.w3.org/Graphics/SVG/1.1/DTD/svg11.dtd">
<svg version="1.1" id="Capa_1" xmlns="http://www.w3.org/2000/svg" xmlns:xlink="http://www.w3.org/1999/xlink" x="0px" y="0px"
	 width="84.584px" height="66.187px" viewBox="0 0 84.584 66.187" enable-background="new 0 0 84.584 66.187" xml:space="preserve">
<g>
	<g>
		<path fill="#D61921" d="M46.542,64.651l-4.965-3.366L36.6,64.651l-3.688-4.74l-5.765,1.667l-2.048-5.646l-5.996-0.204
			l-0.205-5.994l-5.637-2.045l1.659-5.768l-4.739-3.691l3.363-4.969l-3.363-4.968l4.739-3.695l-1.664-5.764l5.642-2.044l0.205-6
			l5.996-0.204l2.048-5.644l5.765,1.665L36.6,1.88l4.978,3.357l4.965-3.357l3.69,4.729l5.769-1.665l2.041,5.644l6,0.204l0.203,6
			l5.645,2.044l-1.669,5.764l4.735,3.695l-3.359,4.968l3.359,4.969l-4.735,3.689l1.665,5.77l-5.641,2.045l-0.203,5.994l-6,0.204
			l-2.041,5.646l-5.769-1.667L46.542,64.651z M34.101,56.25l3.184,4.09l4.293-2.904l4.284,2.904l3.183-4.09l4.975,1.437l1.763-4.864
			l5.176-0.179l0.176-5.171l4.865-1.764l-1.436-4.975l4.082-3.188l-2.897-4.285l2.897-4.287l-4.082-3.188l1.436-4.974l-4.865-1.762
			l-0.176-5.177l-5.176-0.178l-1.763-4.864l-4.975,1.434l-3.183-4.081L41.577,9.08l-4.293-2.895l-3.186,4.081l-4.976-1.434
			l-1.76,4.864l-5.18,0.178l-0.176,5.177l-4.862,1.762l1.432,4.977l-4.087,3.185l2.901,4.287l-2.901,4.285l4.087,3.182l-1.432,4.979
			l4.862,1.766l0.176,5.171l5.18,0.179l1.76,4.864L34.101,56.25z"/>
	</g>
	<g>
		<path fill="#D61921" d="M32.476,33.699c1.304,0.105,2.009,0.987,2.009,2.254c0,1.199-0.705,2.081-2.009,2.188h-7.505
			c-1.306-0.106-2.014-0.988-2.014-2.188c0-1.267,0.708-2.148,2.014-2.254H32.476z"/>
		<path fill="#D61921" d="M33.146,26.334c0-3.07,2.288-5.713,5.427-5.713s5.426,2.643,5.426,5.713c0,3.065-2.287,5.674-5.426,5.674
			S33.146,29.399,33.146,26.334z M40.405,26.334c0-1.13-0.673-2.114-1.832-2.114c-1.164,0-1.834,0.984-1.834,2.114
			c0,1.125,0.67,2.078,1.834,2.078C39.732,28.412,40.405,27.459,40.405,26.334z M48.97,21.541c0.457-0.886,0.809-1.13,1.621-1.13
			c1.096,0,2.082,0.882,2.082,1.973c0,0.283,0,0.529-0.284,1.058L40.547,45.612c-0.527,0.739-0.741,1.163-1.589,1.163
			c-0.917,0-2.009-0.882-2.009-1.938c0-0.527,0.215-1.024,0.354-1.306L48.97,21.541z M45.55,40.889c0-3.065,2.29-5.71,5.431-5.71
			c3.135,0,5.426,2.645,5.426,5.71c0,3.068-2.291,5.674-5.426,5.674C47.84,46.562,45.55,43.957,45.55,40.889z M52.811,40.889
			c0-1.127-0.671-2.113-1.83-2.113c-1.165,0-1.837,0.986-1.837,2.113c0,1.129,0.672,2.08,1.837,2.08
			C52.14,42.969,52.811,42.018,52.811,40.889z"/>
	</g>
</g>
</svg>
