<?xml version="1.0" encoding="utf-8"?>
<!-- Generator: Adobe Illustrator 16.0.0, SVG Export Plug-In . SVG Version: 6.00 Build 0)  -->
<!DOCTYPE svg PUBLIC "-//W3C//DTD SVG 1.1//EN" "http://www.w3.org/Graphics/SVG/1.1/DTD/svg11.dtd">
<svg version="1.1" id="Capa_1" xmlns="http://www.w3.org/2000/svg" xmlns:xlink="http://www.w3.org/1999/xlink" x="0px" y="0px"
	 width="84.584px" height="66.187px" viewBox="0 0 84.584 66.187" enable-background="new 0 0 84.584 66.187" xml:space="preserve">
<g>
	<g>
		<g>
			<g>
				<g>
					<g>
						<path fill="#D61921" d="M42.534,31.681c-7.572,0-13.729-6.157-13.729-13.728c0-7.568,6.156-13.724,13.729-13.724
							c7.563,0,13.718,6.155,13.718,13.724C56.252,25.523,50.098,31.681,42.534,31.681z M42.534,8.188
							c-5.389,0-9.77,4.379-9.77,9.765c0,5.388,4.381,9.768,9.77,9.768c5.381,0,9.76-4.38,9.76-9.768
							C52.294,12.567,47.915,8.188,42.534,8.188z"/>
					</g>
					<g>
						<path fill="#D61921" d="M46.575,61.87c-8.525,0-18.675-0.021-19.46-0.021c-0.054,0.002-0.126,0.002-0.223,0.002
							c-3.708,0-7.448-2.36-7.448-7.633v-8.297c-0.012-0.207-0.242-6.991,3.882-11.297c2.171-2.259,5.075-3.407,8.634-3.407
							l1.328,0.023l8.914,13.927l9.13-13.971l0.899-0.133c0,0,0.371-0.059,0.994-0.059c11.029,0,11.66,12.704,11.679,15.254
							c0.028,4.907,0.013,6.829,0.004,7.33c0.088,0.789,0.218,3.562-1.659,5.753c-1.404,1.639-3.501,2.482-6.229,2.507
							C55.015,61.862,51.015,61.87,46.575,61.87z M26.957,57.891h0.114c0,0,23.912,0.053,29.913,0
							c1.525-0.015,2.614-0.384,3.245-1.106c0.949-1.09,0.741-2.803,0.74-2.817l-0.02-0.146v-0.165c0-0.017,0.028-1.693-0.004-7.371
							c-0.056-9.709-4.896-11.188-7.357-11.312l-11.42,17.48L31.126,35.206c-2.064,0.146-3.682,0.853-4.93,2.145
							c-2.96,3.074-2.802,8.438-2.796,8.493v8.374c0,3.039,1.899,3.675,3.492,3.675L26.957,57.891z"/>
					</g>
				</g>
			</g>
		</g>
		<g>
			<path fill="#D61921" d="M31.845,20.165c2.008,2.485,5.317,4.188,9.124,4.404c0.204,0.026,0.409,0.043,0.626,0.043
				c0.069,0,0.129-0.006,0.191-0.006h0.012c1.278-0.051,2.293-0.562,2.293-1.197c0-0.668-1.117-1.214-2.496-1.214
				c-1.375,0-2.493,0.546-2.493,1.214c0,0.059,0.021,0.112,0.034,0.173c-4.646-0.96-8.144-4.371-8.395-8.476"/>
			<path fill="#D61921" d="M41.595,25.15c-0.248,0-0.472-0.015-0.703-0.048c-3.814-0.215-7.277-1.894-9.462-4.6l0.665-0.538
				c-1.104-1.413-1.781-3.071-1.89-4.825l1.069-0.064c0.227,3.617,3.232,6.775,7.397,7.848c0.349-0.746,1.486-1.265,2.923-1.265
				c1.729,0,3.033,0.755,3.033,1.751c0,0.955-1.154,1.671-2.808,1.736L41.595,25.15z M39.749,23.904
				c0.406,0.063,0.83,0.104,1.25,0.129c0.224,0.03,0.402,0.042,0.596,0.042l0.191-0.007c1.148-0.042,1.769-0.49,1.769-0.659
				c0-0.175-0.671-0.678-1.96-0.678c-1.283,0-1.956,0.503-1.956,0.678L39.749,23.904z"/>
		</g>
	</g>
</g>
</svg>
