<?xml version="1.0" encoding="utf-8"?>
<!-- Generator: Adobe Illustrator 16.0.0, SVG Export Plug-In . SVG Version: 6.00 Build 0)  -->
<!DOCTYPE svg PUBLIC "-//W3C//DTD SVG 1.1//EN" "http://www.w3.org/Graphics/SVG/1.1/DTD/svg11.dtd">
<svg version="1.1" id="Capa_1" xmlns="http://www.w3.org/2000/svg" xmlns:xlink="http://www.w3.org/1999/xlink" x="0px" y="0px"
	 width="84.584px" height="66.187px" viewBox="0 0 84.584 66.187" enable-background="new 0 0 84.584 66.187" xml:space="preserve">
<g>
	<g>
		<g>
			<g>
				<g>
					<g>
						<g>
							<g>
								<g>
									<g>
										<g>
											<g>
												<polygon fill="#D61921" points="46.125,53.813 45.641,51.257 54.058,49.649 15.07,49.464 15.23,16.855 11.404,15.639 
													12.193,13.152 17.849,14.951 17.694,46.86 72.349,47.126 72.356,49.739 60.4,49.856 												"/>
											</g>
											<g>
												<path fill="#D61921" d="M16.595,43.554l-7.799-0.037l0.102-21.042l7.803,0.035L16.595,43.554z M10.373,41.958
													l4.662,0.023l0.088-17.91l-4.664-0.021L10.373,41.958z"/>
											</g>
											<g>
												<path fill="#D61921" d="M13.676,14.4c-0.001,1.043-0.85,1.875-1.888,1.868c-1.034-0.004-1.873-0.846-1.867-1.887
													c0.007-1.031,0.852-1.862,1.884-1.854C12.843,12.529,13.683,13.37,13.676,14.4z"/>
											</g>
										</g>
										<g>
											<path fill="#D61921" d="M73.499,55.862c-0.007,2.146-1.754,3.873-3.903,3.863c-2.145-0.008-3.876-1.758-3.867-3.902
												c0.009-2.143,1.759-3.879,3.906-3.867C71.779,51.966,73.509,53.72,73.499,55.862z"/>
											<path fill="#D61921" d="M69.595,60.438c-2.535-0.014-4.594-2.086-4.581-4.619c0.012-2.533,2.09-4.588,4.623-4.572
												c2.532,0.01,4.581,2.082,4.567,4.615C74.194,58.397,72.125,60.45,69.595,60.438z M69.63,52.671
												c-1.754-0.008-3.188,1.404-3.195,3.154c-0.008,1.752,1.412,3.188,3.166,3.195c1.75,0.01,3.176-1.412,3.186-3.162
												C72.796,54.106,71.384,52.677,69.63,52.671z"/>
										</g>
										<g>
											<path fill="#D61921" d="M19.867,55.226c-0.01,2.145-1.76,3.875-3.906,3.865c-2.143-0.012-3.873-1.76-3.866-3.9
												c0.01-2.15,1.76-3.881,3.909-3.869C18.143,51.329,19.877,53.077,19.867,55.226z"/>
											<path fill="#D61921" d="M15.958,59.802c-2.533-0.014-4.589-2.082-4.577-4.615c0.016-2.535,2.085-4.59,4.623-4.578
												c2.533,0.016,4.58,2.088,4.568,4.619C20.561,57.761,18.491,59.812,15.958,59.802z M15.995,52.034
												c-1.747-0.01-3.181,1.404-3.192,3.16c-0.007,1.742,1.412,3.184,3.163,3.191c1.747,0.01,3.179-1.42,3.185-3.164
												C19.162,53.47,17.743,52.042,15.995,52.034z"/>
										</g>
										<g>
											<path fill="#D61921" d="M46.646,56.272c-0.009,1.711-1.396,3.092-3.108,3.086c-1.714-0.01-3.1-1.404-3.095-3.115
												c0.01-1.715,1.408-3.1,3.122-3.088C45.281,53.161,46.657,54.554,46.646,56.272z"/>
											<path fill="#D61921" d="M43.535,60.067c-2.105-0.012-3.801-1.732-3.788-3.83c0.006-2.096,1.724-3.795,3.822-3.789
												c2.102,0.012,3.802,1.729,3.789,3.83C47.348,58.374,45.634,60.075,43.535,60.067z M43.564,53.862
												c-1.324-0.006-2.411,1.061-2.414,2.383c-0.008,1.318,1.066,2.404,2.391,2.408c1.321,0.006,2.398-1.064,2.405-2.383
												C45.953,54.948,44.884,53.87,43.564,53.862z"/>
										</g>
										<g>
											<polygon fill="#D61921" points="20.015,52.392 15.029,55.44 15.066,47.392 20.042,47.417 											"/>
										</g>
										<g>
											<polygon fill="#D61921" points="72.247,52.644 67.257,55.698 67.296,47.647 72.269,47.671 											"/>
										</g>
										<g>
											<polygon fill="#D61921" points="47.909,52.599 42.917,55.647 42.94,51.181 47.916,51.204 											"/>
										</g>
									</g>
									<g>
										<line fill="#D61921" x1="16.541" y1="36.886" x2="9.564" y2="36.852"/>
										
											<rect x="9.564" y="36.139" transform="matrix(1 0.0052 -0.0052 1 0.1912 -0.0671)" fill="#D61921" width="6.974" height="1.466"/>
									</g>
									<g>
										<line fill="#D61921" x1="16.577" y1="29.368" x2="10.219" y2="29.34"/>
										
											<rect x="10.214" y="28.624" transform="matrix(1 0.0052 -0.0052 1 0.1533 -0.0695)" fill="#D61921" width="6.365" height="1.459"/>
									</g>
								</g>
							</g>
						</g>
					</g>
				</g>
			</g>
		</g>
	</g>
	<g>
		<path fill="#D61921" d="M44.238,28.684v5.075c1.243,0,2.118-1.241,2.118-2.482C46.356,29.74,45.552,29.083,44.238,28.684z"/>
		<path fill="#D61921" d="M40.039,19.958c0,1.166,0.949,1.857,2.009,2.116v-4.531C40.916,17.802,40.039,18.641,40.039,19.958z"/>
		<path fill="#D61921" d="M62.238,26.117l2.291-3.392l-3.23-2.519l1.139-3.926l-3.846-1.394l-0.137-4.097l-4.095-0.139l-1.396-3.851
			l-3.936,1.137l-2.514-3.222L43.127,7l-3.392-2.283l-2.52,3.222l-3.932-1.137l-1.398,3.851l-4.09,0.139l-0.143,4.097l-3.84,1.394
			l1.133,3.929l-3.235,2.516l2.297,3.392l-2.297,3.388l3.235,2.519l-1.133,3.936l3.84,1.398l0.143,4.087l4.09,0.137l1.398,3.854
			l3.936-1.139l2.516,3.23l3.392-2.291l3.388,2.291l2.514-3.23l3.936,1.139l1.396-3.854l4.095-0.137l0.137-4.087l3.846-1.396
			l-1.139-3.934l3.23-2.522L62.238,26.117z M44.238,39.454v1.611c0,0.695-0.328,1.094-1.094,1.094c-0.841,0-1.097-0.398-1.097-1.094
			v-1.611c-2.413-0.143-8.253-0.8-8.253-4.233c0-1.533,1.132-3.033,2.627-3.033c1.279,0,3.106,1.571,5.626,1.571v-5.661
			c-6.135-1.785-8.145-4.055-8.145-7.412c0-4.895,3.725-7.996,8.145-8.399v-1.68c0-0.695,0.327-1.097,1.097-1.097
			c0.837,0,1.094,0.401,1.094,1.097v1.68c2.304,0.073,6.464,0.804,6.464,3.87c0,1.387-0.948,2.739-2.445,2.739
			c-1.354,0-2.487-1.353-4.019-1.353v5.15c4.164,1.168,8.256,3.104,8.256,8.146C52.494,36.536,47.781,39.239,44.238,39.454z"/>
	</g>
</g>
</svg>
