<?xml version="1.0" encoding="utf-8"?>
<!-- Generator: Adobe Illustrator 16.0.0, SVG Export Plug-In . SVG Version: 6.00 Build 0)  -->
<!DOCTYPE svg PUBLIC "-//W3C//DTD SVG 1.1//EN" "http://www.w3.org/Graphics/SVG/1.1/DTD/svg11.dtd">
<svg version="1.1" id="Capa_1" xmlns="http://www.w3.org/2000/svg" xmlns:xlink="http://www.w3.org/1999/xlink" x="0px" y="0px"
	 width="84.584px" height="66.187px" viewBox="0 0 84.584 66.187" enable-background="new 0 0 84.584 66.187" xml:space="preserve">
<g>
	<g>
		<g>
			<g>
				<g>
					<path fill="#D61921" d="M41.779,31.187c-6.989,0-12.672-5.686-12.672-12.674c0-6.986,5.683-12.668,12.672-12.668
						c6.985,0,12.668,5.682,12.668,12.668C54.447,25.501,48.765,31.187,41.779,31.187z M41.779,9.612c-4.911,0-8.906,3.99-8.906,8.9
						s3.995,8.906,8.906,8.906c4.908,0,8.9-3.996,8.9-8.906S46.688,9.612,41.779,9.612z"/>
				</g>
				<g>
					<path fill="#D61921" d="M45.489,58.915c-7.818,0-17.135-0.02-17.871-0.021c-0.049,0.002-0.117,0.002-0.206,0.002
						c-3.438,0-6.907-2.188-6.907-7.07v-7.596c-0.02-0.633-0.094-6.611,3.592-10.451c2.002-2.088,4.684-3.146,7.973-3.146
						l1.251,0.018l8.158,12.736l8.35-12.781l0.852-0.115c0.231-0.029,4.086-0.506,7.372,2.258c2.848,2.396,4.307,6.354,4.339,11.764
						c0.028,4.492,0.014,6.264,0.009,6.729c0.074,0.738,0.192,3.299-1.546,5.33c-1.302,1.52-3.244,2.303-5.771,2.324
						C53.244,58.909,49.57,58.915,45.489,58.915z M27.474,55.128h0.104c0,0,21.967,0.049,27.473,0
						c1.377-0.014,2.365-0.346,2.928-0.994c0.856-0.98,0.67-2.521,0.67-2.537l-0.02-0.293c0.002-0.016,0.029-1.555-0.006-6.77
						c-0.051-8.811-4.405-10.195-6.653-10.32L41.447,50.323L31.267,34.431c-1.856,0.135-3.316,0.775-4.442,1.941
						c-2.7,2.801-2.555,7.705-2.553,7.754l0.002,7.699c0,2.73,1.709,3.305,3.139,3.305L27.474,55.128z M56.971,52.243h-9.847v-5.602
						h9.847V52.243z"/>
				</g>
			</g>
		</g>
	</g>
</g>
</svg>
