<?xml version="1.0" encoding="utf-8"?>
<!-- Generator: Adobe Illustrator 16.0.0, SVG Export Plug-In . SVG Version: 6.00 Build 0)  -->
<!DOCTYPE svg PUBLIC "-//W3C//DTD SVG 1.1//EN" "http://www.w3.org/Graphics/SVG/1.1/DTD/svg11.dtd">
<svg version="1.1" id="Capa_1" xmlns="http://www.w3.org/2000/svg" xmlns:xlink="http://www.w3.org/1999/xlink" x="0px" y="0px"
	 width="84.584px" height="66.187px" viewBox="0 0 84.584 66.187" enable-background="new 0 0 84.584 66.187" xml:space="preserve">
<g>
	<g>
		<g>
			<path fill="#D61921" d="M52.737,48.641c0,3.13,2.54,5.669,5.67,5.669c3.128,0,5.668-2.539,5.668-5.669
				c0-3.128-2.54-5.669-5.668-5.669C55.277,42.972,52.737,45.513,52.737,48.641z"/>
			<path fill="#D61921" d="M63.833,14.052c0.26,0,0.7,0.363,0.748,0.614l5.978,30.987h-1.103c-1.315-4.87-5.767-8.461-11.049-8.461
				c-5.278,0-9.739,3.597-11.054,8.467L35,45.667l-0.13-0.646l-5.979-30.968H63.833 M63.833,10.568H28.178
				c-1.925,0-3.204,1.553-2.84,3.441l6.112,31.687l0.707,3.454l18.31-0.009c-0.012-0.163-0.025-0.328-0.025-0.5
				c0-4.402,3.562-7.966,7.966-7.966c4.396,0,7.963,3.563,7.963,7.966c0,0.167-0.014,0.332-0.023,0.497l4.927-0.002
				c1.925,0,3.204-1.549,2.839-3.44l-6.113-31.687C67.633,12.121,65.759,10.568,63.833,10.568L63.833,10.568z"/>
			<path fill="#D61921" d="M12.187,48.641c0,3.13,2.537,5.669,5.667,5.669c3.133,0,5.667-2.539,5.667-5.669
				c0-3.128-2.534-5.669-5.667-5.669C14.724,42.972,12.187,45.513,12.187,48.641z"/>
			<path fill="#D61921" d="M20.745,23.602l3.308,15.419c-1.787-1.153-3.915-1.828-6.199-1.828c-4.794,0-8.912,2.968-10.612,7.163
				l-1.19-5.364c-0.036-0.217,0.012-0.73,0.076-0.912l6.212-14.478H20.745 M21.968,20.119H11.634c-0.875,0-1.876,0.659-2.22,1.465
				L2.925,36.707c-0.345,0.803-0.47,2.162-0.28,3.016l1.719,7.736c0.189,0.854,1.063,1.553,1.938,1.553h3.604
				c-0.003-0.121-0.018-0.246-0.018-0.37c0-4.402,3.566-7.966,7.966-7.966c4.397,0,7.967,3.563,7.967,7.966
				c0,0.124-0.016,0.249-0.021,0.37h2.369h1.602l-0.345-1.553l-5.531-25.785C23.708,20.817,22.843,20.119,21.968,20.119
				L21.968,20.119z"/>
			<path fill="#D61921" d="M71.689,21.542c0.164,0.495,0.73,0.908,1.254,0.908h7.535c0.527,0,0.821-0.413,0.655-0.908l-0.828-2.482
				c-0.169-0.496-0.733-0.907-1.257-0.907h-7.535c-0.525,0-0.819,0.411-0.651,0.907L71.689,21.542z"/>
			<path fill="#D61921" d="M74.12,30.838c0.167,0.501,0.732,0.909,1.259,0.909h5.1c0.527,0,0.821-0.408,0.655-0.909l-0.828-2.477
				c-0.169-0.501-0.733-0.906-1.257-0.906H73.95c-0.529,0-0.821,0.405-0.657,0.906L74.12,30.838z"/>
			<path fill="#D61921" d="M76.266,40.14c0.167,0.496,0.732,0.906,1.261,0.906h2.382c0.521,0,0.816-0.41,0.651-0.906l-0.828-2.48
				c-0.164-0.496-0.732-0.902-1.255-0.902h-2.385c-0.523,0-0.82,0.406-0.648,0.902L76.266,40.14z"/>
		</g>
		<path fill="#D61921" d="M9.939,31.398l2.285-5.781c0.243-0.611,0.978-1.105,1.632-1.096l4.777,0.063
			c0.658,0.01,1.312,0.542,1.445,1.181l0.523,2.411c0.137,0.645-0.266,1.312-0.898,1.491l-9.052,2.521
			C10.018,32.364,9.698,32.007,9.939,31.398z"/>
	</g>
</g>
</svg>
