<?xml version="1.0" encoding="utf-8"?>
<!-- Generator: Adobe Illustrator 16.0.0, SVG Export Plug-In . SVG Version: 6.00 Build 0)  -->
<!DOCTYPE svg PUBLIC "-//W3C//DTD SVG 1.1//EN" "http://www.w3.org/Graphics/SVG/1.1/DTD/svg11.dtd">
<svg version="1.1" id="Capa_1" xmlns="http://www.w3.org/2000/svg" xmlns:xlink="http://www.w3.org/1999/xlink" x="0px" y="0px"
	 width="84.584px" height="66.187px" viewBox="0 0 84.584 66.187" enable-background="new 0 0 84.584 66.187" xml:space="preserve">
<g>
	<g>
		<g>
			<g>
				<g>
					<path fill="#D61921" d="M35.44,20.717c-1.002-1.451-2.949-1.974-4.553-1.135L5.898,32.61c-1.572,0.825-2.264,2.654-1.708,4.29
						L35.44,20.717z"/>
					<path fill="#D61921" d="M42.379,33.938l-4.7-9.017L6.345,41.144l4.749,9.108c0.91,1.739,3.05,2.417,4.795,1.508l24.984-13.03
						C42.607,37.824,43.288,35.68,42.379,33.938z"/>
				</g>
				<g>
					<path fill="#D61921" d="M53.067,9.147h0.006l0.082,0.003c0.132,0,13.384,0.07,16.922,0.151c2.357,0.05,2.72,0.431,4.075,1.844
						c0.368,0.394,0.746,2.025,0.754,3.279c0,11.987-0.018,35.146-0.076,37.005c-0.062,1.913-0.15,2.65-1.436,4.078
						c-0.723,0.805-2.413,1.127-3.156,1.162H52.946h-0.172h-0.175c-1.053,0-2.154-0.239-3.088-1.983l-0.053-0.09
						c-1.924-3.581-3.442-6.411-3.523-23.877c-0.041-11.082,1.779-18.741,4.986-21.015C51.488,9.307,52.526,9.155,53.067,9.147
						 M53.088,5.634c-0.441,0-2.586,0.061-4.198,1.204c-1.802,1.274-6.537,5.404-6.469,23.892
						c0.085,18.487,1.812,21.568,3.991,25.619c1.954,3.652,4.946,3.838,6.187,3.838c0.139,0,0.256-0.004,0.347-0.004
						c0.902,0,17.358,0,17.358,0s3.682-0.072,5.706-2.33c2.028-2.252,2.256-3.906,2.333-6.31c0.076-2.408,0.076-37.119,0.076-37.119
						s0-3.905-1.73-5.71c-1.723-1.802-2.926-2.85-6.536-2.926c-3.607-0.084-16.98-0.152-16.98-0.152S53.142,5.634,53.088,5.634
						L53.088,5.634z"/>
				</g>
			</g>
			<rect x="47.584" y="7.667" fill="#D61921" width="3" height="35"/>
			<path fill="#D61921" d="M53.652,23.655c0,0.685,0.56,1.247,1.258,1.247h18.152c0.688,0,1.252-0.562,1.252-1.247v-8.038
				c0-0.693-0.564-1.254-1.252-1.254H54.91c-0.698,0-1.258,0.561-1.258,1.254V23.655z"/>
			<path fill="#D61921" d="M69.108,34.021c0,0.637,0.51,1.149,1.151,1.149h2.977c0.634,0,1.152-0.513,1.152-1.149v-2.842
				c0-0.631-0.519-1.154-1.152-1.154h-2.977c-0.642,0-1.151,0.523-1.151,1.154V34.021z"/>
			<path fill="#D61921" d="M61.368,34.021c0,0.637,0.515,1.149,1.151,1.149h2.984c0.633,0,1.145-0.513,1.145-1.149v-2.842
				c0-0.631-0.512-1.154-1.145-1.154h-2.984c-0.637,0-1.151,0.523-1.151,1.154V34.021z"/>
			<path fill="#D61921" d="M53.636,34.021c0,0.637,0.519,1.149,1.158,1.149h2.976c0.634,0,1.151-0.513,1.151-1.149v-2.842
				c0-0.631-0.518-1.154-1.151-1.154h-2.976c-0.64,0-1.158,0.523-1.158,1.154V34.021z"/>
			<path fill="#D61921" d="M69.108,41.755c0,0.635,0.51,1.147,1.151,1.147h2.977c0.634,0,1.152-0.513,1.152-1.147v-2.841
				c0-0.64-0.519-1.153-1.152-1.153h-2.977c-0.642,0-1.151,0.514-1.151,1.153V41.755z"/>
			<path fill="#D61921" d="M61.368,41.755c0,0.635,0.515,1.147,1.151,1.147h2.984c0.633,0,1.145-0.513,1.145-1.147v-2.841
				c0-0.64-0.512-1.153-1.145-1.153h-2.984c-0.637,0-1.151,0.514-1.151,1.153V41.755z"/>
			<path fill="#D61921" d="M53.636,41.755c0,0.635,0.519,1.147,1.158,1.147h2.976c0.634,0,1.151-0.513,1.151-1.147v-2.841
				c0-0.64-0.518-1.153-1.151-1.153h-2.976c-0.64,0-1.158,0.514-1.158,1.153V41.755z"/>
			<path fill="#D61921" d="M69.108,49.566c0,0.637,0.51,1.152,1.151,1.152h2.977c0.634,0,1.152-0.516,1.152-1.152v-2.837
				c0-0.636-0.519-1.153-1.152-1.153h-2.977c-0.642,0-1.151,0.518-1.151,1.153V49.566z"/>
			<path fill="#D61921" d="M61.368,49.566c0,0.637,0.515,1.152,1.151,1.152h2.984c0.633,0,1.145-0.516,1.145-1.152v-2.837
				c0-0.636-0.512-1.153-1.145-1.153h-2.984c-0.637,0-1.151,0.518-1.151,1.153V49.566z"/>
			<path fill="#D61921" d="M53.636,49.566c0,0.637,0.519,1.152,1.158,1.152h2.976c0.634,0,1.151-0.516,1.151-1.152v-2.837
				c0-0.636-0.518-1.153-1.151-1.153h-2.976c-0.64,0-1.158,0.518-1.158,1.153V49.566z"/>
		</g>
	</g>
</g>
</svg>
