<?xml version="1.0" encoding="utf-8"?>
<!-- Generator: Adobe Illustrator 16.0.0, SVG Export Plug-In . SVG Version: 6.00 Build 0)  -->
<!DOCTYPE svg PUBLIC "-//W3C//DTD SVG 1.1//EN" "http://www.w3.org/Graphics/SVG/1.1/DTD/svg11.dtd">
<svg version="1.1" id="Capa_1" xmlns="http://www.w3.org/2000/svg" xmlns:xlink="http://www.w3.org/1999/xlink" x="0px" y="0px"
	 width="84.584px" height="66.187px" viewBox="0 0 84.584 66.187" enable-background="new 0 0 84.584 66.187" xml:space="preserve">
<g>
	<g>
		<g>
			<path fill="#D61921" d="M24.124,6.422c2.629,2.638,6.195,4.148,10.016,4.148c0.641,0,1.283-0.041,1.921-0.133
				c0.146,0.585,0.219,1.188,0.219,1.791c0,4.122-3.352,7.473-7.473,7.473c-4.118,0-7.47-3.351-7.47-7.473
				C21.337,9.95,22.4,7.82,24.124,6.422 M24.965,2.122c-4.083,1.547-6.982,5.483-6.982,10.107c0,5.981,4.845,10.828,10.824,10.828
				c5.982,0,10.83-4.847,10.83-10.828c0-2.105-0.61-4.063-1.65-5.723c-1.199,0.451-2.491,0.711-3.847,0.711
				C30.269,7.217,26.876,5.177,24.965,2.122L24.965,2.122z"/>
			<path fill="#D61921" d="M39.01,5.924c-0.329-0.351,6.95-0.806,6.95,5.816c0,6.627-0.327,10.183,0.646,11.962
				c0,0-5.984,0.16-5.984-4.688C40.622,14.167,41.436,8.51,39.01,5.924z"/>
			<path fill="#D61921" d="M24.606,28.71l4.038,5.814l3.88-5.652c0,0-2.265-2.099-4.2-2.099
				C26.382,26.774,24.606,28.71,24.606,28.71z"/>
		</g>
		<g>
			<path fill="#D61921" d="M71.109,56.559v4.154H39.517v-4.154H71.109 M74.463,53.211H36.165v10.856h38.298V53.211L74.463,53.211z"
				/>
			<g>
				<path fill="#D61921" d="M39.078,51.182c0.052-0.727,0.218-1.098,0.218-1.098l-0.025,0.044l1.096-2.15h-25.78l-0.038-0.007
					l-0.139,0.011c-0.238-0.004-0.748-0.058-1.104-0.274c-0.148-0.084-0.537-0.32-0.537-1.544v-7.593v-0.074l-0.002-0.069
					c-0.003-0.041-0.076-4.323,2.123-6.616c0.69-0.719,1.567-1.182,2.666-1.391l8.29,12.578l2.839,4.305l2.783-4.341l8.172-12.759
					c2.057,0.422,4.094,2.205,4.36,7.463c0.707,0,1.887,0,3.345,0.002c-0.479-10.059-6.736-10.928-8.822-10.928
					c-0.423,0-0.669,0.033-0.669,0.033l-9.209,14.379l-9.373-14.217c-0.068-0.004-0.141-0.008-0.208-0.008
					c-10.126,0-9.648,11.643-9.648,11.643v7.593c0,4.915,4.142,5.172,5.013,5.172c0.101,0,0.158-0.002,0.158-0.002
					s16.175,0,24.492,0V51.182z"/>
				<path fill="#D61921" d="M44.63,39.346c4.262,0,17.059,0.004,21.393,0.025l-0.026,2.978l-0.007,0.825l0.378,0.732
					c1.174,2.297,3.057,5.986,3.444,6.767c0.025,0.13,0.053,0.365,0.062,0.532v0.562H40.754V51.25
					c0.023-0.266,0.063-0.429,0.085-0.498l3.463-6.812l0.378-0.743l-0.015-0.837C44.665,42.344,44.64,40.938,44.63,39.346
					 M43.232,35.993c0,0-1.96,0.039-1.96,2.118c0,2.073,0.041,4.309,0.041,4.309l-3.512,6.911c0,0-0.324,0.603-0.401,1.798v3.992
					h35.827v-3.992c0,0-0.043-1.159-0.32-1.759c-0.282-0.596-3.556-6.988-3.556-6.988l0.04-4.434c0,0,0.079-1.877-1.998-1.916
					C65.317,35.993,43.232,35.993,43.232,35.993L43.232,35.993z"/>
			</g>
			<rect x="60.442" y="33.198" fill="#D61921" width="3.836" height="3.719"/>
			<path fill="#D61921" d="M68.075,30.876c0,1.388-1.232,2.521-2.741,2.521h-5.937c-1.511,0-2.748-1.134-2.748-2.521
				c0-1.38,1.237-2.519,2.748-2.519h5.937C66.843,28.358,68.075,29.497,68.075,30.876z"/>
		</g>
	</g>
</g>
</svg>
