<?xml version="1.0" encoding="utf-8"?>
<!-- Generator: Adobe Illustrator 16.0.0, SVG Export Plug-In . SVG Version: 6.00 Build 0)  -->
<!DOCTYPE svg PUBLIC "-//W3C//DTD SVG 1.1//EN" "http://www.w3.org/Graphics/SVG/1.1/DTD/svg11.dtd">
<svg version="1.1" id="Capa_1" xmlns="http://www.w3.org/2000/svg" xmlns:xlink="http://www.w3.org/1999/xlink" x="0px" y="0px"
	 width="36.34px" height="36.339px" viewBox="0 0 36.34 36.339" enable-background="new 0 0 36.34 36.339" xml:space="preserve">
<g>
	<circle fill="#B01117" cx="18.17" cy="18.169" r="18.17"/>
	<g>
		<path fill="#F1F1F1" d="M28.611,19.62v7.23h-4.193v-6.746c0-1.693-0.605-2.852-2.123-2.852c-1.158,0-1.846,0.779-2.15,1.533
			c-0.109,0.27-0.139,0.645-0.139,1.022v7.042h-4.193c0,0,0.057-11.426,0-12.609h4.193v1.787c-0.01,0.014-0.021,0.027-0.027,0.041
			h0.027v-0.041c0.557-0.857,1.551-2.083,3.777-2.083C26.543,13.945,28.611,15.747,28.611,19.62L28.611,19.62z M11.428,8.163
			c-1.436,0-2.373,0.941-2.373,2.178c0,1.211,0.91,2.18,2.316,2.18h0.027c1.461,0,2.371-0.969,2.371-2.18
			C13.742,9.104,12.859,8.163,11.428,8.163L11.428,8.163z M9.303,26.851h4.191V14.241H9.303V26.851z M9.303,26.851"/>
	</g>
</g>
</svg>
