<?xml version="1.0" encoding="utf-8"?>
<!-- Generator: Adobe Illustrator 16.0.0, SVG Export Plug-In . SVG Version: 6.00 Build 0)  -->
<!DOCTYPE svg PUBLIC "-//W3C//DTD SVG 1.1//EN" "http://www.w3.org/Graphics/SVG/1.1/DTD/svg11.dtd">
<svg version="1.1" id="Capa_1" xmlns="http://www.w3.org/2000/svg" xmlns:xlink="http://www.w3.org/1999/xlink" x="0px" y="0px"
	 width="94.499px" height="63.273px" viewBox="0 0 94.499 63.273" enable-background="new 0 0 94.499 63.273" xml:space="preserve">
<g>
	<g>
		<g>
			<path fill="#FFFFFF" d="M43.419,55.389c-0.413,0.083-0.914,0.176-1.478,0.304c-0.406,0.093-0.853,0.519-0.873,0.985
				c0,0.191,0.073,0.375,0.193,0.532c0.227,0.227,0.579,0.339,1.032,0.339c0.054,0,0.073,0,0.101,0
				c1.17-0.04,1.409-0.63,1.497-1.082c0.081-0.406,0.081-0.885,0.054-1.166C43.803,55.342,43.639,55.362,43.419,55.389z"/>
			<path fill="#FFFFFF" d="M64.136,52.516c-1.146,0-1.99,1.025-1.99,2.415c0,1.359,0.844,2.43,1.99,2.43
				c1.09,0,1.963-1.077,1.963-2.43S65.227,52.516,64.136,52.516z"/>
			<path fill="#FFFFFF" d="M0.552,44.867v18.406h93.307V44.867H0.552z M38.159,58.134c0,0.504-0.245,1.38-1.225,1.38
				c-0.833,0-1.132-0.855-1.132-1.432v-4.145c0-0.12-0.046-1.052-1.146-1.052c-0.852,0-1.298,0.377-1.298,1.096v4.267
				c0.021,0.087,0.054,0.553-0.246,0.859c-0.207,0.223-0.48,0.331-0.858,0.331c-0.853,0-1.201-0.665-1.201-1.085v-4.482
				c-0.018-0.111-0.225-1.01-1.183-1.01s-1.292,0.524-1.325,1.01c0,0.24,0,0.24,0,0.769c0,0.518,0,1.571,0,3.885v0.013
				c-0.053,0.337-0.326,0.977-1.146,0.977c-0.699,0-1.146-0.614-1.146-1.196v-6.323c0-0.087-0.013-0.477,0.215-0.751
				c0.191-0.226,0.498-0.349,0.904-0.349c0,0,0.014,0,0.054,0c0.134,0,0.572,0.029,0.899,0.482c0.294-0.303,0.92-0.719,1.998-0.756
				c1.371-0.021,2.048,0.388,2.488,0.844c0.333-0.33,1.045-0.879,2.138-0.879c1.378,0,2.089,0.64,2.491,1.139
				c0.353,0.389,0.718,1.247,0.718,2.113V58.134z M46.001,59.09c-0.2,0.223-0.434,0.313-0.758,0.34c-0.027,0-0.041,0-0.041,0
				c-0.699,0-1.046-0.303-1.198-0.522c-0.373,0.183-1.212,0.571-2.185,0.571c-0.858,0-1.637-0.303-2.283-0.885h-0.014
				c-0.02-0.036-1.051-1.028-0.699-2.569v-0.026c0.32-1.156,1.471-1.868,3.681-2.221h0.027c0.646-0.141,1.217-0.256,1.347-0.611
				c0.125-0.359,0.112-0.617-0.402-0.83c-0.904-0.292-1.596-0.104-2.063,0.636c-0.239,0.34-0.719,0.569-1.151,0.569
				c-0.478,0-0.812-0.245-0.951-0.702c-0.113-0.466-0.027-0.919,0.258-1.284c0.54-0.693,1.771-1.142,3.188-1.142
				c2.091,0,3.417,0.897,3.417,2.263c0,1.126,0.093,5.325,0.093,5.525C46.28,58.281,46.294,58.773,46.001,59.09z M54.003,59.021
				c-0.218,0.154-0.439,0.238-0.66,0.238c-0.726,0-1.172-0.795-1.23-0.942l-1.751-2.442l-1.012,0.994l-0.014,1.256
				c0,0.399-0.26,1.205-1.198,1.205c-0.526,0-0.905-0.293-1.091-0.806c-0.161-0.391-0.161-0.792-0.161-0.959v-7.224
				c0-0.148-0.092-0.968,0.333-1.45c0.186-0.233,0.445-0.353,0.793-0.353c0,0,0.052,0,0.112,0c0.272,0,1.159,0.119,1.159,1.764
				c0,0.89-0.02,2.806-0.04,3.715l2.528-2.517c0.086-0.114,0.693-0.88,1.38-0.88c0.305,0,0.557,0.127,0.797,0.388
				c0.148,0.192,0.233,0.418,0.213,0.655c-0.064,0.536-0.639,0.949-0.778,1.052l-1.445,1.448l2.159,3.107
				c0.064,0.061,0.391,0.518,0.318,1.046C54.403,58.594,54.242,58.834,54.003,59.021z M58.483,52.904
				c-1.183,0.204-1.19,1.441-1.19,1.502c0,0.436,0.007,2.774,0.007,2.896c0,0.113,0.051,1.145-0.448,1.679
				c-0.227,0.216-0.479,0.331-0.812,0.331l0,0c-0.039,0-0.418-0.014-0.718-0.291c-0.327-0.345-0.453-0.896-0.453-1.973v-4.896
				c-0.027-0.108-0.034-0.726,0.36-1.135c0.181-0.223,0.486-0.342,0.839-0.342c0.545,0,0.877,0.342,1.039,0.615
				c0.151-0.156,0.373-0.367,0.665-0.486c0.3-0.146,0.579-0.219,0.845-0.219c0.352,0,0.826,0.126,1.152,0.751l0.02,0.04
				c0.105,0.287,0.078,0.59-0.074,0.833C59.569,52.456,59.255,52.771,58.483,52.904z M67.205,58.134
				c-0.853,0.888-2.003,1.358-3.149,1.358c-2.403,0-4.44-2.076-4.44-4.529c0-2.483,2.051-4.594,4.521-4.594
				c2.377,0,4.407,2.087,4.407,4.562C68.543,56.106,68.063,57.253,67.205,58.134z"/>
		</g>
		<g>
			<path fill="#FFFFFF" d="M4.899,30.439c1.944,0,3.362,1.509,3.362,3.516c0,2.059-1.45,3.547-3.362,3.547H3.322v3.634H0.64V30.439
				H4.899z M3.322,35.334h0.992c0.912,0,1.357-0.593,1.357-1.379c0-0.741-0.393-1.367-1.303-1.367H3.322V35.334z"/>
			<path fill="#FFFFFF" d="M13.575,30.439c2.296,0,3.495,1.509,3.495,3.396c0,1.401-0.572,2.293-1.745,2.943l2.104,4.356H14.66
				l-1.765-3.864h-0.839v3.864H9.441V30.439H13.575z M12.056,35.104h1.318c0.613,0,1.165-0.554,1.165-1.239
				c0-0.676-0.445-1.277-1.165-1.277h-1.318V35.104z"/>
			<path fill="#FFFFFF" d="M22.88,30.221c2.97,0,4.806,2.241,4.806,5.531c0,3.217-1.697,5.593-4.806,5.61
				c-3.115-0.018-4.812-2.394-4.812-5.61C18.068,32.462,19.904,30.221,22.88,30.221z M22.88,39.135c1.373,0,2.031-1.302,2.031-3.383
				c0-1.985-0.765-3.317-2.031-3.317c-1.272,0-2.037,1.332-2.037,3.317C20.843,37.833,21.537,39.135,22.88,39.135z"/>
			<path fill="#FFFFFF" d="M36.044,30.439v2.148h-4.296v2.449h3.67v2.151h-3.67v3.947h-2.682V30.439H36.044z"/>
			<path fill="#FFFFFF" d="M44.063,30.439v2.148H39.97v2.243h3.535v2.184H39.97v1.954h4.128v2.167h-6.824V30.439H44.063z"/>
			<path fill="#FFFFFF" d="M48.345,41.362c-1.22,0.025-2.403-0.276-3.322-0.776l0.779-2.057c0,0,1.284,0.626,2.463,0.626
				c1.158,0,1.23-0.606,1.23-0.885c0-0.717-0.618-0.92-1.577-1.329c-1.391-0.565-2.841-1.338-2.841-3.519
				c0-2.273,1.688-3.202,3.587-3.202c1.124,0,2.31,0.297,3.254,0.735l-0.711,2.03c0,0-1.211-0.524-2.191-0.524
				c-0.751,0-1.238,0.312-1.238,0.938c0,0.753,0.706,0.973,1.717,1.398c1.246,0.529,2.736,1.23,2.736,3.329
				C52.232,40.561,50.255,41.362,48.345,41.362z"/>
			<path fill="#FFFFFF" d="M56.207,30.439v10.696h-2.664V30.439H56.207z"/>
			<path fill="#FFFFFF" d="M62.432,30.221c2.941,0,4.818,2.241,4.818,5.531c0,3.217-1.69,5.593-4.818,5.61
				c-3.144-0.018-4.807-2.394-4.807-5.61C57.625,32.462,59.442,30.221,62.432,30.221z M62.432,39.135
				c1.351,0,2.029-1.302,2.029-3.383c0-1.985-0.771-3.317-2.029-3.317c-1.277,0-2.051,1.332-2.051,3.317
				C60.381,37.833,61.093,39.135,62.432,39.135z"/>
			<path fill="#FFFFFF" d="M71.398,30.439l2.616,5.973h0.034c-0.086-1.375-0.073-2.742-0.073-2.742v-3.23h2.689v10.696h-2.767
				l-2.658-6.154h-0.027c0,0,0.089,1.271,0.089,2.699v3.455h-2.704V30.439H71.398z"/>
			<path fill="#FFFFFF" d="M83.942,30.371l3.035,10.765h-2.775l-0.633-2.549h-2.662l-0.634,2.549h-2.709l3.091-10.765H83.942z
				 M81.451,36.524h1.579l-0.773-3.656h-0.032L81.451,36.524z"/>
			<path fill="#FFFFFF" d="M90.579,30.439v8.529h3.502v2.167h-6.173V30.439H90.579z"/>
		</g>
		<g>
			<path fill="#FFFFFF" d="M0,13.107C0,5.777,5.718,0,13.407,0c2.863,0,5.246,0.803,7.263,1.857l-0.706,1.404
				c0,0-2.968-1.635-6.705-1.635c-6.49,0-11.343,4.995-11.343,11.48c0,6.482,4.853,11.466,11.343,11.466
				c3.661,0,6.705-1.651,6.705-1.651L20.67,24.4c-2.056,1-4.667,1.809-7.444,1.809C5.765,26.209,0,20.428,0,13.107z"/>
			<path fill="#FFFFFF" d="M29.566,0.29v24.069h14.677v1.58H27.727V0.29H29.566z"/>
			<path fill="#FFFFFF" d="M65.622,17.912V0.29h1.836v17.579c-0.061,5.374-4.21,8.34-9.448,8.34c-5.239,0-9.38-2.966-9.446-8.34
				V0.29h1.837v17.622c0,3.878,3.141,6.661,7.608,6.661C62.473,24.573,65.622,21.79,65.622,17.912z"/>
			<path fill="#FFFFFF" d="M86.132,0.29c3.88,0,7.03,2.659,7.03,6.814c0,2.864-1.513,4.979-3.508,5.714
				c2.63,0.81,4.845,2.78,4.845,6.227c0,4.137-3.04,6.895-7.035,6.895H76.319V0.29H86.132z M78.156,12.176h8.5
				c2.811,0,4.662-1.772,4.662-4.789c0-3.352-2.111-5.529-5.227-5.529h-7.935V12.176z M87.335,24.359
				c2.924,0,5.359-2.206,5.359-5.35c0-2.812-2.229-5.318-5.319-5.318h-9.22v10.668H87.335z"/>
		</g>
	</g>
</g>
</svg>
