<?xml version="1.0" encoding="utf-8"?>
<!-- Generator: Adobe Illustrator 16.0.0, SVG Export Plug-In . SVG Version: 6.00 Build 0)  -->
<!DOCTYPE svg PUBLIC "-//W3C//DTD SVG 1.1//EN" "http://www.w3.org/Graphics/SVG/1.1/DTD/svg11.dtd">
<svg version="1.1" id="Capa_1" xmlns="http://www.w3.org/2000/svg" xmlns:xlink="http://www.w3.org/1999/xlink" x="0px" y="0px"
	 width="136.794px" height="91.593px" viewBox="0 0 136.794 91.593" enable-background="new 0 0 136.794 91.593"
	 xml:space="preserve">
<g>
	<g>
		<g>
			<path fill="#D71921" d="M62.852,80.178c-0.598,0.12-1.321,0.255-2.138,0.44c-0.588,0.135-1.234,0.75-1.264,1.426
				c0,0.277,0.104,0.543,0.279,0.771c0.328,0.328,0.838,0.49,1.494,0.49c0.077,0,0.104,0,0.146,0
				c1.694-0.058,2.04-0.911,2.166-1.566c0.117-0.588,0.117-1.28,0.078-1.687C63.409,80.11,63.17,80.14,62.852,80.178z"/>
			<path fill="#D71921" d="M92.843,76.02c-1.658,0-2.882,1.483-2.882,3.495c0,1.969,1.224,3.518,2.882,3.518
				c1.578,0,2.841-1.56,2.841-3.518C95.684,77.558,94.421,76.02,92.843,76.02z"/>
			<path fill="#D71921" d="M0.8,64.947v26.646h135.068V64.947H0.8z M55.239,84.152c0,0.729-0.356,1.997-1.773,1.997
				c-1.206,0-1.639-1.238-1.639-2.072v-5.999c0-0.175-0.066-1.523-1.658-1.523c-1.233,0-1.879,0.546-1.879,1.587v6.176
				c0.03,0.126,0.078,0.801-0.355,1.243c-0.3,0.323-0.695,0.48-1.243,0.48c-1.233,0-1.737-0.963-1.737-1.57v-6.489
				c-0.026-0.161-0.327-1.461-1.713-1.461c-1.388,0-1.871,0.758-1.919,1.461c0,0.348,0,0.348,0,1.112c0,0.749,0,2.274,0,5.624v0.019
				c-0.076,0.487-0.473,1.413-1.657,1.413c-1.012,0-1.658-0.889-1.658-1.731v-9.154c0-0.125-0.02-0.689,0.31-1.086
				c0.278-0.327,0.722-0.505,1.31-0.505c0,0,0.02,0,0.078,0c0.192,0,0.828,0.043,1.301,0.698c0.425-0.438,1.331-1.04,2.892-1.094
				c1.985-0.032,2.966,0.561,3.602,1.222c0.483-0.479,1.514-1.273,3.096-1.273c1.994,0,3.024,0.926,3.605,1.648
				c0.511,0.562,1.04,1.806,1.04,3.06V84.152z M66.59,85.536c-0.288,0.322-0.626,0.453-1.098,0.492c-0.039,0-0.059,0-0.059,0
				c-1.011,0-1.514-0.439-1.734-0.757c-0.539,0.265-1.753,0.827-3.161,0.827c-1.243,0-2.369-0.438-3.306-1.28h-0.02
				c-0.028-0.053-1.521-1.489-1.011-3.72v-0.038c0.463-1.674,2.128-2.705,5.328-3.215h0.038c0.936-0.203,1.763-0.37,1.95-0.886
				c0.181-0.52,0.161-0.893-0.582-1.2c-1.309-0.423-2.312-0.15-2.986,0.92c-0.346,0.491-1.041,0.823-1.667,0.823
				c-0.691,0-1.175-0.354-1.377-1.016c-0.163-0.675-0.039-1.331,0.373-1.858c0.781-1.004,2.564-1.653,4.616-1.653
				c3.027,0,4.946,1.3,4.946,3.276c0,1.629,0.136,7.708,0.136,7.998C66.994,84.365,67.014,85.078,66.59,85.536z M78.175,85.437
				c-0.317,0.225-0.638,0.345-0.956,0.345c-1.051,0-1.696-1.15-1.781-1.363l-2.534-3.535l-1.466,1.438l-0.02,1.818
				c0,0.578-0.376,1.744-1.733,1.744c-0.762,0-1.311-0.425-1.581-1.166c-0.231-0.565-0.231-1.147-0.231-1.389V72.873
				c0-0.216-0.134-1.401,0.481-2.1c0.27-0.338,0.645-0.511,1.148-0.511c0,0,0.076,0,0.163,0c0.395,0,1.678,0.173,1.678,2.553
				c0,1.288-0.03,4.062-0.06,5.378l3.661-3.643c0.125-0.165,1.004-1.273,1.997-1.273c0.442,0,0.807,0.183,1.155,0.561
				c0.214,0.278,0.338,0.605,0.309,0.948c-0.095,0.776-0.926,1.374-1.128,1.523l-2.091,2.097l3.124,4.498
				c0.095,0.087,0.567,0.748,0.462,1.514C78.752,84.818,78.521,85.166,78.175,85.437z M84.659,76.582
				c-1.713,0.296-1.723,2.087-1.723,2.175c0,0.63,0.01,4.016,0.01,4.192c0,0.163,0.073,1.656-0.648,2.43
				c-0.329,0.312-0.694,0.479-1.177,0.479l0,0c-0.057,0-0.604-0.02-1.039-0.422c-0.472-0.498-0.655-1.297-0.655-2.854v-7.088
				c-0.039-0.157-0.049-1.051,0.521-1.644c0.261-0.322,0.703-0.495,1.214-0.495c0.79,0,1.271,0.495,1.504,0.891
				c0.22-0.226,0.54-0.53,0.963-0.703c0.434-0.212,0.838-0.317,1.223-0.317c0.51,0,1.195,0.183,1.669,1.088l0.028,0.058
				c0.153,0.415,0.114,0.854-0.106,1.206C86.231,75.933,85.776,76.388,84.659,76.582z M97.283,84.152
				c-1.234,1.284-2.9,1.967-4.559,1.967c-3.478,0-6.427-3.007-6.427-6.557c0-3.596,2.969-6.65,6.545-6.65
				c3.44,0,6.378,3.021,6.378,6.603C99.221,81.218,98.526,82.877,97.283,84.152z"/>
		</g>
		<g>
			<path fill="#D71921" d="M7.092,44.062c2.815,0,4.868,2.185,4.868,5.089c0,2.979-2.101,5.134-4.868,5.134H4.809v5.261H0.926
				V44.062H7.092z M4.809,51.147h1.436c1.321,0,1.965-0.857,1.965-1.996c0-1.073-0.567-1.979-1.887-1.979H4.809V51.147z"/>
			<path fill="#D71921" d="M19.65,44.062c3.324,0,5.059,2.185,5.059,4.916c0,2.029-0.828,3.32-2.524,4.261l3.044,6.307h-4.007
				l-2.555-5.594h-1.216v5.594h-3.785V44.062H19.65z M17.451,50.815h1.909c0.887,0,1.686-0.801,1.686-1.794
				c0-0.979-0.646-1.849-1.686-1.849h-1.909V50.815z"/>
			<path fill="#D71921" d="M33.121,43.745c4.299,0,6.958,3.245,6.958,8.008c0,4.656-2.457,8.096-6.958,8.121
				c-4.51-0.025-6.967-3.465-6.967-8.121C26.154,46.99,28.813,43.745,33.121,43.745z M33.121,56.649
				c1.986,0,2.939-1.885,2.939-4.896c0-2.874-1.107-4.803-2.939-4.803c-1.841,0-2.949,1.929-2.949,4.803
				C30.172,54.765,31.176,56.649,33.121,56.649z"/>
			<path fill="#D71921" d="M52.176,44.062v3.11h-6.218v3.545h5.312v3.114h-5.312v5.714h-3.883V44.062H52.176z"/>
			<path fill="#D71921" d="M63.786,44.062v3.11h-5.927v3.247h5.118v3.16h-5.118v2.829h5.977v3.137h-9.879V44.062H63.786z"/>
			<path fill="#D71921" d="M69.982,59.874c-1.765,0.037-3.479-0.4-4.809-1.124l1.128-2.977c0,0,1.859,0.906,3.565,0.906
				c1.677,0,1.782-0.879,1.782-1.281c0-1.038-0.895-1.331-2.283-1.924c-2.014-0.818-4.114-1.937-4.114-5.094
				c0-3.29,2.444-4.636,5.193-4.636c1.628,0,3.345,0.431,4.712,1.065l-1.029,2.939c0,0-1.754-0.76-3.173-0.76
				c-1.088,0-1.792,0.452-1.792,1.357c0,1.089,1.021,1.407,2.486,2.024c1.802,0.766,3.961,1.781,3.961,4.818
				C75.61,58.713,72.748,59.874,69.982,59.874z"/>
			<path fill="#D71921" d="M81.364,44.062v15.483h-3.855V44.062H81.364z"/>
			<path fill="#D71921" d="M90.376,43.745c4.257,0,6.975,3.245,6.975,8.008c0,4.656-2.447,8.096-6.975,8.121
				c-4.552-0.025-6.96-3.465-6.96-8.121C83.416,46.99,86.047,43.745,90.376,43.745z M90.376,56.649c1.954,0,2.937-1.885,2.937-4.896
				c0-2.874-1.116-4.803-2.937-4.803c-1.851,0-2.97,1.929-2.97,4.803C87.406,54.765,88.436,56.649,90.376,56.649z"/>
			<path fill="#D71921" d="M103.354,44.062l3.787,8.646h0.049c-0.125-1.991-0.105-3.971-0.105-3.971v-4.676h3.893v15.483h-4.007
				l-3.848-8.908h-0.039c0,0,0.129,1.839,0.129,3.907v5.001h-3.914V44.062H103.354z"/>
			<path fill="#D71921" d="M121.512,43.963l4.393,15.583h-4.018l-0.915-3.689h-3.854l-0.917,3.689h-3.923l4.475-15.583H121.512z
				 M117.906,52.871h2.285l-1.119-5.293h-0.047L117.906,52.871z"/>
			<path fill="#D71921" d="M131.119,44.062v12.347h5.07v3.137h-8.935V44.062H131.119z"/>
		</g>
		<g>
			<path fill="#D71921" d="M0,18.974C0,8.363,8.277,0,19.408,0c4.146,0,7.595,1.161,10.515,2.688l-1.021,2.033
				c0,0-4.297-2.366-9.705-2.366c-9.396,0-16.42,7.23-16.42,16.619c0,9.384,7.024,16.597,16.42,16.597
				c5.299,0,9.705-2.39,9.705-2.39l1.021,2.14c-2.978,1.447-6.756,2.618-10.775,2.618C8.346,37.938,0,29.57,0,18.974z"/>
			<path fill="#D71921" d="M42.799,0.419v34.843h21.246v2.287H40.137V0.419H42.799z"/>
			<path fill="#D71921" d="M94.992,25.928V0.419h2.659v25.447c-0.089,7.779-6.094,12.072-13.676,12.072
				c-7.585,0-13.578-4.293-13.674-12.072V0.419h2.659v25.509c0,5.614,4.548,9.643,11.015,9.643
				C90.434,35.57,94.992,31.542,94.992,25.928z"/>
			<path fill="#D71921" d="M124.683,0.419c5.616,0,10.176,3.85,10.176,9.864c0,4.146-2.189,7.207-5.078,8.272
				c3.806,1.171,7.014,4.023,7.014,9.012c0,5.988-4.401,9.981-10.185,9.981h-16.133V0.419H124.683z M113.137,17.625h12.305
				c4.069,0,6.748-2.566,6.748-6.933c0-4.853-3.056-8.005-7.565-8.005h-11.487V17.625z M126.425,35.262
				c4.231,0,7.758-3.194,7.758-7.745c0-4.07-3.227-7.697-7.699-7.697h-13.347v15.442H126.425z"/>
		</g>
	</g>
</g>
</svg>
