<?xml version="1.0" encoding="utf-8"?>
<!-- Generator: Adobe Illustrator 16.0.0, SVG Export Plug-In . SVG Version: 6.00 Build 0)  -->
<!DOCTYPE svg PUBLIC "-//W3C//DTD SVG 1.1//EN" "http://www.w3.org/Graphics/SVG/1.1/DTD/svg11.dtd">
<svg version="1.1" id="Capa_1" xmlns="http://www.w3.org/2000/svg" xmlns:xlink="http://www.w3.org/1999/xlink" x="0px" y="0px"
	 width="124.367px" height="96.666px" viewBox="0 0 124.367 96.666" enable-background="new 0 0 124.367 96.666"
	 xml:space="preserve">
<g>
	<rect x="0.116" y="2.801" fill="#DBDCDD" width="124.251" height="93.865"/>
	<rect fill="#FFFFFF" width="124.367" height="2.801"/>
	<g>
		<path fill="#B01117" d="M10.455,51.104c0,0,20.931,13.178,54.648,13.178c33.719,0,46.897-12.79,46.897-12.79
			s-13.179,8.916-46.897,8.916C31.386,60.407,10.455,51.104,10.455,51.104z"/>
		<g>
			<g>
				<g>
					<path fill="#B01117" d="M48.162,43.698c0,0.854-0.42,2.341-2.079,2.341c-1.416,0-1.923-1.451-1.923-2.43v-7.033
						c0-0.205-0.079-1.785-1.944-1.785c-1.444,0-2.203,0.638-2.203,1.858v7.243c0.036,0.146,0.092,0.938-0.415,1.457
						c-0.353,0.377-0.816,0.562-1.457,0.562c-1.448,0-2.036-1.128-2.036-1.841v-7.609c-0.032-0.187-0.386-1.712-2.011-1.712
						c-1.628,0-2.192,0.887-2.247,1.712c0,0.408,0,0.408,0,1.307c0,0.875,0,2.666,0,6.592v0.023
						c-0.093,0.571-0.558,1.656-1.944,1.656c-1.188,0-1.946-1.043-1.946-2.028V33.275c0-0.145-0.022-0.809,0.363-1.272
						c0.326-0.382,0.847-0.593,1.535-0.593c0,0,0.022,0,0.093,0c0.226,0,0.971,0.049,1.525,0.819
						c0.497-0.514,1.56-1.222,3.389-1.282c2.327-0.039,3.478,0.655,4.225,1.432c0.568-0.561,1.774-1.493,3.631-1.493
						c2.336,0,3.545,1.085,4.225,1.933c0.599,0.661,1.221,2.118,1.221,3.588V43.698z M75.053,45.202
						c-0.373,0.266-0.748,0.405-1.121,0.405c-1.232,0-1.988-1.35-2.089-1.597l-2.972-4.147l-1.719,1.686l-0.023,2.135
						c0,0.676-0.44,2.043-2.032,2.043c-0.892,0-1.535-0.498-1.852-1.367c-0.273-0.661-0.273-1.345-0.273-1.628V30.473
						c0-0.251-0.155-1.645,0.567-2.461c0.316-0.396,0.754-0.598,1.346-0.598c0,0,0.088,0,0.189,0c0.464,0,1.969,0.201,1.969,2.99
						c0,1.511-0.037,4.766-0.07,6.309l4.293-4.273c0.146-0.192,1.176-1.492,2.342-1.492c0.518,0,0.945,0.215,1.353,0.655
						c0.253,0.327,0.397,0.712,0.364,1.114c-0.111,0.91-1.086,1.609-1.324,1.786l-2.451,2.458l3.664,5.273
						c0.111,0.104,0.663,0.877,0.542,1.776C75.729,44.477,75.458,44.885,75.053,45.202z M82.655,34.823
						c-2.008,0.347-2.021,2.444-2.021,2.549c0,0.739,0.013,4.705,0.013,4.916c0,0.189,0.085,1.94-0.762,2.846
						c-0.385,0.368-0.812,0.563-1.379,0.563l0,0c-0.065,0-0.709-0.022-1.219-0.495c-0.552-0.585-0.768-1.519-0.768-3.347v-8.309
						c-0.046-0.186-0.056-1.232,0.61-1.926c0.307-0.381,0.827-0.583,1.426-0.583c0.924,0,1.49,0.583,1.762,1.044
						c0.257-0.264,0.634-0.623,1.129-0.822c0.509-0.252,0.981-0.374,1.433-0.374c0.598,0,1.402,0.214,1.958,1.276l0.032,0.067
						c0.181,0.487,0.135,1.001-0.124,1.413C84.498,34.061,83.965,34.594,82.655,34.823z"/>
				</g>
			</g>
			<path fill="#B01117" d="M92.25,30.52c-4.193,0-7.674,3.582-7.674,7.796c0,4.162,3.459,7.688,7.537,7.688
				c1.944,0,3.896-0.802,5.343-2.306c1.459-1.495,2.272-3.44,2.272-5.438C99.729,34.061,96.283,30.52,92.25,30.52z M92.25,42.383
				c-1.944,0-3.38-1.814-3.38-4.122c0-2.359,1.436-4.098,3.38-4.098c1.85,0,3.331,1.804,3.331,4.098S94.1,42.383,92.25,42.383z"/>
			<path fill="#B01117" d="M61.924,43.812c0-0.34-0.157-7.469-0.157-9.379c0-2.317-2.251-3.84-5.801-3.84
				c-2.406,0-4.497,0.762-5.412,1.938c-0.483,0.617-0.628,1.388-0.438,2.18c0.238,0.773,0.804,1.189,1.615,1.189
				c0.735,0,1.548-0.39,1.953-0.965c0.792-1.255,1.968-1.575,3.504-1.08c0.87,0.361,0.893,0.8,0.681,1.407
				c-0.22,0.605-1.19,0.801-2.285,1.039h-0.045c-3.753,0.6-5.703,1.809-6.247,3.77v0.045c-0.598,2.614,1.151,4.3,1.185,4.359h0.022
				c1.098,0.991,2.418,1.504,3.876,1.504c1.65,0,3.076-0.66,3.706-0.971c0.259,0.373,0.85,0.887,2.032,0.887c0,0,0.024,0,0.069,0
				c0.556-0.047,0.952-0.199,1.287-0.576C61.967,44.783,61.943,43.947,61.924,43.812z M57.887,40.867
				c-0.146,0.768-0.551,1.77-2.538,1.835c-0.047,0-0.078,0-0.171,0c-0.768,0-1.365-0.189-1.751-0.573
				c-0.207-0.266-0.327-0.58-0.327-0.904c0.033-0.791,0.791-1.513,1.48-1.67c0.958-0.219,1.807-0.377,2.507-0.518
				c0.372-0.045,0.653-0.08,0.892-0.146C58.023,39.365,58.023,40.178,57.887,40.867z"/>
		</g>
	</g>
</g>
</svg>
