<?xml version="1.0" encoding="utf-8"?>
<!-- Generator: Adobe Illustrator 16.0.0, SVG Export Plug-In . SVG Version: 6.00 Build 0)  -->
<!DOCTYPE svg PUBLIC "-//W3C//DTD SVG 1.1//EN" "http://www.w3.org/Graphics/SVG/1.1/DTD/svg11.dtd">
<svg version="1.1" id="Capa_1" xmlns="http://www.w3.org/2000/svg" xmlns:xlink="http://www.w3.org/1999/xlink" x="0px" y="0px"
	 width="124.368px" height="96.666px" viewBox="0 0 124.368 96.666" enable-background="new 0 0 124.368 96.666"
	 xml:space="preserve">
<g>
	<rect fill="#FFFFFF" width="124.368" height="2.801"/>
	<rect x="0.117" y="2.801" fill="#DBDCDD" width="124.251" height="93.865"/>
	<g>
		<g>
			<g>
				<g>
					<g>
						<g>
							<g>
								<g>
									<g>
										<g>
											<g>
												<g>
													<g>
														<g>
															<polygon fill="#AE1F24" points="67.788,75.524 67.184,72.344 77.643,70.346 29.188,70.111 29.389,29.588 
																24.629,28.074 25.613,24.988 32.643,27.221 32.451,66.881 100.378,67.211 100.389,70.459 85.525,70.607 
																															"/>
														</g>
														<g>
															<path fill="#AE1F24" d="M31.083,62.771l-9.691-0.047l0.129-26.152l9.693,0.045L31.083,62.771z M23.352,60.786
																l5.791,0.03l0.107-22.258l-5.789-0.029L23.352,60.786z"/>
														</g>
														<g>
															<path fill="#AE1F24" d="M27.456,26.538c-0.004,1.296-1.056,2.33-2.344,2.323c-1.288-0.006-2.328-1.053-2.323-2.346
																c0.008-1.284,1.058-2.315,2.342-2.311C26.421,24.215,27.464,25.258,27.456,26.538z"/>
														</g>
													</g>
													<g>
														<path fill="#AE1F24" d="M101.803,78.067c-0.009,2.667-2.179,4.815-4.846,4.804c-2.669-0.013-4.821-2.184-4.809-4.851
															c0.012-2.661,2.186-4.819,4.855-4.811C99.672,73.225,101.818,75.406,101.803,78.067z"/>
														<path fill="#AE1F24" d="M96.952,83.756c-3.149-0.018-5.709-2.593-5.692-5.741c0.016-3.149,2.599-5.698,5.748-5.687
															c3.145,0.018,5.692,2.594,5.676,5.742C102.669,81.219,100.097,83.77,96.952,83.756z M96.998,74.1
															c-2.182-0.01-3.961,1.748-3.97,3.926c-0.011,2.175,1.751,3.957,3.931,3.969c2.178,0.01,3.95-1.754,3.962-3.932
															C100.932,75.885,99.178,74.113,96.998,74.1z"/>
													</g>
													<g>
														<path fill="#AE1F24" d="M35.148,77.279c-0.009,2.664-2.187,4.813-4.852,4.803c-2.666-0.016-4.817-2.187-4.807-4.85
															c0.014-2.672,2.188-4.822,4.855-4.812C33.006,72.435,35.162,74.607,35.148,77.279z"/>
														<path fill="#AE1F24" d="M30.292,82.964c-3.148-0.017-5.705-2.589-5.689-5.736c0.018-3.147,2.596-5.706,5.746-5.688
															c3.148,0.016,5.693,2.598,5.676,5.743C36.012,80.43,33.44,82.979,30.292,82.964z M30.341,73.312
															c-2.177-0.016-3.957,1.742-3.971,3.924c-0.009,2.167,1.754,3.957,3.932,3.969c2.173,0.012,3.949-1.763,3.961-3.931
															C34.273,75.094,32.509,73.32,30.341,73.312z"/>
													</g>
													<g>
														<path fill="#AE1F24" d="M68.434,78.578c-0.01,2.129-1.736,3.844-3.865,3.834c-2.131-0.01-3.853-1.744-3.845-3.873
															c0.011-2.131,1.749-3.849,3.881-3.836C66.734,74.711,68.445,76.445,68.434,78.578z"/>
														<path fill="#AE1F24" d="M64.563,83.291c-2.613-0.013-4.726-2.146-4.708-4.756c0.009-2.605,2.143-4.72,4.753-4.711
															c2.611,0.014,4.725,2.15,4.711,4.76C69.307,81.189,67.174,83.303,64.563,83.291z M64.603,75.582
															c-1.646-0.006-2.996,1.32-2.999,2.961c-0.013,1.637,1.325,2.988,2.97,2.994c1.641,0.008,2.98-1.324,2.989-2.964
															C67.568,76.932,66.244,75.588,64.603,75.582z"/>
													</g>
													<g>
														<polygon fill="#AE1F24" points="35.332,73.752 29.137,77.546 29.185,67.541 35.367,67.574 														"/>
													</g>
													<g>
														<polygon fill="#AE1F24" points="100.247,74.068 94.047,77.865 94.096,67.859 100.277,67.888 														"/>
													</g>
													<g>
														<polygon fill="#AE1F24" points="70,74.01 63.803,77.803 63.825,72.25 70.012,72.281 														"/>
													</g>
												</g>
												<g>
													<line fill="#AE1F24" x1="31.013" y1="54.488" x2="22.344" y2="54.443"/>
													
														<rect x="22.346" y="53.556" transform="matrix(1 0.0053 -0.0053 1 0.2889 -0.1405)" fill="#AE1F24" width="8.665" height="1.822"/>
												</g>
												<g>
													<line fill="#AE1F24" x1="31.059" y1="45.143" x2="23.156" y2="45.105"/>
													
														<rect x="23.156" y="44.216" transform="matrix(1 0.0047 -0.0047 1 0.2122 -0.1268)" fill="#AE1F24" width="7.903" height="1.813"/>
												</g>
											</g>
										</g>
										<g>
											<g>
												<g>
													<g>
														<g>
															<polygon fill="#AE1F24" points="67.788,75.524 67.184,72.344 77.643,70.346 29.188,70.111 29.389,29.588 
																24.629,28.074 25.613,24.988 32.643,27.221 32.451,66.881 100.378,67.211 100.389,70.459 85.525,70.607 
																															"/>
														</g>
														<g>
															<path fill="#AE1F24" d="M31.083,62.771l-9.691-0.047l0.129-26.152l9.693,0.045L31.083,62.771z M23.352,60.786
																l5.791,0.03l0.107-22.258l-5.789-0.029L23.352,60.786z"/>
														</g>
														<g>
															<path fill="#AE1F24" d="M27.456,26.538c-0.004,1.296-1.056,2.33-2.344,2.323c-1.288-0.006-2.328-1.053-2.323-2.346
																c0.008-1.284,1.058-2.315,2.342-2.311C26.421,24.215,27.464,25.258,27.456,26.538z"/>
														</g>
													</g>
													<g>
														<path fill="#AE1F24" d="M101.803,78.067c-0.009,2.667-2.179,4.815-4.846,4.804c-2.669-0.013-4.821-2.184-4.809-4.851
															c0.012-2.661,2.186-4.819,4.855-4.811C99.672,73.225,101.818,75.406,101.803,78.067z"/>
														<path fill="#AE1F24" d="M96.952,83.756c-3.149-0.018-5.709-2.593-5.692-5.741c0.016-3.149,2.599-5.698,5.748-5.687
															c3.145,0.018,5.692,2.594,5.676,5.742C102.669,81.219,100.097,83.77,96.952,83.756z M96.998,74.1
															c-2.182-0.01-3.961,1.748-3.97,3.926c-0.011,2.175,1.751,3.957,3.931,3.969c2.178,0.01,3.95-1.754,3.962-3.932
															C100.932,75.885,99.178,74.113,96.998,74.1z"/>
													</g>
													<g>
														<path fill="#AE1F24" d="M35.148,77.279c-0.009,2.664-2.187,4.813-4.852,4.803c-2.666-0.016-4.817-2.187-4.807-4.85
															c0.014-2.672,2.188-4.822,4.855-4.812C33.006,72.435,35.162,74.607,35.148,77.279z"/>
														<path fill="#AE1F24" d="M30.292,82.964c-3.148-0.017-5.705-2.589-5.689-5.736c0.018-3.147,2.596-5.706,5.746-5.688
															c3.148,0.016,5.693,2.598,5.676,5.743C36.012,80.43,33.44,82.979,30.292,82.964z M30.341,73.312
															c-2.177-0.016-3.957,1.742-3.971,3.924c-0.009,2.167,1.754,3.957,3.932,3.969c2.173,0.012,3.949-1.763,3.961-3.931
															C34.273,75.094,32.509,73.32,30.341,73.312z"/>
													</g>
													<g>
														<path fill="#AE1F24" d="M68.434,78.578c-0.01,2.129-1.736,3.844-3.865,3.834c-2.131-0.01-3.853-1.744-3.845-3.873
															c0.011-2.131,1.749-3.849,3.881-3.836C66.734,74.711,68.445,76.445,68.434,78.578z"/>
														<path fill="#AE1F24" d="M64.563,83.291c-2.613-0.013-4.726-2.146-4.708-4.756c0.009-2.605,2.143-4.72,4.753-4.711
															c2.611,0.014,4.725,2.15,4.711,4.76C69.307,81.189,67.174,83.303,64.563,83.291z M64.603,75.582
															c-1.646-0.006-2.996,1.32-2.999,2.961c-0.013,1.637,1.325,2.988,2.97,2.994c1.641,0.008,2.98-1.324,2.989-2.964
															C67.568,76.932,66.244,75.588,64.603,75.582z"/>
													</g>
													<g>
														<polygon fill="#AE1F24" points="35.332,73.752 29.137,77.546 29.185,67.541 35.367,67.574 														"/>
													</g>
													<g>
														<polygon fill="#AE1F24" points="100.247,74.068 94.047,77.865 94.096,67.859 100.277,67.888 														"/>
													</g>
													<g>
														<polygon fill="#AE1F24" points="70,74.01 63.803,77.803 63.825,72.25 70.012,72.281 														"/>
													</g>
												</g>
												<g>
													<line fill="#AE1F24" x1="31.013" y1="54.488" x2="22.344" y2="54.443"/>
													
														<rect x="22.346" y="53.556" transform="matrix(1 0.0053 -0.0053 1 0.2889 -0.1405)" fill="#AE1F24" width="8.665" height="1.822"/>
												</g>
												<g>
													<line fill="#AE1F24" x1="31.059" y1="45.143" x2="23.156" y2="45.105"/>
													
														<rect x="23.156" y="44.216" transform="matrix(1 0.0047 -0.0047 1 0.2122 -0.1268)" fill="#AE1F24" width="7.903" height="1.813"/>
												</g>
											</g>
										</g>
										<g>
											<g>
												<g>
													<g>
														<g>
															<polygon fill="#AE1F24" points="67.788,75.524 67.184,72.344 77.643,70.346 29.188,70.111 29.389,29.588 
																24.629,28.074 25.613,24.988 32.643,27.221 32.451,66.881 100.378,67.211 100.389,70.459 85.525,70.607 
																															"/>
														</g>
														<g>
															<path fill="#AE1F24" d="M31.083,62.771l-9.691-0.047l0.129-26.152l9.693,0.045L31.083,62.771z M23.352,60.786
																l5.791,0.03l0.107-22.258l-5.789-0.029L23.352,60.786z"/>
														</g>
														<g>
															<path fill="#AE1F24" d="M27.456,26.538c-0.004,1.296-1.056,2.33-2.344,2.323c-1.288-0.006-2.328-1.053-2.323-2.346
																c0.008-1.284,1.058-2.315,2.342-2.311C26.421,24.215,27.464,25.258,27.456,26.538z"/>
														</g>
													</g>
													<g>
														<path fill="#AE1F24" d="M101.803,78.067c-0.009,2.667-2.179,4.815-4.846,4.804c-2.669-0.013-4.821-2.184-4.809-4.851
															c0.012-2.661,2.186-4.819,4.855-4.811C99.672,73.225,101.818,75.406,101.803,78.067z"/>
														<path fill="#AE1F24" d="M96.952,83.756c-3.149-0.018-5.709-2.593-5.692-5.741c0.016-3.149,2.599-5.698,5.748-5.687
															c3.145,0.018,5.692,2.594,5.676,5.742C102.669,81.219,100.097,83.77,96.952,83.756z M96.998,74.1
															c-2.182-0.01-3.961,1.748-3.97,3.926c-0.011,2.175,1.751,3.957,3.931,3.969c2.178,0.01,3.95-1.754,3.962-3.932
															C100.932,75.885,99.178,74.113,96.998,74.1z"/>
													</g>
													<g>
														<path fill="#AE1F24" d="M35.148,77.279c-0.009,2.664-2.187,4.813-4.852,4.803c-2.666-0.016-4.817-2.187-4.807-4.85
															c0.014-2.672,2.188-4.822,4.855-4.812C33.006,72.435,35.162,74.607,35.148,77.279z"/>
														<path fill="#AE1F24" d="M30.292,82.964c-3.148-0.017-5.705-2.589-5.689-5.736c0.018-3.147,2.596-5.706,5.746-5.688
															c3.148,0.016,5.693,2.598,5.676,5.743C36.012,80.43,33.44,82.979,30.292,82.964z M30.341,73.312
															c-2.177-0.016-3.957,1.742-3.971,3.924c-0.009,2.167,1.754,3.957,3.932,3.969c2.173,0.012,3.949-1.763,3.961-3.931
															C34.273,75.094,32.509,73.32,30.341,73.312z"/>
													</g>
													<g>
														<path fill="#AE1F24" d="M68.434,78.578c-0.01,2.129-1.736,3.844-3.865,3.834c-2.131-0.01-3.853-1.744-3.845-3.873
															c0.011-2.131,1.749-3.849,3.881-3.836C66.734,74.711,68.445,76.445,68.434,78.578z"/>
														<path fill="#AE1F24" d="M64.563,83.291c-2.613-0.013-4.726-2.146-4.708-4.756c0.009-2.605,2.143-4.72,4.753-4.711
															c2.611,0.014,4.725,2.15,4.711,4.76C69.307,81.189,67.174,83.303,64.563,83.291z M64.603,75.582
															c-1.646-0.006-2.996,1.32-2.999,2.961c-0.013,1.637,1.325,2.988,2.97,2.994c1.641,0.008,2.98-1.324,2.989-2.964
															C67.568,76.932,66.244,75.588,64.603,75.582z"/>
													</g>
													<g>
														<polygon fill="#AE1F24" points="35.332,73.752 29.137,77.546 29.185,67.541 35.367,67.574 														"/>
													</g>
													<g>
														<polygon fill="#AE1F24" points="100.247,74.068 94.047,77.865 94.096,67.859 100.277,67.888 														"/>
													</g>
													<g>
														<polygon fill="#AE1F24" points="70,74.01 63.803,77.803 63.825,72.25 70.012,72.281 														"/>
													</g>
												</g>
												<g>
													<line fill="#AE1F24" x1="31.013" y1="54.488" x2="22.344" y2="54.443"/>
													
														<rect x="22.346" y="53.556" transform="matrix(1 0.0053 -0.0053 1 0.2889 -0.1405)" fill="#AE1F24" width="8.665" height="1.822"/>
												</g>
												<g>
													<line fill="#AE1F24" x1="31.059" y1="45.143" x2="23.156" y2="45.105"/>
													
														<rect x="23.156" y="44.216" transform="matrix(1 0.0047 -0.0047 1 0.2122 -0.1268)" fill="#AE1F24" width="7.903" height="1.813"/>
												</g>
											</g>
										</g>
									</g>
								</g>
							</g>
						</g>
					</g>
				</g>
				<g>
					<path fill="#AE1F24" d="M65.44,44.291v6.31c1.542,0,2.631-1.546,2.631-3.088C68.071,45.605,67.073,44.787,65.44,44.291z"/>
					<path fill="#AE1F24" d="M60.22,33.443c0,1.451,1.18,2.312,2.497,2.632v-5.63C61.31,30.766,60.22,31.809,60.22,33.443z"/>
					<path fill="#AE1F24" d="M87.812,41.102l2.849-4.212l-4.019-3.134l1.414-4.878l-4.776-1.737l-0.176-5.088l-5.083-0.172
						l-1.738-4.787l-4.889,1.412l-3.123-4.005l-4.215,2.842l-4.212-2.842l-3.135,4.005l-4.883-1.412l-1.735,4.787l-5.085,0.172
						l-0.176,5.088l-4.778,1.737l1.409,4.882l-4.019,3.13l2.853,4.212l-2.853,4.211l4.019,3.131l-1.409,4.887l4.778,1.739
						l0.176,5.076l5.085,0.173l1.735,4.789l4.888-1.414l3.13,4.016l4.212-2.847l4.215,2.847l3.123-4.016l4.889,1.414l1.738-4.789
						l5.083-0.173l0.176-5.076l4.776-1.733l-1.414-4.889l4.019-3.135L87.812,41.102z M65.44,57.68v1.996
						c0,0.861-0.409,1.363-1.358,1.363c-1.049,0-1.365-0.502-1.365-1.363V57.68c-2.998-0.182-10.257-0.999-10.257-5.266
						c0-1.906,1.405-3.765,3.266-3.765c1.588,0,3.859,1.951,6.991,1.951v-7.036c-7.629-2.224-10.12-5.037-10.12-9.215
						c0-6.082,4.63-9.94,10.12-10.438v-2.09c0-0.862,0.407-1.361,1.365-1.361c1.036,0,1.358,0.499,1.358,1.361v2.09
						C68.3,24,73.473,24.91,73.473,28.721c0,1.725-1.178,3.403-3.041,3.403c-1.68,0-3.088-1.679-4.991-1.679v6.4
						c5.172,1.453,10.257,3.859,10.257,10.121C75.697,54.047,69.843,57.407,65.44,57.68z"/>
				</g>
			</g>
		</g>
	</g>
</g>
</svg>
