<?xml version="1.0" encoding="utf-8"?>
<!-- Generator: Adobe Illustrator 16.0.0, SVG Export Plug-In . SVG Version: 6.00 Build 0)  -->
<!DOCTYPE svg PUBLIC "-//W3C//DTD SVG 1.1//EN" "http://www.w3.org/Graphics/SVG/1.1/DTD/svg11.dtd">
<svg version="1.1" id="Capa_1" xmlns="http://www.w3.org/2000/svg" xmlns:xlink="http://www.w3.org/1999/xlink" x="0px" y="0px"
	 width="124.368px" height="96.666px" viewBox="0 0 124.368 96.666" enable-background="new 0 0 124.368 96.666"
	 xml:space="preserve">
<g>
	<g>
		<rect x="0.118" y="2.801" fill="#DBDCDD" width="124.25" height="93.865"/>
	</g>
	<rect fill="#FFFFFF" width="124.368" height="2.801"/>
	<g>
		<g>
			<path fill="#AE1F24" d="M63.601,82.369l-5.237-3.55l-5.243,3.55l-3.891-4.998l-6.078,1.756l-2.156-5.951l-6.326-0.213
				l-0.216-6.322l-5.942-2.157l1.747-6.079l-4.995-3.893l3.548-5.24l-3.548-5.236l4.995-3.895l-1.75-6.078l5.945-2.157l0.216-6.325
				l6.326-0.217l2.156-5.949l6.078,1.757l3.891-4.985l5.243,3.537l5.237-3.537l3.892,4.985l6.082-1.757l2.153,5.949l6.326,0.217
				l0.214,6.325l5.949,2.157l-1.758,6.078l4.994,3.895l-3.543,5.236l3.543,5.24l-4.994,3.89l1.756,6.082l-5.947,2.157l-0.214,6.322
				l-6.326,0.213l-2.153,5.951l-6.082-1.756L63.601,82.369z M50.485,73.513l3.355,4.312l4.522-3.062l4.52,3.062l3.355-4.312
				l5.248,1.513l1.858-5.13l5.456-0.186l0.186-5.454l5.128-1.858l-1.513-5.246l4.305-3.359l-3.058-4.521l3.058-4.52l-4.305-3.361
				l1.513-5.243l-5.128-1.858l-0.186-5.457l-5.456-0.186l-1.858-5.131l-5.248,1.512l-3.355-4.303l-4.52,3.053l-4.522-3.053
				l-3.359,4.303l-5.245-1.512l-1.855,5.131l-5.459,0.186l-0.187,5.457l-5.127,1.858l1.51,5.245l-4.311,3.359l3.061,4.52
				l-3.061,4.521l4.311,3.354l-1.51,5.248l5.127,1.861l0.187,5.454l5.459,0.186l1.855,5.13L50.485,73.513z"/>
		</g>
		<g>
			<path fill="#AE1F24" d="M48.771,49.734c1.373,0.109,2.118,1.041,2.118,2.377c0,1.264-0.745,2.193-2.118,2.305h-7.915
				c-1.373-0.111-2.119-1.041-2.119-2.305c0-1.336,0.746-2.268,2.119-2.377H48.771z"/>
			<path fill="#AE1F24" d="M49.476,41.967c0-3.232,2.417-6.021,5.725-6.021c3.309,0,5.719,2.789,5.719,6.021
				s-2.41,5.983-5.719,5.983C51.893,47.95,49.476,45.199,49.476,41.967z M57.132,41.967c0-1.189-0.706-2.229-1.932-2.229
				c-1.229,0-1.934,1.039-1.934,2.229c0,1.191,0.705,2.192,1.934,2.192C56.426,44.159,57.132,43.158,57.132,41.967z M66.163,36.912
				c0.48-0.93,0.853-1.189,1.708-1.189c1.153,0,2.195,0.93,2.195,2.082c0,0.298,0,0.559-0.302,1.113L57.28,62.295
				c-0.558,0.781-0.78,1.227-1.673,1.227c-0.968,0-2.12-0.932-2.12-2.044c0-0.557,0.226-1.079,0.374-1.376L66.163,36.912z
				 M62.557,57.312c0-3.229,2.415-6.018,5.724-6.018c3.306,0,5.721,2.788,5.721,6.018c0,3.234-2.415,5.986-5.721,5.986
				C64.972,63.299,62.557,60.547,62.557,57.312z M70.213,57.312c0-1.188-0.709-2.229-1.933-2.229c-1.228,0-1.935,1.041-1.935,2.229
				c0,1.192,0.707,2.196,1.935,2.196C69.504,59.509,70.213,58.505,70.213,57.312z"/>
		</g>
	</g>
</g>
</svg>
