<?xml version="1.0" encoding="utf-8"?>
<!-- Generator: Adobe Illustrator 16.0.0, SVG Export Plug-In . SVG Version: 6.00 Build 0)  -->
<!DOCTYPE svg PUBLIC "-//W3C//DTD SVG 1.1//EN" "http://www.w3.org/Graphics/SVG/1.1/DTD/svg11.dtd">
<svg version="1.1" id="Capa_1" xmlns="http://www.w3.org/2000/svg" xmlns:xlink="http://www.w3.org/1999/xlink" x="0px" y="0px"
	 width="331.36px" height="109.607px" viewBox="0 0 331.36 109.607" enable-background="new 0 0 331.36 109.607"
	 xml:space="preserve">
<g>
	<linearGradient id="SVGID_1_" gradientUnits="userSpaceOnUse" x1="165.6797" y1="-0.5728" x2="165.6797" y2="127.4289">
		<stop  offset="0.0109" style="stop-color:#D71921"/>
		<stop  offset="1" style="stop-color:#C7161D"/>
	</linearGradient>
	<rect fill="url(#SVGID_1_)" width="331.36" height="109.333"/>
	<polygon opacity="0.2" fill="#FFFFFF" points="242.422,109.607 96.086,109.607 96.086,0.002 242.422,0.002 242.422,43.852 
		255.224,44.23 242.422,57.212 	"/>
	<g>
		<g>
			<g>
				<path fill="#FFFFFF" d="M45.51,74.047c-0.295,0.058-0.648,0.125-1.049,0.216c-0.287,0.065-0.605,0.367-0.619,0.697
					c0,0.137,0.051,0.267,0.139,0.376c0.158,0.162,0.41,0.241,0.73,0.241c0.037,0,0.051,0,0.07,0c0.83-0.026,1-0.446,1.061-0.768
					c0.059-0.286,0.059-0.626,0.039-0.823C45.781,74.013,45.664,74.028,45.51,74.047z"/>
				<path fill="#FFFFFF" d="M60.191,72.011c-0.812,0-1.412,0.728-1.412,1.712c0,0.964,0.6,1.721,1.412,1.721
					c0.771,0,1.389-0.762,1.389-1.721C61.58,72.765,60.963,72.011,60.191,72.011z"/>
				<path fill="#FFFFFF" d="M15.129,66.589v13.046h66.125V66.589H15.129z M41.781,75.993c0,0.355-0.176,0.977-0.867,0.977
					c-0.592,0-0.805-0.604-0.805-1.015v-2.938c0-0.085-0.031-0.746-0.809-0.746c-0.605,0-0.924,0.27-0.924,0.779v3.022
					c0.016,0.062,0.041,0.394-0.172,0.608c-0.146,0.16-0.342,0.234-0.609,0.234c-0.604,0-0.85-0.471-0.85-0.769v-3.177
					c-0.014-0.078-0.16-0.714-0.84-0.714s-0.916,0.369-0.939,0.714c0,0.172,0,0.172,0,0.547c0,0.363,0,1.112,0,2.75v0.01
					c-0.037,0.24-0.23,0.692-0.811,0.692c-0.494,0-0.812-0.437-0.812-0.848v-4.481c0-0.061-0.01-0.337,0.152-0.533
					c0.137-0.158,0.354-0.246,0.641-0.246c0,0,0.01,0,0.039,0c0.096,0,0.406,0.021,0.637,0.343c0.207-0.215,0.65-0.508,1.416-0.536
					c0.971-0.016,1.451,0.273,1.762,0.598c0.236-0.232,0.742-0.623,1.516-0.623c0.979,0,1.48,0.455,1.766,0.809
					c0.25,0.273,0.51,0.884,0.51,1.496V75.993z M47.338,76.669c-0.143,0.159-0.307,0.223-0.539,0.243c-0.018,0-0.029,0-0.029,0
					c-0.492,0-0.738-0.217-0.848-0.371c-0.264,0.128-0.857,0.405-1.547,0.405c-0.609,0-1.16-0.215-1.619-0.629h-0.01
					c-0.012-0.025-0.744-0.728-0.494-1.821v-0.017c0.227-0.821,1.041-1.326,2.609-1.575h0.02c0.457-0.1,0.861-0.183,0.951-0.433
					c0.09-0.254,0.082-0.437-0.283-0.587c-0.641-0.209-1.133-0.073-1.463,0.45c-0.168,0.241-0.51,0.403-0.814,0.403
					c-0.34,0-0.576-0.175-0.676-0.498c-0.078-0.332-0.018-0.653,0.184-0.91c0.383-0.492,1.256-0.81,2.262-0.81
					c1.48,0,2.42,0.636,2.42,1.603c0,0.8,0.066,3.776,0.066,3.918C47.537,76.098,47.547,76.445,47.338,76.669z M53.008,76.622
					c-0.154,0.109-0.311,0.168-0.469,0.168c-0.514,0-0.828-0.563-0.869-0.668l-1.242-1.73l-0.717,0.705l-0.008,0.892
					c0,0.279-0.186,0.854-0.852,0.854c-0.371,0-0.639-0.21-0.773-0.574c-0.113-0.274-0.113-0.56-0.113-0.678v-5.12
					c0-0.104-0.062-0.688,0.236-1.025c0.131-0.166,0.314-0.251,0.562-0.251c0,0,0.037,0,0.078,0c0.195,0,0.822,0.085,0.822,1.248
					c0,0.633-0.014,1.991-0.029,2.634l1.793-1.785c0.061-0.078,0.492-0.622,0.979-0.622c0.217,0,0.395,0.09,0.564,0.273
					c0.105,0.138,0.166,0.298,0.15,0.467c-0.045,0.38-0.453,0.671-0.551,0.745l-1.023,1.026l1.529,2.202
					c0.045,0.042,0.277,0.366,0.227,0.74C53.293,76.317,53.18,76.488,53.008,76.622z M56.184,72.285
					c-0.84,0.147-0.844,1.022-0.844,1.066c0,0.307,0.004,1.966,0.004,2.052c0,0.078,0.037,0.81-0.314,1.188
					c-0.162,0.154-0.342,0.236-0.576,0.236l0,0c-0.029,0-0.297-0.011-0.51-0.206c-0.23-0.244-0.32-0.634-0.32-1.397v-3.471
					c-0.02-0.078-0.027-0.515,0.254-0.805c0.127-0.158,0.346-0.243,0.596-0.243c0.387,0,0.621,0.243,0.734,0.437
					c0.107-0.109,0.266-0.261,0.473-0.346c0.211-0.101,0.408-0.154,0.598-0.154c0.25,0,0.586,0.089,0.818,0.533l0.012,0.028
					c0.076,0.204,0.057,0.416-0.051,0.589C56.953,71.969,56.73,72.191,56.184,72.285z M62.363,75.993
					c-0.604,0.629-1.418,0.963-2.232,0.963c-1.701,0-3.145-1.475-3.145-3.211c0-1.76,1.453-3.255,3.205-3.255
					c1.684,0,3.121,1.479,3.121,3.232C63.312,74.556,62.973,75.369,62.363,75.993z"/>
			</g>
			<g>
				<path fill="#FFFFFF" d="M18.209,56.368c1.379,0,2.385,1.066,2.385,2.488c0,1.46-1.029,2.516-2.385,2.516h-1.117v2.575h-1.9
					v-7.579H18.209z M17.092,59.833h0.701c0.648,0,0.965-0.418,0.965-0.977c0-0.524-0.279-0.971-0.924-0.971h-0.742V59.833z"/>
				<path fill="#FFFFFF" d="M24.357,56.368c1.627,0,2.477,1.066,2.477,2.402c0,0.996-0.404,1.626-1.236,2.089l1.49,3.088h-1.961
					l-1.25-2.74h-0.596v2.74h-1.854v-7.579H24.357z M23.281,59.671h0.936c0.434,0,0.824-0.391,0.824-0.876
					c0-0.48-0.316-0.909-0.824-0.909h-0.936V59.671z"/>
				<path fill="#FFFFFF" d="M30.953,56.209c2.104,0,3.406,1.59,3.406,3.921c0,2.282-1.203,3.964-3.406,3.976
					c-2.207-0.012-3.412-1.693-3.412-3.976C27.541,57.799,28.844,56.209,30.953,56.209z M30.953,62.528
					c0.971,0,1.439-0.924,1.439-2.398c0-1.406-0.543-2.351-1.439-2.351c-0.9,0-1.443,0.944-1.443,2.351
					C29.51,61.604,30,62.528,30.953,62.528z"/>
				<path fill="#FFFFFF" d="M40.281,56.368v1.518h-3.043v1.738h2.6v1.524h-2.6v2.799h-1.902v-7.579H40.281z"/>
				<path fill="#FFFFFF" d="M45.965,56.368v1.518h-2.9v1.592h2.506v1.549h-2.506v1.386h2.924v1.535h-4.836v-7.579H45.965z"/>
				<path fill="#FFFFFF" d="M48.998,64.105c-0.863,0.02-1.703-0.195-2.354-0.55l0.551-1.456c0,0,0.91,0.444,1.748,0.444
					c0.82,0,0.873-0.432,0.873-0.629c0-0.505-0.439-0.651-1.119-0.94c-0.986-0.402-2.016-0.949-2.016-2.494
					c0-1.609,1.197-2.271,2.543-2.271c0.797,0,1.637,0.214,2.309,0.522l-0.506,1.438c0,0-0.857-0.371-1.553-0.371
					c-0.531,0-0.877,0.223-0.877,0.664c0,0.534,0.5,0.689,1.219,0.991c0.881,0.377,1.938,0.872,1.938,2.36
					C51.754,63.537,50.354,64.105,48.998,64.105z"/>
				<path fill="#FFFFFF" d="M54.57,56.368v7.579h-1.887v-7.579H54.57z"/>
				<path fill="#FFFFFF" d="M58.982,56.209c2.084,0,3.414,1.59,3.414,3.921c0,2.282-1.197,3.964-3.414,3.976
					c-2.229-0.012-3.406-1.693-3.406-3.976C55.576,57.799,56.863,56.209,58.982,56.209z M58.982,62.528
					c0.957,0,1.438-0.924,1.438-2.398c0-1.406-0.547-2.351-1.438-2.351c-0.906,0-1.453,0.944-1.453,2.351
					C57.529,61.604,58.033,62.528,58.982,62.528z"/>
				<path fill="#FFFFFF" d="M65.334,56.368l1.857,4.23h0.021c-0.061-0.975-0.051-1.943-0.051-1.943v-2.287h1.906v7.579h-1.961
					l-1.885-4.363h-0.02c0,0,0.064,0.9,0.064,1.914v2.449h-1.916v-7.579H65.334z"/>
				<path fill="#FFFFFF" d="M74.225,56.317l2.152,7.63h-1.969l-0.445-1.807h-1.889l-0.449,1.807h-1.922l2.191-7.63H74.225z
					 M72.459,60.68h1.121l-0.549-2.593h-0.023L72.459,60.68z"/>
				<path fill="#FFFFFF" d="M78.93,56.368v6.044h2.48v1.535h-4.373v-7.579H78.93z"/>
			</g>
			<g>
				<path fill="#FFFFFF" d="M14.738,44.083c0-5.194,4.051-9.288,9.502-9.288c2.029,0,3.717,0.567,5.146,1.315l-0.5,0.996
					c0,0-2.104-1.161-4.75-1.161c-4.6,0-8.041,3.542-8.041,8.138c0,4.594,3.441,8.124,8.041,8.124c2.592,0,4.75-1.168,4.75-1.168
					l0.5,1.046c-1.457,0.709-3.307,1.283-5.275,1.283C18.824,53.368,14.738,49.271,14.738,44.083z"/>
				<path fill="#FFFFFF" d="M35.689,35v17.059h10.402v1.119H34.387V35H35.689z"/>
				<path fill="#FFFFFF" d="M61.244,47.486V35h1.301v12.458c-0.043,3.808-2.982,5.91-6.695,5.91s-6.648-2.103-6.695-5.91V35h1.301
					v12.486c0,2.751,2.229,4.721,5.395,4.721C59.01,52.207,61.244,50.237,61.244,47.486z"/>
				<path fill="#FFFFFF" d="M75.777,35c2.75,0,4.982,1.884,4.982,4.829c0,2.03-1.07,3.528-2.486,4.048
					c1.861,0.576,3.434,1.973,3.434,4.413c0,2.932-2.154,4.888-4.986,4.888h-7.896V35H75.777z M70.125,43.423h6.025
					c1.99,0,3.303-1.254,3.303-3.394c0-2.376-1.496-3.919-3.705-3.919h-5.623V43.423z M76.629,52.059
					c2.074,0,3.801-1.566,3.801-3.793c0-1.992-1.582-3.769-3.771-3.769h-6.533v7.562H76.629z"/>
			</g>
		</g>
	</g>
	<g>
		<text transform="matrix(1 0 0 1 106.2402 72.8574)"><tspan x="0" y="0" fill="#FFFFFF" font-family="'VAGRounded-Light'" font-size="45.9879" letter-spacing="1">$</tspan><tspan x="24.006" y="5.046" fill="#FFFFFF" font-family="'VAGRounded-Light'" font-size="61.1262" letter-spacing="2">500</tspan></text>
	</g>
	<g>
		<text transform="matrix(1 0 0 1 262.0615 46.4268)"><tspan x="0" y="0" fill="#FFFFFF" font-family="'VAGRounded-Light'" font-size="13.3867">PARA TU</tspan><tspan x="0" y="14.407" fill="#FFFFFF" font-family="'VAGRounded-Bold'" font-size="12.5909">PRIMERA</tspan><tspan x="0" y="28.814" fill="#FFFFFF" font-family="'VAGRounded-Bold'" font-size="12.5909">COMPRA</tspan></text>
	</g>
</g>
</svg>
