<?xml version="1.0" encoding="utf-8"?>
<!-- Generator: Adobe Illustrator 16.0.0, SVG Export Plug-In . SVG Version: 6.00 Build 0)  -->
<!DOCTYPE svg PUBLIC "-//W3C//DTD SVG 1.1//EN" "http://www.w3.org/Graphics/SVG/1.1/DTD/svg11.dtd">
<svg version="1.1" id="Capa_1" xmlns="http://www.w3.org/2000/svg" xmlns:xlink="http://www.w3.org/1999/xlink" x="0px" y="0px"
	 width="331.361px" height="109.607px" viewBox="0 0 331.361 109.607" enable-background="new 0 0 331.361 109.607"
	 xml:space="preserve">
<g>
	<linearGradient id="SVGID_1_" gradientUnits="userSpaceOnUse" x1="165.6812" y1="-0.5728" x2="165.6812" y2="127.4294">
		<stop  offset="0.0109" style="stop-color:#D71921"/>
		<stop  offset="1" style="stop-color:#C7161D"/>
	</linearGradient>
	<rect fill="url(#SVGID_1_)" width="331.361" height="109.333"/>
	<polygon opacity="0.2" fill="#FFFFFF" points="242.423,109.607 96.085,109.607 96.085,0.002 242.423,0.002 242.423,43.852 
		255.224,44.23 242.423,57.212 	"/>
	<g>
		<g>
			<g>
				<path fill="#FFFFFF" d="M45.51,74.047c-0.294,0.058-0.648,0.125-1.049,0.216c-0.287,0.065-0.605,0.367-0.618,0.697
					c0,0.137,0.051,0.267,0.138,0.376c0.159,0.162,0.41,0.241,0.73,0.241c0.037,0,0.052,0,0.071,0
					c0.829-0.026,0.999-0.446,1.06-0.768c0.059-0.286,0.059-0.626,0.039-0.823C45.781,74.013,45.664,74.028,45.51,74.047z"/>
				<path fill="#FFFFFF" d="M60.192,72.011c-0.813,0-1.413,0.728-1.413,1.712c0,0.964,0.6,1.721,1.413,1.721
					c0.771,0,1.389-0.762,1.389-1.721C61.581,72.765,60.963,72.011,60.192,72.011z"/>
				<path fill="#FFFFFF" d="M15.129,66.589v13.046h66.125V66.589H15.129z M41.781,75.993c0,0.355-0.176,0.977-0.867,0.977
					c-0.592,0-0.804-0.604-0.804-1.015v-2.938c0-0.085-0.031-0.746-0.81-0.746c-0.605,0-0.923,0.27-0.923,0.779v3.022
					c0.016,0.062,0.04,0.394-0.172,0.608c-0.147,0.16-0.342,0.234-0.609,0.234c-0.604,0-0.85-0.471-0.85-0.769v-3.177
					c-0.014-0.078-0.16-0.714-0.84-0.714s-0.916,0.369-0.939,0.714c0,0.172,0,0.172,0,0.547c0,0.363,0,1.112,0,2.75v0.01
					c-0.037,0.24-0.23,0.692-0.811,0.692c-0.495,0-0.813-0.437-0.813-0.848v-4.481c0-0.061-0.009-0.337,0.153-0.533
					c0.136-0.158,0.353-0.246,0.641-0.246c0,0,0.01,0,0.038,0c0.096,0,0.406,0.021,0.637,0.343c0.207-0.215,0.651-0.508,1.416-0.536
					c0.972-0.016,1.452,0.273,1.763,0.598c0.236-0.232,0.742-0.623,1.516-0.623c0.978,0,1.48,0.455,1.766,0.809
					c0.249,0.273,0.509,0.884,0.509,1.496V75.993z M47.338,76.669c-0.142,0.159-0.307,0.223-0.538,0.243c-0.018,0-0.029,0-0.029,0
					c-0.493,0-0.738-0.217-0.849-0.371c-0.263,0.128-0.856,0.405-1.546,0.405c-0.609,0-1.16-0.215-1.62-0.629h-0.01
					c-0.012-0.025-0.743-0.728-0.494-1.821v-0.017c0.228-0.821,1.041-1.326,2.609-1.575h0.02c0.457-0.1,0.862-0.183,0.952-0.433
					c0.089-0.254,0.081-0.437-0.283-0.587c-0.642-0.209-1.133-0.073-1.463,0.45c-0.169,0.241-0.51,0.403-0.815,0.403
					c-0.339,0-0.575-0.175-0.676-0.498c-0.078-0.332-0.018-0.653,0.184-0.91c0.384-0.492,1.256-0.81,2.262-0.81
					c1.48,0,2.42,0.636,2.42,1.603c0,0.8,0.067,3.776,0.067,3.918C47.537,76.098,47.547,76.445,47.338,76.669z M53.009,76.622
					c-0.155,0.109-0.312,0.168-0.469,0.168c-0.514,0-0.829-0.563-0.87-0.668l-1.241-1.73l-0.717,0.705l-0.009,0.892
					c0,0.279-0.186,0.854-0.852,0.854c-0.371,0-0.639-0.21-0.772-0.574c-0.113-0.274-0.113-0.56-0.113-0.678v-5.12
					c0-0.104-0.063-0.688,0.236-1.025c0.131-0.166,0.314-0.251,0.562-0.251c0,0,0.036,0,0.077,0c0.195,0,0.823,0.085,0.823,1.248
					c0,0.633-0.015,1.991-0.029,2.634l1.793-1.785c0.06-0.078,0.491-0.622,0.978-0.622c0.217,0,0.395,0.09,0.565,0.273
					c0.104,0.138,0.165,0.298,0.15,0.467c-0.046,0.38-0.453,0.671-0.552,0.745l-1.023,1.026l1.529,2.202
					c0.046,0.042,0.277,0.366,0.227,0.74C53.293,76.317,53.18,76.488,53.009,76.622z M56.184,72.285
					c-0.839,0.147-0.844,1.022-0.844,1.066c0,0.307,0.005,1.966,0.005,2.052c0,0.078,0.037,0.81-0.315,1.188
					c-0.162,0.154-0.341,0.236-0.576,0.236l0,0c-0.028,0-0.297-0.011-0.51-0.206c-0.23-0.244-0.32-0.634-0.32-1.397v-3.471
					c-0.02-0.078-0.026-0.515,0.255-0.805c0.126-0.158,0.345-0.243,0.595-0.243c0.387,0,0.621,0.243,0.735,0.437
					c0.107-0.109,0.266-0.261,0.472-0.346c0.212-0.101,0.409-0.154,0.599-0.154c0.25,0,0.585,0.089,0.817,0.533l0.013,0.028
					c0.076,0.204,0.057,0.416-0.051,0.589C56.954,71.969,56.731,72.191,56.184,72.285z M62.364,75.993
					c-0.604,0.629-1.419,0.963-2.232,0.963c-1.702,0-3.146-1.475-3.146-3.211c0-1.76,1.453-3.255,3.206-3.255
					c1.683,0,3.12,1.479,3.12,3.232C63.312,74.556,62.973,75.369,62.364,75.993z"/>
			</g>
			<g>
				<path fill="#FFFFFF" d="M18.21,56.368c1.378,0,2.384,1.066,2.384,2.488c0,1.46-1.029,2.516-2.384,2.516h-1.117v2.575h-1.9
					v-7.579H18.21z M17.093,59.833h0.701c0.648,0,0.964-0.418,0.964-0.977c0-0.524-0.278-0.971-0.923-0.971h-0.742V59.833z"/>
				<path fill="#FFFFFF" d="M24.358,56.368c1.627,0,2.476,1.066,2.476,2.402c0,0.996-0.404,1.626-1.235,2.089l1.49,3.088h-1.962
					l-1.25-2.74h-0.596v2.74h-1.853v-7.579H24.358z M23.281,59.671h0.937c0.434,0,0.823-0.391,0.823-0.876
					c0-0.48-0.315-0.909-0.823-0.909h-0.937V59.671z"/>
				<path fill="#FFFFFF" d="M30.953,56.209c2.104,0,3.406,1.59,3.406,3.921c0,2.282-1.203,3.964-3.406,3.976
					c-2.207-0.012-3.411-1.693-3.411-3.976C27.542,57.799,28.845,56.209,30.953,56.209z M30.953,62.528
					c0.972,0,1.439-0.924,1.439-2.398c0-1.406-0.543-2.351-1.439-2.351c-0.9,0-1.443,0.944-1.443,2.351
					C29.51,61.604,30.001,62.528,30.953,62.528z"/>
				<path fill="#FFFFFF" d="M40.281,56.368v1.518h-3.043v1.738h2.601v1.524h-2.601v2.799h-1.901v-7.579H40.281z"/>
				<path fill="#FFFFFF" d="M45.965,56.368v1.518h-2.9v1.592h2.506v1.549h-2.506v1.386h2.925v1.535h-4.837v-7.579H45.965z"/>
				<path fill="#FFFFFF" d="M48.999,64.105c-0.864,0.02-1.704-0.195-2.354-0.55l0.552-1.456c0,0,0.91,0.444,1.747,0.444
					c0.82,0,0.873-0.432,0.873-0.629c0-0.505-0.439-0.651-1.119-0.94c-0.985-0.402-2.016-0.949-2.016-2.494
					c0-1.609,1.197-2.271,2.544-2.271c0.797,0,1.637,0.214,2.308,0.522l-0.505,1.438c0,0-0.857-0.371-1.553-0.371
					c-0.532,0-0.877,0.223-0.877,0.664c0,0.534,0.5,0.689,1.218,0.991c0.882,0.377,1.938,0.872,1.938,2.36
					C51.755,63.537,50.354,64.105,48.999,64.105z"/>
				<path fill="#FFFFFF" d="M54.571,56.368v7.579h-1.888v-7.579H54.571z"/>
				<path fill="#FFFFFF" d="M58.982,56.209c2.084,0,3.415,1.59,3.415,3.921c0,2.282-1.198,3.964-3.415,3.976
					c-2.228-0.012-3.406-1.693-3.406-3.976C55.576,57.799,56.863,56.209,58.982,56.209z M58.982,62.528
					c0.957,0,1.438-0.924,1.438-2.398c0-1.406-0.547-2.351-1.438-2.351c-0.905,0-1.453,0.944-1.453,2.351
					C57.529,61.604,58.033,62.528,58.982,62.528z"/>
				<path fill="#FFFFFF" d="M65.335,56.368l1.856,4.23h0.022c-0.061-0.975-0.051-1.943-0.051-1.943v-2.287h1.905v7.579h-1.961
					l-1.884-4.363h-0.02c0,0,0.063,0.9,0.063,1.914v2.449h-1.916v-7.579H65.335z"/>
				<path fill="#FFFFFF" d="M74.226,56.317l2.151,7.63h-1.968l-0.446-1.807h-1.888l-0.449,1.807h-1.922l2.19-7.63H74.226z
					 M72.46,60.68h1.12l-0.549-2.593h-0.022L72.46,60.68z"/>
				<path fill="#FFFFFF" d="M78.93,56.368v6.044h2.482v1.535h-4.375v-7.579H78.93z"/>
			</g>
			<g>
				<path fill="#FFFFFF" d="M14.738,44.083c0-5.194,4.052-9.288,9.502-9.288c2.029,0,3.718,0.567,5.147,1.315l-0.501,0.996
					c0,0-2.104-1.161-4.75-1.161c-4.6,0-8.04,3.542-8.04,8.138c0,4.594,3.44,8.124,8.04,8.124c2.593,0,4.75-1.168,4.75-1.168
					l0.501,1.046c-1.458,0.709-3.308,1.283-5.275,1.283C18.824,53.368,14.738,49.271,14.738,44.083z"/>
				<path fill="#FFFFFF" d="M35.69,35v17.059h10.402v1.119H34.388V35H35.69z"/>
				<path fill="#FFFFFF" d="M61.244,47.486V35h1.301v12.458c-0.043,3.808-2.982,5.91-6.695,5.91s-6.647-2.103-6.694-5.91V35h1.3
					v12.486c0,2.751,2.229,4.721,5.395,4.721C59.011,52.207,61.244,50.237,61.244,47.486z"/>
				<path fill="#FFFFFF" d="M75.778,35c2.749,0,4.981,1.884,4.981,4.829c0,2.03-1.07,3.528-2.485,4.048
					c1.861,0.576,3.432,1.973,3.432,4.413c0,2.932-2.154,4.888-4.985,4.888h-7.897V35H75.778z M70.126,43.423h6.024
					c1.991,0,3.303-1.254,3.303-3.394c0-2.376-1.495-3.919-3.704-3.919h-5.623V43.423z M76.63,52.059
					c2.073,0,3.799-1.566,3.799-3.793c0-1.992-1.581-3.769-3.77-3.769h-6.533v7.562H76.63z"/>
			</g>
		</g>
	</g>
	<g>
		<g>
			<path fill="#FFFFFF" d="M116.267,56.898c-4.186-1.425-8.738-2.896-8.738-8.646c0-3.634,3.219-7.91,8.738-8.416v-2.162
				c0-0.552,0.367-0.966,0.966-0.966c0.598,0,0.966,0.414,0.966,0.966v2.162c3.68,0.275,7.036,1.886,7.036,3.816
				c0,0.966-0.735,1.794-1.747,1.794c-1.609,0-2.254-1.655-5.289-2.115v10.071c4.277,1.518,9.197,3.174,9.197,9.382
				c0,4.921-3.265,9.429-9.197,10.164v2.346c0,0.552-0.368,0.966-0.966,0.966c-0.599,0-0.966-0.414-0.966-0.966v-2.161
				c-4.691,0-9.061-2.116-9.061-4.094c0-0.966,0.553-1.932,1.61-1.932c1.701,0,3.356,2.529,7.45,2.529V56.898z M116.267,43.332
				c-2.576,0.321-4.415,2.115-4.415,4.645s1.886,3.726,4.415,4.691V43.332z M118.199,69.408c3.081-0.644,4.875-3.173,4.875-6.438
				c0-3.035-2.207-4.369-4.875-5.381V69.408z"/>
			<path fill="#FFFFFF" d="M142.41,50.824c1.773-0.917,3.729-1.223,5.746-1.223c6.785,0,11.125,6.418,11.125,13.203
				c0,9.353-5.317,15.466-14.119,15.466c-7.213,0-12.227-4.585-12.227-7.213c0-1.101,0.611-2.323,1.957-2.323
				c2.2,0,4.156,4.523,10.33,4.523c5.195,0,8.312-4.34,8.312-9.414c0-5.134-2.261-9.229-7.518-9.229c-3.974,0-5.869,1.65-7.396,1.65
				c-1.283,0-1.834-0.795-1.834-1.65c0-0.673,0.244-2.262,0.428-3.606l2.262-15.221c0.184-1.101,0.734-1.406,2.018-1.406h15.098
				c1.284,0,2.323,1.039,2.323,2.323c0,1.283-1.039,2.322-2.323,2.322h-12.408L142.41,50.824z"/>
			<path fill="#FFFFFF" d="M181.898,34.015c7.947,0,14.365,8.13,14.365,22.128s-6.418,22.128-14.365,22.128
				c-7.946,0-14.365-8.13-14.365-22.128S173.952,34.015,181.898,34.015z M181.898,73.624c4.768,0,8.619-5.317,8.619-17.481
				c0-12.165-3.852-17.482-8.619-17.482s-8.619,5.317-8.619,17.482C173.279,68.307,177.13,73.624,181.898,73.624z"/>
			<path fill="#FFFFFF" d="M217.167,34.015c7.947,0,14.365,8.13,14.365,22.128s-6.418,22.128-14.365,22.128
				c-7.946,0-14.365-8.13-14.365-22.128S209.221,34.015,217.167,34.015z M217.167,73.624c4.768,0,8.619-5.317,8.619-17.481
				c0-12.165-3.852-17.482-8.619-17.482s-8.619,5.317-8.619,17.482C208.548,68.307,212.4,73.624,217.167,73.624z"/>
		</g>
	</g>
	<g>
		<g>
			<path fill="#FFFFFF" d="M264.016,45.878c0,0.389-0.228,0.629-0.589,0.629s-0.589-0.24-0.589-0.629v-8.337
				c0-0.361,0.188-0.643,0.629-0.643h2.328c1.914,0,3.092,1.339,3.092,2.998s-1.312,2.971-3.052,2.971h-1.819V45.878z
				 M264.016,41.851h1.739c1.164,0,1.954-0.87,1.954-1.954c0-0.937-0.535-1.98-2.008-1.98h-1.686V41.851z"/>
			<path fill="#FFFFFF" d="M270.094,46.065c-0.094,0.254-0.255,0.441-0.575,0.441c-0.309,0-0.562-0.188-0.562-0.495
				c0-0.16,0.12-0.468,0.16-0.589l2.958-7.882c0.147-0.415,0.388-0.723,0.843-0.723s0.696,0.308,0.843,0.723l2.958,7.882
				c0.04,0.121,0.16,0.429,0.16,0.589c0,0.308-0.254,0.495-0.562,0.495c-0.321,0-0.482-0.188-0.575-0.441l-0.616-1.713h-4.416
				L270.094,46.065z M272.931,38.184h-0.027l-1.833,5.152h3.693L272.931,38.184z"/>
			<path fill="#FFFFFF" d="M279.519,45.878c0,0.389-0.228,0.629-0.589,0.629s-0.589-0.24-0.589-0.629v-8.337
				c0-0.361,0.188-0.643,0.629-0.643h2.181c1.499,0,2.918,1.018,2.918,2.569c0,1.928-1.178,2.65-2.597,2.703l-0.508,0.014
				l3.037,3.332c0.161,0.174,0.228,0.321,0.228,0.535c0,0.255-0.241,0.455-0.535,0.455c-0.241,0-0.401-0.12-0.535-0.268l-3.64-3.987
				V45.878z M279.519,41.302h1.605c1.231,0,1.767-0.522,1.767-1.753c0-0.884-0.696-1.633-1.793-1.633h-1.579V41.302z"/>
			<path fill="#FFFFFF" d="M286.333,46.065c-0.094,0.254-0.255,0.441-0.575,0.441c-0.309,0-0.562-0.188-0.562-0.495
				c0-0.16,0.12-0.468,0.16-0.589l2.958-7.882c0.147-0.415,0.388-0.723,0.843-0.723s0.696,0.308,0.843,0.723l2.958,7.882
				c0.04,0.121,0.16,0.429,0.16,0.589c0,0.308-0.254,0.495-0.562,0.495c-0.321,0-0.482-0.188-0.575-0.441l-0.616-1.713h-4.416
				L286.333,46.065z M289.169,38.184h-0.027l-1.833,5.152h3.693L289.169,38.184z"/>
			<path fill="#FFFFFF" d="M300.08,37.996H298.3c-0.335,0-0.576-0.174-0.576-0.549c0-0.374,0.241-0.549,0.576-0.549h4.737
				c0.334,0,0.575,0.175,0.575,0.549c0,0.375-0.241,0.549-0.575,0.549h-1.78v7.882c0,0.389-0.228,0.629-0.589,0.629
				s-0.589-0.24-0.589-0.629V37.996z"/>
			<path fill="#FFFFFF" d="M304.967,37.447c0-0.388,0.228-0.629,0.589-0.629s0.589,0.241,0.589,0.629v5.661
				c0,1.498,1.017,2.382,2.516,2.382s2.516-0.884,2.516-2.382v-5.661c0-0.388,0.228-0.629,0.589-0.629s0.589,0.241,0.589,0.629
				v5.206c0,3.211-2.061,3.854-3.693,3.854s-3.693-0.643-3.693-3.854V37.447z"/>
			<path fill="#FFFFFF" d="M262.628,52.853c0-0.592,0.353-0.981,0.982-0.981h2.228c1.851,0,3.223,1.208,3.223,3.009
				c0,1.838-1.422,2.983-3.146,2.983h-1.397v2.064c0,0.629-0.403,0.981-0.944,0.981s-0.944-0.353-0.944-0.981V52.853z
				 M264.517,56.201h1.284c0.793,0,1.296-0.579,1.296-1.334c0-0.756-0.503-1.335-1.296-1.335h-1.284V56.201z"/>
			<path fill="#FFFFFF" d="M270.145,52.853c0-0.604,0.34-0.981,0.97-0.981h2.215c1.939,0,3.135,0.868,3.135,2.845
				c0,1.385-1.045,2.178-2.329,2.379l2.141,2.292c0.176,0.188,0.252,0.377,0.252,0.554c0,0.49-0.391,0.969-0.944,0.969
				c-0.227,0-0.529-0.088-0.73-0.327l-2.795-3.386h-0.024v2.731c0,0.629-0.403,0.981-0.944,0.981s-0.944-0.353-0.944-0.981V52.853z
				 M272.034,55.836h1.296c0.692,0,1.171-0.415,1.171-1.12c0-0.718-0.479-1.107-1.171-1.107h-1.296V55.836z"/>
			<path fill="#FFFFFF" d="M277.662,52.777c0-0.63,0.403-0.981,0.944-0.981s0.944,0.352,0.944,0.981v7.15
				c0,0.629-0.403,0.981-0.944,0.981s-0.944-0.353-0.944-0.981V52.777z"/>
			<path fill="#FFFFFF" d="M282.119,52.765c0.075-0.453,0.566-0.969,1.233-0.969c0.63,0,1.121,0.453,1.259,0.906l1.486,4.984h0.024
				l1.485-4.984c0.139-0.453,0.63-0.906,1.259-0.906c0.668,0,1.158,0.516,1.234,0.969l1.171,7.024
				c0.012,0.075,0.012,0.151,0.012,0.214c0,0.554-0.402,0.906-0.906,0.906c-0.642,0-0.894-0.289-0.981-0.881l-0.743-5.123h-0.024
				l-1.511,5.274c-0.089,0.302-0.327,0.729-1.008,0.729c-0.68,0-0.919-0.428-1.007-0.729l-1.511-5.274h-0.024l-0.743,5.123
				c-0.088,0.592-0.34,0.881-0.982,0.881c-0.503,0-0.906-0.353-0.906-0.906c0-0.062,0-0.139,0.013-0.214L282.119,52.765z"/>
			<path fill="#FFFFFF" d="M292.67,52.966c0-0.629,0.314-1.095,0.982-1.095h3.121c0.604,0,0.895,0.428,0.895,0.868
				c0,0.429-0.303,0.869-0.895,0.869h-2.215v1.838h2.064c0.616,0,0.919,0.428,0.919,0.868c0,0.429-0.315,0.869-0.919,0.869h-2.064
				v1.913h2.328c0.604,0,0.895,0.428,0.895,0.869c0,0.428-0.303,0.868-0.895,0.868h-3.247c-0.555,0-0.97-0.378-0.97-0.944V52.966z"
				/>
			<path fill="#FFFFFF" d="M299.016,52.853c0-0.604,0.34-0.981,0.97-0.981h2.215c1.939,0,3.135,0.868,3.135,2.845
				c0,1.385-1.045,2.178-2.329,2.379l2.141,2.292c0.176,0.188,0.252,0.377,0.252,0.554c0,0.49-0.391,0.969-0.944,0.969
				c-0.227,0-0.529-0.088-0.73-0.327l-2.795-3.386h-0.024v2.731c0,0.629-0.403,0.981-0.944,0.981s-0.944-0.353-0.944-0.981V52.853z
				 M300.905,55.836h1.296c0.692,0,1.171-0.415,1.171-1.12c0-0.718-0.479-1.107-1.171-1.107h-1.296V55.836z"/>
			<path fill="#FFFFFF" d="M308.61,52.765c0.214-0.579,0.705-1.045,1.347-1.045c0.668,0,1.133,0.44,1.348,1.045l2.467,6.849
				c0.076,0.201,0.101,0.377,0.101,0.466c0,0.49-0.402,0.83-0.868,0.83c-0.529,0-0.793-0.276-0.919-0.654l-0.378-1.184h-3.499
				l-0.378,1.171c-0.126,0.391-0.391,0.667-0.906,0.667c-0.504,0-0.932-0.377-0.932-0.881c0-0.201,0.062-0.353,0.088-0.415
				L308.61,52.765z M308.749,57.334h2.392l-1.171-3.65h-0.025L308.749,57.334z"/>
			<path fill="#FFFFFF" d="M266.607,66.127c0.919,0,2.706,0.303,2.706,1.41c0,0.453-0.314,0.844-0.78,0.844
				c-0.517,0-0.869-0.441-1.926-0.441c-1.562,0-2.367,1.322-2.367,2.858c0,1.498,0.818,2.781,2.367,2.781
				c1.057,0,1.485-0.528,2.001-0.528c0.566,0,0.831,0.566,0.831,0.856c0,1.208-1.901,1.485-2.832,1.485
				c-2.556,0-4.331-2.027-4.331-4.633C262.276,68.142,264.039,66.127,266.607,66.127z"/>
			<path fill="#FFFFFF" d="M270.485,70.76c0-2.618,1.763-4.633,4.331-4.633c2.53,0,4.33,2.077,4.33,4.633
				c0,2.605-1.75,4.633-4.33,4.633C272.26,75.393,270.485,73.365,270.485,70.76z M277.182,70.76c0-1.523-0.793-2.896-2.366-2.896
				c-1.574,0-2.367,1.372-2.367,2.896c0,1.536,0.768,2.896,2.367,2.896C276.415,73.655,277.182,72.296,277.182,70.76z"/>
			<path fill="#FFFFFF" d="M281.363,67.172c0.075-0.453,0.566-0.969,1.233-0.969c0.63,0,1.121,0.453,1.259,0.906l1.486,4.984h0.024
				l1.485-4.984c0.139-0.453,0.63-0.906,1.259-0.906c0.668,0,1.158,0.516,1.234,0.969l1.171,7.024
				c0.012,0.075,0.012,0.151,0.012,0.214c0,0.554-0.402,0.906-0.906,0.906c-0.642,0-0.894-0.289-0.981-0.881l-0.743-5.123h-0.024
				l-1.511,5.274c-0.089,0.302-0.327,0.729-1.008,0.729c-0.68,0-0.919-0.428-1.007-0.729l-1.511-5.274h-0.024l-0.743,5.123
				c-0.088,0.592-0.34,0.881-0.982,0.881c-0.503,0-0.906-0.353-0.906-0.906c0-0.062,0-0.139,0.013-0.214L281.363,67.172z"/>
			<path fill="#FFFFFF" d="M291.915,67.26c0-0.592,0.353-0.981,0.982-0.981h2.228c1.851,0,3.223,1.208,3.223,3.009
				c0,1.838-1.422,2.983-3.146,2.983h-1.397v2.064c0,0.629-0.403,0.981-0.944,0.981s-0.944-0.353-0.944-0.981V67.26z
				 M293.803,70.608h1.284c0.793,0,1.296-0.579,1.296-1.334c0-0.756-0.503-1.335-1.296-1.335h-1.284V70.608z"/>
			<path fill="#FFFFFF" d="M299.431,67.26c0-0.604,0.34-0.981,0.97-0.981h2.215c1.939,0,3.135,0.868,3.135,2.845
				c0,1.385-1.045,2.178-2.329,2.379l2.141,2.292c0.176,0.188,0.252,0.377,0.252,0.554c0,0.491-0.391,0.969-0.944,0.969
				c-0.227,0-0.529-0.088-0.73-0.327l-2.795-3.386h-0.024v2.731c0,0.629-0.403,0.981-0.944,0.981s-0.944-0.353-0.944-0.981V67.26z
				 M301.32,70.243h1.296c0.692,0,1.171-0.415,1.171-1.12c0-0.718-0.479-1.107-1.171-1.107h-1.296V70.243z"/>
			<path fill="#FFFFFF" d="M309.025,67.172c0.214-0.579,0.705-1.045,1.347-1.045c0.668,0,1.133,0.44,1.348,1.045l2.467,6.849
				c0.076,0.201,0.101,0.377,0.101,0.466c0,0.49-0.402,0.83-0.868,0.83c-0.529,0-0.793-0.276-0.919-0.654l-0.378-1.184h-3.499
				l-0.378,1.171c-0.126,0.391-0.391,0.667-0.906,0.667c-0.504,0-0.932-0.377-0.932-0.881c0-0.201,0.062-0.353,0.088-0.415
				L309.025,67.172z M309.164,71.741h2.392l-1.171-3.65h-0.025L309.164,71.741z"/>
		</g>
	</g>
</g>
</svg>
